<?xml version="1.0" standalone="no"?>
<!DOCTYPE svg PUBLIC "-//W3C//DTD SVG 1.1//EN" "http://www.w3.org/Graphics/SVG/1.1/DTD/svg11.dtd" >
<svg xmlns="http://www.w3.org/2000/svg">
<metadata></metadata>
<defs>
<font id="yellow_peas_bold" horiz-adv-x="1150" >
<font-face units-per-em="2048" ascent="1638" descent="-410" />
<missing-glyph horiz-adv-x="827" />
<glyph horiz-adv-x="0" />
<glyph horiz-adv-x="682" />
<glyph unicode=" "  horiz-adv-x="827" />
<glyph unicode="&#x09;" horiz-adv-x="827" />
<glyph unicode="&#xa0;" horiz-adv-x="827" />
<glyph unicode="!" horiz-adv-x="376" d="M45 115q0 43 38 72.5t91 29.5t91 -29.5t38 -72.5t-38 -74t-91 -31t-91 31t-38 74zM68 309v912h208v-912h-208z" />
<glyph unicode="0" horiz-adv-x="919" d="M59 598q0 123 31 231.5t84 188.5t123 126t149 46q82 0 154 -46t124 -126t83 -188.5t31 -231.5t-31 -231.5t-83 -189.5t-124 -127t-154 -46q-80 0 -149.5 46t-122.5 127t-84 189.5t-31 231.5zM266 598q0 -92 14.5 -172t39 -140.5t57.5 -95t69 -34.5q39 0 74 34.5t60.5 95 t40 140.5t14.5 172q0 90 -14.5 170t-40 139.5t-60.5 94t-74 34.5q-37 0 -69.5 -34.5t-57 -94t-39 -139.5t-14.5 -170z" />
<glyph unicode="1" horiz-adv-x="544" d="M20 868l252 326h162v-1194h-203v825l-65 -90z" />
<glyph unicode="2" horiz-adv-x="872" d="M51 0l498 692q12 23 20.5 54.5t8.5 72.5q0 92 -44.5 144.5t-103.5 52.5q-41 0 -84 -26.5t-96 -98.5l-113 141q53 72 127 116t166 44q74 0 138.5 -29.5t112.5 -81t74.5 -119t26.5 -143.5q0 -63 -24.5 -127.5t-61.5 -116.5l-305 -419h373v-156h-713z" />
<glyph unicode="3" horiz-adv-x="862" d="M86 125l100 135q47 -53 97.5 -78.5t89.5 -25.5t72.5 17t59 47t41 69t15.5 84q0 41 -14.5 78.5t-37 68.5t-53 52.5t-61.5 27.5h-100v154h90q35 16 62.5 54t27.5 83q0 59 -41 102t-100 43q-63 0 -139 -67l-109 135q59 41 120.5 63.5t127.5 22.5q72 0 135 -22.5t110.5 -62.5 t75 -95.5t27.5 -118.5q0 -117 -94 -201q76 -53 126 -136t50 -179q0 -76 -32 -143.5t-85 -118t-123.5 -80t-150.5 -29.5q-78 0 -152 32t-135 89z" />
<glyph unicode="4" horiz-adv-x="833" d="M45 358l387 836h209l-311 -682h391v-512h-205v358h-471z" />
<glyph unicode="5" horiz-adv-x="866" d="M74 221l155 98q45 -86 92.5 -124.5t86.5 -38.5t72.5 23.5t59 64.5t41 94t15.5 115q0 61 -15.5 113t-41 92t-59.5 62.5t-72 22.5h-318v451h627v-156h-420v-141h111q82 0 153.5 -35t123.5 -95t83 -141t31 -173t-31 -174t-83 -142.5t-124 -96.5t-153 -36q-106 0 -190.5 59.5 t-143.5 157.5z" />
<glyph unicode="6" horiz-adv-x="919" d="M63 373q0 49 13.5 97t36.5 91l360 635h217l-252 -448h15q82 0 153.5 -30t123.5 -80t82 -118.5t30 -146.5q0 -76 -30 -143.5t-82 -118t-123.5 -79t-153.5 -28.5t-153 28.5t-123 79t-83 118t-31 143.5zM268 373q0 -45 14.5 -84t40 -69t59.5 -47t71 -17q39 0 72.5 17t59 47 t40 69t14.5 84t-14.5 86t-40 70.5t-59 47t-72.5 17.5q-37 0 -71 -17.5t-59.5 -47t-40 -70.5t-14.5 -86z" />
<glyph unicode="7" horiz-adv-x="782" d="M66 1038v156h657l-41 -109q-2 -2 -22.5 -50t-51 -130t-66.5 -190.5t-66 -229t-50 -245.5t-20 -240h-207q0 145 26.5 298t64.5 292t81 256t75 192h-380z" />
<glyph unicode="8" horiz-adv-x="942" d="M63 410q0 102 46.5 190t121.5 148q-41 35 -63.5 82t-22.5 100q0 55 25 102t67 83t97 56.5t117 20.5q66 0 123 -20.5t99 -56.5t65.5 -83t23.5 -102q0 -53 -24.5 -100.5t-65.5 -81.5q78 -57 125 -145.5t47 -192.5q0 -84 -31 -159t-83 -130t-125 -87t-154 -32q-78 0 -149 32 t-124 87t-84 130t-31 159zM266 410q0 -53 14.5 -99.5t40 -81t59.5 -54t71 -19.5q39 0 72.5 19.5t59 54t40 80.5t14.5 100q0 53 -14.5 99t-40 81t-59.5 55.5t-72 20.5q-37 0 -71 -20.5t-59.5 -55.5t-40 -81t-14.5 -99zM350 930q0 -47 30 -79t71 -32q43 0 73.5 32t30.5 79 q0 41 -30.5 74.5t-73.5 33.5q-41 0 -71 -33.5t-30 -74.5z" />
<glyph unicode="9" horiz-adv-x="948" d="M78 821q0 78 30.5 145.5t83 119t124 80t153.5 28.5q78 0 148.5 -28.5t124 -80t84 -119t30.5 -145.5q0 -45 -13.5 -95t-35.5 -93q-86 -152 -179 -317.5t-177 -315.5h-222l258 451h-18q-82 0 -153.5 29.5t-124 79.5t-83 117.5t-30.5 143.5zM285 821q0 -45 14 -85 t38.5 -69.5t58.5 -47t73 -17.5q37 0 70.5 17.5t58.5 47t40 69.5t15 85t-15 85t-40 70t-58.5 46t-70.5 16q-39 0 -73 -16t-58.5 -46t-38.5 -70t-14 -85z" />
<glyph unicode=":" horiz-adv-x="401" d="M59 115q0 43 39 72.5t92 29.5q127 0 127 -102q0 -43 -34.5 -74t-92.5 -31q-53 0 -92 31t-39 74zM59 483q0 43 39 74t92 31q57 0 92 -31t35 -74q0 -104 -127 -104q-53 0 -92 28.5t-39 75.5z" />
<glyph unicode=";" horiz-adv-x="389" d="M-31 -117l113 289h229l-121 -289h-221zM66 483q0 43 37.5 74t93.5 31q57 0 91 -31t34 -74q0 -51 -30 -77.5t-95 -26.5q-55 0 -93 28.5t-38 75.5z" />
<glyph unicode="?" horiz-adv-x="782" d="M66 1071q53 76 130.5 121t170.5 45q74 0 140 -29.5t116.5 -82t80 -122t29.5 -149.5q0 -119 -60.5 -213t-160.5 -141q-41 -16 -64.5 -38t-35 -43.5t-13.5 -43t-2 -39.5h-188q0 25 4 57.5t17.5 66.5t41 66.5t74.5 61.5l16 12l56 35q53 35 83.5 91t30.5 128q0 96 -47 148.5 t-118 52.5q-20 0 -42 -3t-44.5 -15.5t-49 -36t-57.5 -64.5zM174 106q0 43 38 74t93 31q53 0 91 -31t38 -74t-38 -73.5t-91 -30.5q-55 0 -93 30.5t-38 73.5z" />
<glyph unicode="@" horiz-adv-x="1552" d="M84 422q0 131 57.5 251t152.5 212t219 146t259 54t251 -35.5t204 -109.5t143 -187.5t66 -269.5q-2 -72 -17.5 -153.5t-51.5 -151t-95.5 -115t-147.5 -45.5q-20 0 -44.5 7.5t-49 17.5t-46 22.5t-36.5 24.5q-39 -16 -85 -26.5t-93 -10.5q-78 0 -147.5 29t-121.5 78 t-83 115.5t-31 142.5t31 142.5t83 116.5t121.5 79.5t147.5 29.5q35 0 64.5 -2t58.5 -12l201 16q-25 18 -46.5 38t-54 36.5t-84 28.5t-137.5 12q-106 0 -196.5 -39t-156 -105.5t-102 -153.5t-36.5 -183q0 -98 43 -184t113.5 -150.5t157.5 -101.5t177 -37h41t49.5 2t46 7 t33.5 13l98 -135q-82 -29 -146.5 -43t-121.5 -14q-135 0 -259 50t-219 137t-152.5 205t-57.5 251zM588 418q0 -43 14 -82t39 -67.5t57.5 -46t71.5 -17.5q29 0 57.5 12t53.5 35v336q-25 20 -53.5 32.5t-57.5 12.5q-78 0 -130 -61.5t-52 -153.5zM1087 215q0 -4 18.5 -7 t22.5 -3q8 0 18.5 10t27.5 39q10 47 15 84t5 84q0 37 -10 84t-25.5 94t-35 89t-36.5 71v-545z" />
<glyph unicode="A" d="M68 0l438 1217h158l434 -1217h-211l-160 440h-283l-159 -440h-217zM506 598h166l-86 240z" />
<glyph unicode="B" horiz-adv-x="925" d="M78 0v1145q72 51 137.5 61.5t108.5 10.5q82 0 154.5 -24t126.5 -66t86 -97.5t32 -118.5q0 -55 -26.5 -104t-69.5 -90q111 -49 177 -139.5t66 -194.5q0 -78 -36.5 -146.5t-100 -122t-149.5 -84t-185 -30.5h-321zM285 158h114q53 0 101.5 17.5t84.5 48t57.5 71.5t21.5 88 q0 45 -21.5 87t-56.5 73.5t-78 50t-86 18.5h-137v-454zM285 770h82q59 12 105 51t46 90q0 31 -15.5 57.5t-41 47t-61 33t-76.5 12.5q-8 0 -18.5 -1t-20.5 -3v-287z" />
<glyph unicode="C" horiz-adv-x="1118" d="M45 610q0 125 46 235.5t126 193.5t186.5 131.5t225.5 48.5q113 0 217 -49.5t192 -129.5l-106 -108q-72 82 -151 105.5t-152 23.5q-78 0 -145.5 -36t-119 -97.5t-80 -143.5t-28.5 -174q0 -94 28.5 -176t80 -143.5t119 -96t145.5 -34.5q37 0 79 8t82.5 23.5t79.5 38 t68 51.5l100 -107q-88 -80 -192.5 -125t-216.5 -45q-119 0 -225.5 47t-186.5 129t-126 192.5t-46 237.5z" />
<glyph unicode="D" horiz-adv-x="1101" d="M86 0v1130q90 47 172 65.5t150 18.5q127 0 238.5 -48t194.5 -131t131 -192.5t48 -234.5q0 -127 -48 -237.5t-131 -192.5t-194.5 -130t-238.5 -48h-322zM291 162h117q82 0 156.5 34.5t131 95t89 142.5t32.5 174q0 94 -31.5 176t-87 142.5t-130 95.5t-160.5 35 q-53 0 -117 -19v-876z" />
<glyph unicode="E" horiz-adv-x="864" d="M78 0v1219h706v-158h-499v-281h499v-155h-499v-467h499v-158h-706z" />
<glyph unicode="F" horiz-adv-x="847" d="M68 0v1219h708v-158h-500v-287h500v-156h-500v-618h-208z" />
<glyph unicode="G" horiz-adv-x="1161" d="M63 606q0 125 46.5 235.5t125 192.5t184 130t226.5 48q117 0 221.5 -48t192.5 -128l-78 -116q-55 47 -101 73.5t-85 41t-76 17.5t-74 3q-76 0 -143.5 -35t-117.5 -95.5t-80 -142.5t-30 -176t30 -176t80 -142.5t117.5 -95t143.5 -34.5q61 0 119.5 25.5t109.5 66.5v278 h-280v158h485v-487l-53 -54q-72 -72 -168 -108.5t-213 -36.5q-121 0 -226.5 48t-184 130t-125 192.5t-46.5 235.5z" />
<glyph unicode="H" horiz-adv-x="1052" d="M106 0v1219h205v-443h420v443h209v-1219h-209v621h-420v-621h-205z" />
<glyph unicode="I" horiz-adv-x="405" d="M92 0v1219h207v-1219h-207z" />
<glyph unicode="J" horiz-adv-x="378" d="M-213 -117h100q68 0 106 31t56.5 68.5t23.5 73.5t5 46v1117h209v-1123q0 -12 -4 -44t-17.5 -72.5t-39 -86t-69.5 -82t-108.5 -61t-157.5 -24.5h-104v157z" />
<glyph unicode="K" horiz-adv-x="1009" d="M86 0v1219h205v-449l418 449h254l-510 -549l487 -670h-235l-383 532l-31 -30v-502h-205z" />
<glyph unicode="L" horiz-adv-x="970" d="M84 0v1219h205v-1061h594v-158h-799z" />
<glyph unicode="M" d="M100 0v1219h185l282 -756l287 756h186v-1219h-206v592l-181 -483h-170l-178 473v-582h-205z" />
<glyph unicode="N" horiz-adv-x="1052" d="M92 0v1219h176l482 -791v791h204v-1219h-172l-483 782v-782h-207z" />
<glyph unicode="O" horiz-adv-x="1173" d="M45 606q0 125 42 235.5t114.5 193.5t171 131t211.5 48t211 -48t171.5 -131t115.5 -193.5t42 -235.5t-42 -234.5t-115.5 -191.5t-171.5 -130t-211 -48t-211.5 48t-171 130t-114.5 191.5t-42 234.5zM248 606q0 -92 26.5 -173t72.5 -142.5t106.5 -97t130.5 -35.5 q68 0 128 35.5t105 97t71.5 142.5t26.5 173t-26.5 175t-71.5 144.5t-105 97.5t-128 36q-70 0 -130.5 -36t-106.5 -97.5t-72.5 -144.5t-26.5 -175z" />
<glyph unicode="P" horiz-adv-x="948" d="M76 0v1130q70 51 134 67.5t152 16.5q104 0 195.5 -32.5t160 -88t107.5 -131t39 -161.5t-39 -162t-107.5 -132t-159.5 -89t-196 -33q-20 0 -40.5 1t-36.5 3v-389h-209zM285 549q16 -4 36.5 -6t40.5 -2q61 0 115.5 20.5t95.5 55t65 83t24 101.5q0 55 -24 102t-65 82 t-95 54.5t-116 19.5q-45 0 -77 -8v-502z" />
<glyph unicode="Q" horiz-adv-x="1302" d="M59 610q0 125 43 236.5t117 193.5t173.5 130.5t211.5 48.5q113 0 212 -48.5t173 -130.5t117 -193.5t43 -236.5q0 -109 -33 -207t-92 -182l238 -256h-246l-123 129q-59 -43 -134 -66.5t-155 -23.5q-113 0 -212 47t-173 129t-117 192.5t-43 237.5zM266 610q0 -92 26.5 -174 t72 -143.5t106.5 -97t133 -35.5q84 0 166 63l-195 215h250l64 -71q25 51 39 111.5t14 131.5q0 94 -26.5 176t-72.5 143.5t-107.5 96.5t-131.5 35q-72 0 -133 -35t-106.5 -96.5t-72 -143t-26.5 -176.5z" />
<glyph unicode="R" horiz-adv-x="970" d="M88 0v1137q76 45 153.5 61t135.5 16q104 0 195.5 -32.5t159 -88t106.5 -131t39 -161.5q0 -98 -48.5 -182t-134.5 -144l215 -475h-215l-178 399q-63 -14 -139 -14q-20 0 -42 1t-38 3v-389h-209zM297 549q18 -4 38.5 -6t41.5 -2q55 0 108.5 17t95.5 51t67.5 82.5 t25.5 109.5q0 55 -23.5 102t-64.5 82t-94.5 54.5t-114.5 19.5q-47 0 -80 -8v-502z" />
<glyph unicode="S" horiz-adv-x="907" d="M12 250l142 86q51 -98 121.5 -138t148.5 -40q45 0 86 18.5t71.5 50t49 73.5t18.5 89q0 70 -38 122t-85 73q-37 14 -94 20q-47 6 -76.5 13.5t-50.5 11.5q-109 35 -175.5 110.5t-66.5 171.5q0 63 29 118.5t78 96.5t114.5 64.5t139.5 23.5q94 0 180 -47t144 -125l-95 -106 q-33 45 -64.5 70.5t-61 37t-56.5 13.5t-47 2q-63 0 -107.5 -44t-44.5 -104q0 -68 37 -100q23 -23 61 -33t103 -20q113 -14 179.5 -52t107.5 -81q43 -49 68.5 -112t25.5 -124q0 -80 -34 -149.5t-92 -123t-137 -84t-167 -30.5q-61 0 -118.5 11.5t-109 39t-97.5 75.5t-87 122z " />
<glyph unicode="T" horiz-adv-x="794" d="M0 1061v158h788v-158h-290v-1061h-207v1061h-291z" />
<glyph unicode="U" d="M82 500v719h207v-719q0 -68 25.5 -129.5t69.5 -108.5t103.5 -74.5t128.5 -27.5h13q53 0 101 16.5t89 44.5v998h209v-1219h-209v35q-27 -12 -63 -21q-57 -10 -127 -10q-59 0 -142 12q-66 18 -124 50t-107 74t-86 92.5t-57 105.5q-12 37 -21.5 80t-9.5 82z" />
<glyph unicode="V" horiz-adv-x="1052" d="M4 1219h213l309 -859l312 859h209l-439 -1219h-166z" />
<glyph unicode="W" horiz-adv-x="1517" d="M8 1219h211l307 -852l115 338l-190 514h215l82 -226l90 226h213l-195 -514l113 -338l311 852h213l-440 -1219h-166l-139 395l-140 -395h-164z" />
<glyph unicode="X" horiz-adv-x="1142" d="M27 1219h231l320 -457l321 457h236l-441 -621l414 -598h-234l-296 428l-299 -428h-232l418 596z" />
<glyph unicode="Y" horiz-adv-x="1064" d="M-2 1219h235l293 -428l289 428h238l-422 -619v-596h-211v594z" />
<glyph unicode="Z" horiz-adv-x="1060" d="M43 0l666 1061h-609v158h938l-669 -1061h612v-158h-938z" />
<glyph unicode="a" horiz-adv-x="892" d="M43 397q0 82 33 154t89 125t131 85t159 32q35 0 71.5 -5.5t67.5 -13.5v19h194v-639q0 -61 23 -95t49 -59h-223q-16 12 -20.5 22.5t-8.5 22.5q-41 -23 -71.5 -33t-81.5 -10q-84 0 -159 30.5t-131 85t-89 126t-33 153.5zM248 397q0 -49 16.5 -93t44 -76.5t65.5 -52 t81 -19.5q31 0 64.5 15t64.5 40v371q-31 27 -63 42t-66 15q-43 0 -81 -19.5t-65.5 -52t-44 -77t-16.5 -93.5z" />
<glyph unicode="b" horiz-adv-x="884" d="M59 0v1257h207v-481q59 17 129 17q82 0 157 -32t131 -85t89 -125t33 -154t-33 -153.5t-89 -126t-131 -86t-157 -31.5q-37 0 -68.5 9t-60.5 26v-35h-207zM266 211q29 -25 62.5 -40t66.5 -15q43 0 80 19.5t64.5 52t44 76.5t16.5 93t-16.5 92t-44 75t-64.5 51.5t-80 19.5 q-70 0 -129 -53v-371z" />
<glyph unicode="c" horiz-adv-x="788" d="M51 397q0 82 32 154t88 126t132 85t162 31q164 0 274 -125l-96 -117q-59 51 -99 69.5t-79 18.5q-43 0 -81 -19.5t-65.5 -52t-44 -77t-16.5 -93.5t16.5 -93t44 -76.5t65.5 -52t81 -19.5q39 0 80 12t98 59l98 -114q-39 -37 -70.5 -58.5t-63.5 -33t-65.5 -15.5t-76.5 -4 q-86 0 -162 32t-132 85t-88 125.5t-32 152.5z" />
<glyph unicode="d" horiz-adv-x="905" d="M55 397q0 82 33 154t89 126t131 85t159 31q74 0 129 -15v482h209v-1260h-209v39q-18 -18 -57 -27.5t-72 -9.5q-84 0 -159 32t-131 85t-89 125.5t-33 152.5zM262 397q0 -49 16.5 -93t44 -76.5t64.5 -52t80 -19.5q68 0 129 55v373q-59 53 -129 53q-43 0 -80 -19.5 t-64.5 -51t-44 -76t-16.5 -93.5z" />
<glyph unicode="e" horiz-adv-x="858" d="M47 397q0 82 33 154t88 126t130 85t159 31q178 0 284 -107l43 -47l-444 -444q25 -29 59.5 -34t57.5 -5q37 0 101.5 23.5t123.5 82.5l104 -110q-74 -72 -156.5 -111t-172.5 -39q-84 0 -156 26.5t-125 80.5l-20 16q-51 57 -80 128t-29 144zM252 397q0 -41 6 -73l287 292 q-41 23 -88 23q-43 0 -80 -19.5t-64.5 -52t-44 -77t-16.5 -93.5z" />
<glyph unicode="f" horiz-adv-x="561" d="M74 0v872q0 43 7 82t25 78q45 100 163 167t292 73v-158q-82 0 -138 -20.5t-87 -53.5q-25 -23 -41 -63.5t-16 -118.5v-65h266v-154h-266v-639h-205z" />
<glyph unicode="g" horiz-adv-x="942" d="M57 397q0 82 33 154t90.5 125t132 85t158.5 32q29 0 65.5 -7.5t73.5 -29.5q2 10 5 26.5t24 36.5h238q-25 -18 -39.5 -41.5t-21.5 -46t-9 -43t-2 -35.5v-794q-90 -92 -169 -126t-165 -34t-170 41t-156 113l109 106q59 -59 119.5 -81.5t97.5 -22.5q29 0 63.5 15t63.5 40 v108q-55 -18 -127 -18q-33 0 -43 2q-98 10 -179 61.5t-134 129.5q-29 57 -43.5 106t-14.5 98zM264 383q0 -43 15.5 -84t42 -72.5t61.5 -51t72 -19.5h18q39 0 69.5 15t55.5 42v369q-29 25 -63.5 40t-63.5 15q-43 0 -80 -18.5t-65.5 -51t-45 -77t-16.5 -95.5v-12z" />
<glyph unicode="h" horiz-adv-x="897" d="M70 0v1270h206v-490q31 8 62 10.5t68 2.5q131 0 233 -67t145 -177q14 -43 24.5 -81t10.5 -71v-397h-207v397q0 49 -16 93.5t-44 77t-65.5 51t-80.5 18.5q-63 0 -130 -55v-582h-206z" />
<glyph unicode="i" horiz-adv-x="356" d="M63 981q0 96 121 96t121 -96q0 -98 -121 -98t-121 98zM80 0v793h207v-793h-207z" />
<glyph unicode="j" horiz-adv-x="395" d="M-195 -154q59 2 111.5 22.5t90.5 53.5t59.5 76t21.5 92v705h209v-705q0 -78 -39 -148.5t-105.5 -125t-155.5 -88t-192 -37.5v155zM70 975q0 96 125 96q55 0 88.5 -23.5t33.5 -72.5q0 -51 -33.5 -74.5t-88.5 -23.5q-125 0 -125 98z" />
<glyph unicode="k" horiz-adv-x="954" d="M90 0v1270h207v-873l367 363h233l-344 -357l440 -403h-264l-301 272l-131 -133v-139h-207z" />
<glyph unicode="l" horiz-adv-x="395" d="M86 158v1112h205v-1112q0 -100 76 -158h-222q-23 23 -41 56.5t-18 101.5z" />
<glyph unicode="m" horiz-adv-x="1501" d="M82 0v793h209v-41q23 23 58.5 32t70.5 9q84 0 152.5 -26t123.5 -71q51 45 122 71t149 26q135 0 237.5 -71t151.5 -187q12 -37 19 -72t7 -68v-395h-206v395q0 49 -16.5 92t-44.5 76t-66.5 52.5t-81.5 19.5q-39 0 -77 -19.5t-85 -68.5q33 -88 33 -152v-395h-207v395 q0 35 -8.5 63.5t-22.5 55.5q-29 55 -76 88t-104 33q-35 0 -66.5 -12.5t-62.5 -42.5v-580h-209z" />
<glyph unicode="n" horiz-adv-x="913" d="M82 0v793h205v-27q31 10 62.5 18.5t68.5 8.5q88 0 163.5 -26t131 -75t87 -123.5t31.5 -173.5v-395h-202v395q0 51 -17.5 95.5t-47 76t-67.5 50t-79 18.5q-37 0 -69 -10.5t-62 -40.5v-584h-205z" />
<glyph unicode="o" horiz-adv-x="942" d="M59 399q0 82 33 154t90.5 126t133 86t159.5 32q86 0 163 -32t133 -86t89 -126t33 -154q0 -80 -33 -152.5t-89 -128t-133 -87t-163 -31.5q-84 0 -159.5 31.5t-133 87t-90.5 128t-33 152.5zM266 399q0 -51 16.5 -95t45 -76.5t66.5 -52t81 -19.5t81 19.5t66.5 52t45 76.5 t16.5 95t-16.5 95.5t-45 77t-66.5 52t-81 19.5t-81 -19.5t-66.5 -52t-45 -76.5t-16.5 -96z" />
<glyph unicode="p" horiz-adv-x="874" d="M63 -305v1098h203v-33q59 35 131 35q84 0 159 -32t132 -86t90 -126t33 -154t-33 -153.5t-90 -124.5t-132 -84t-159 -31q-33 0 -66.5 5t-64.5 14v-328h-203zM266 215q31 -23 64.5 -39t66.5 -16q43 0 81 18.5t66.5 50t45 75.5t16.5 93q0 51 -16.5 95.5t-45 77t-66.5 51 t-81 18.5q-35 0 -68.5 -16.5t-62.5 -38.5v-369z" />
<glyph unicode="q" horiz-adv-x="931" d="M63 397q0 82 33 154t89.5 126t131 86t158.5 32q39 0 71 -7.5t60 -29.5v35h209v-1098h-209v325q-29 -6 -62.5 -11t-68.5 -5q-84 0 -158.5 31t-131 84t-89.5 124.5t-33 153.5zM266 397q0 -49 16.5 -93t45 -75.5t66.5 -50t81 -18.5q35 0 67.5 16.5t63.5 38.5v369 q-29 23 -62.5 39t-68.5 16q-43 0 -81 -18.5t-66.5 -51t-45 -76.5t-16.5 -96z" />
<glyph unicode="r" horiz-adv-x="557" d="M100 0v793h205v-41q41 27 94.5 36t116.5 11v-156q-72 -6 -127 -20.5t-84 -40.5v-582h-205z" />
<glyph unicode="s" horiz-adv-x="899" d="M88 211l152 92q31 -41 54 -68.5t45.5 -45t47.5 -25.5t59 -8q63 0 103.5 22.5t40.5 57.5q0 74 -117 79q-53 4 -96 8.5t-78 14.5q-39 14 -75 33.5t-63.5 47t-45 61.5t-17.5 77q0 49 27 91t73 75t109.5 51.5t138.5 18.5q119 0 208 -50.5t143 -132.5l-142 -86 q-43 68 -97 91.5t-112 23.5q-63 0 -103 -23.5t-40 -58.5q0 -25 21.5 -43t52.5 -31q25 -4 60.5 -7t72.5 -7q74 -4 133 -29.5t100 -66.5q27 -35 42.5 -68.5t15.5 -68.5q0 -49 -28 -92.5t-76 -76t-112.5 -52t-138.5 -19.5q-238 0 -358 215z" />
<glyph unicode="t" horiz-adv-x="450" d="M86 158v868h203v-233h151v-152h-149v-483q0 -100 76 -158h-222q-23 23 -41 56.5t-18 101.5z" />
<glyph unicode="u" horiz-adv-x="929" d="M82 401v392h203v-392q0 -63 18.5 -109t49 -76t68.5 -44t75 -14q29 0 63.5 16t63.5 39v580h208v-793h-208v35q-18 -16 -55.5 -24.5t-71.5 -8.5q-102 0 -172 25.5t-116 65.5t-71.5 88t-38 93t-14.5 80t-2 47z" />
<glyph unicode="v" horiz-adv-x="952" d="M31 793h217l229 -488l230 488h219l-373 -793h-152z" />
<glyph unicode="w" horiz-adv-x="1327" d="M20 793h220l227 -486l86 189l-143 297h211l38 -76l37 76h217l-143 -299l84 -187l227 486h217l-368 -793h-152l-119 260l-118 -260h-150z" />
<glyph unicode="x" horiz-adv-x="905" d="M20 0l316 403l-311 390h239l193 -240l192 240h236l-310 -387l314 -406h-234l-198 250l-195 -250h-242z" />
<glyph unicode="y" horiz-adv-x="964" d="M8 793h221l234 -486l229 486h221l-450 -934q-18 -33 -46 -66t-64 -59.5t-80 -45t-95 -20.5v185q45 25 76 53t51.5 59t30.5 60.5t16 52.5z" />
<glyph unicode="z" horiz-adv-x="876" d="M23 0l477 637h-391v156h747l-479 -637h393v-156h-747z" />
<glyph unicode="&#x2000;" horiz-adv-x="682" />
<glyph unicode="&#x2001;" horiz-adv-x="1365" />
<glyph unicode="&#x2002;" horiz-adv-x="682" />
<glyph unicode="&#x2003;" horiz-adv-x="1365" />
<glyph unicode="&#x2004;" horiz-adv-x="455" />
<glyph unicode="&#x2005;" horiz-adv-x="341" />
<glyph unicode="&#x2006;" horiz-adv-x="227" />
<glyph unicode="&#x2007;" horiz-adv-x="227" />
<glyph unicode="&#x2008;" horiz-adv-x="170" />
<glyph unicode="&#x2009;" horiz-adv-x="273" />
<glyph unicode="&#x200a;" horiz-adv-x="75" />
<glyph unicode="&#x202f;" horiz-adv-x="273" />
<glyph unicode="&#x205f;" horiz-adv-x="341" />
<glyph unicode="&#x25fc;" horiz-adv-x="788" d="M0 0v788h788v-788h-788z" />
</font>
</defs>
</svg>
