<?xml version="1.0" standalone="no"?>
<!DOCTYPE svg PUBLIC "-//W3C//DTD SVG 1.1//EN" "http://www.w3.org/Graphics/SVG/1.1/DTD/svg11.dtd" >
<svg>
<metadata>
Created by FontForge 20110222 at Sun Feb 22 04:44:15 2015
 By deploy user
Copyright (c) 2013 by Roland Huse. All rights reserved.
</metadata>
<defs>
<font id="yellowpeasdemo" horiz-adv-x="500" >
  <font-face 
    font-family="yellow peas demo"
    font-weight="250"
    font-stretch="normal"
    units-per-em="1000"
    panose-1="0 0 0 0 0 0 0 0 0 0"
    ascent="750"
    descent="-250"
    x-height="436"
    cap-height="700"
    bbox="-111 -209 883 751"
    underline-thickness="50"
    underline-position="-50"
    unicode-range="U+0020-007A"
  />
<missing-glyph 
 />
    <glyph glyph-name=".notdef" 
 />
    <glyph glyph-name="a" unicode="a" horiz-adv-x="531" 
d="M457 52q6 -28 34 -34v-18q-18 3 -35 18q-8 8 -12.5 18.5t-4.5 21.5q-29 -27 -67 -42t-81 -15q-45 0 -84.5 17t-69.5 46.5t-47 69t-17 84.5t17 84.5t47 69.5t69.5 47t84.5 17q43 0 81 -15.5t67 -43.5v50h18v-375zM439 353q-28 30 -66 48.5t-82 18.5q-42 0 -78.5 -16
t-63.5 -43.5t-43 -64.5t-16 -78q0 -42 16 -78.5t43 -63.5t63.5 -42.5t78.5 -15.5q44 0 82 17.5t66 47.5v270z" />
    <glyph glyph-name="b" unicode="b" horiz-adv-x="522" 
d="M247 436q45 0 84.5 -17t69.5 -47t47 -69.5t17 -84.5t-17 -84.5t-47 -69.5t-69.5 -47t-84.5 -17q-43 0 -81 15.5t-67 42.5v-57h-18v740h18v-364q29 28 67 43.5t81 15.5zM247 17q42 0 78.5 16t63.5 43t43 63.5t16 78.5q0 41 -15.5 77.5t-42.5 63.5t-63.5 43t-78.5 16
q-45 0 -83.5 -17.5t-65.5 -47.5v-270q27 -30 65 -48t83 -18z" />
    <glyph glyph-name="c" unicode="c" horiz-adv-x="507" 
d="M430 71l13 -12q-29 -27 -67 -42.5t-81 -15.5q-45 0 -84.5 17t-69.5 47t-47 69.5t-17 84.5t17 84.5t47 69.5t69.5 47t84.5 17q43 0 81 -15.5t67 -42.5l-13 -12q-26 24 -61 38.5t-74 14.5q-42 0 -78.5 -16t-63.5 -43.5t-43 -64t-16 -77.5q0 -42 16 -78.5t43 -63.5t63.5 -43
t78.5 -16q39 0 74 14t61 39z" />
    <glyph glyph-name="d" unicode="d" horiz-adv-x="534" 
d="M297 437q43 0 81 -15.5t67 -43.5v364h18v-742h-18v59q-29 -27 -67 -42.5t-81 -15.5q-45 0 -84.5 17t-69.5 47t-47 69.5t-17 84.5t17 84.5t47 69.5t69.5 47t84.5 17zM297 18q45 0 83 18t65 48v270q-27 30 -65 47.5t-83 17.5q-42 0 -78.5 -16t-63.5 -43t-43 -63.5
t-16 -77.5q0 -42 16 -78.5t43 -63.5t63.5 -43t78.5 -16z" />
    <glyph glyph-name="e" unicode="e" horiz-adv-x="507" 
d="M292 18q39 0 74 14t61 39l13 -12q-29 -27 -67 -42.5t-81 -15.5t-81 15.5t-67 42.5l-12 12q-27 29 -42.5 67t-15.5 81q0 45 17 84.5t47 69.5t69.5 47t84.5 17q43 0 81 -15.5t67 -42.5l12 -12l-296 -296q27 -25 62 -39t74 -14zM91 219q0 -39 14 -74t39 -62l283 284
q-26 24 -61 38.5t-74 14.5q-42 0 -78.5 -16t-63.5 -43.5t-43 -64t-16 -77.5z" />
    <glyph glyph-name="grave" unicode="`" horiz-adv-x="507" 
 />
    <glyph glyph-name="f" unicode="f" horiz-adv-x="203" 
d="M100 437h182v-17h-182v-420h-17v531q0 46 17 86q12 28 31.5 52t44.5 41t54.5 27.5t61.5 11.5v-17q-39 -2 -73.5 -17.5t-60.5 -41.5t-41.5 -60.5t-17.5 -73.5z" />
    <glyph glyph-name="g" unicode="g" horiz-adv-x="556" 
d="M446 378q3 17 9.5 28t14.5 17t15.5 8.5t12.5 3.5v-17q-15 -3 -25 -15t-10 -28v-508l-17 -18q-29 -27 -67 -42.5t-81 -15.5t-81 15.5t-67 42.5l12 12q27 -25 62 -39t74 -14q44 0 82 17.5t66 48.5v184q-30 -26 -67.5 -42t-80.5 -16h-10t-10 1q-51 5 -92.5 30t-68.5 65
l-10 17q-27 46 -27 105q0 45 17 84.5t47 69.5t69.5 47t84.5 17q10 0 27.5 -2t37.5 -8t41.5 -17.5t41.5 -30.5zM446 353q-28 30 -66 48t-82 18q-42 0 -78.5 -16t-63.5 -43t-43 -63.5t-16 -78.5q0 -47 20 -87q2 -5 4.5 -9t5.5 -9q26 -42 69.5 -68t97.5 -28h4q5 0 11 0.5
t11 1.5q38 4 70 21t56 43v270z" />
    <glyph glyph-name="h" unicode="h" horiz-adv-x="524" 
d="M464 218v-218h-17v218q0 42 -16 78.5t-43 63.5t-63.5 43t-78.5 16q-45 0 -83 -17.5t-65 -48.5v-353h-18v751h18v-373q29 27 67 42.5t81 15.5q68 0 121.5 -36.5t79.5 -95.5q17 -40 17 -86z" />
    <glyph glyph-name="i" unicode="i" horiz-adv-x="196" 
d="M100 0h-18v437h18v-437zM115 528q0 -11 -7.5 -18.5t-18.5 -7.5t-18.5 7.5t-7.5 18.5t7.5 18.5t18.5 7.5t18.5 -7.5t7.5 -18.5z" />
    <glyph glyph-name="j" unicode="j" horiz-adv-x="201" 
d="M102 438v-421q0 -44 -16.5 -83t-45 -68.5t-66.5 -47.5t-82 -19v17q40 2 75 18.5t61 43.5t41 62.5t15 76.5v421h18zM115 528q0 -11 -7.5 -18.5t-18.5 -7.5t-18.5 7.5t-7.5 18.5t7.5 18.5t18.5 7.5t18.5 -7.5t7.5 -18.5z" />
    <glyph glyph-name="k" unicode="k" horiz-adv-x="528" 
d="M470 412l-190 -191l195 -195v-24l-208 207l-148 -148v-61h-17v751h17v-666l351 351v-24z" />
    <glyph glyph-name="l" unicode="l" horiz-adv-x="189" 
d="M132 18v-17q-23 3 -38 20t-15 40v689h18v-689q0 -16 10 -28t25 -15z" />
    <glyph glyph-name="m" unicode="m" horiz-adv-x="895" 
d="M833 216v-216h-17v216q0 42 -16 78.5t-43.5 64t-64.5 43.5t-79 16q-45 0 -85 -20t-82 -68l-7 -12q2 -4 3.5 -8t3.5 -8q18 -39 18 -86v-216h-18v216q0 43 -17 82q-2 5 -4.5 10t-5.5 10q-26 45 -72 72.5t-103 27.5q-45 0 -83 -17.5t-66 -48.5v-352h-18v437h18v-60
q29 27 67.5 43t81.5 16q59 0 107.5 -27.5t77.5 -73.5l8 12t9 12l18 18q29 27 67.5 43t81.5 16q69 0 123 -37t80 -97q17 -40 17 -86z" />
    <glyph glyph-name="n" unicode="n" horiz-adv-x="530" 
d="M468 216v-216h-18v216q0 43 -17 82q-4 10 -11 20q-26 45 -72 72.5t-102 27.5q-45 0 -83 -17.5t-66 -48.5v-352h-18v437h18v-60q29 27 67 43t82 16q29 0 57.5 -8.5t54 -23.5t47 -37t36.5 -49l7 -16q8 -20 13 -41.5t5 -44.5z" />
    <glyph glyph-name="o" unicode="o" horiz-adv-x="566" 
d="M278 0q-45 0 -85 17.5t-70 47.5t-47.5 70t-17.5 85t17.5 85t47.5 70t70 47t85 17t85 -17t70 -47t47.5 -70t17.5 -85t-17.5 -85t-47.5 -70t-70 -47.5t-85 -17.5zM278 422q-42 0 -79 -16t-64 -43.5t-43 -64t-16 -78.5t16 -79t43 -64t64 -43t79 -16t78.5 16t64 43t43.5 64
t16 79t-16 78.5t-43.5 64t-64 43.5t-78.5 16z" />
    <glyph glyph-name="p" unicode="p" horiz-adv-x="517" 
d="M249 438q45 0 85 -17t70 -47t47.5 -70t17.5 -85t-17.5 -85t-47.5 -69t-70 -46t-85 -17q-43 0 -81.5 15.5t-67.5 43.5v-262h-18v638h18v-58q29 27 67.5 43t81.5 16zM249 20q42 0 79 15.5t64 42t43 63t16 78.5t-16 78.5t-43 63.5t-64 43t-79 16q-45 0 -83 -18t-66 -48v-268
q28 -31 66 -48.5t83 -17.5z" />
    <glyph glyph-name="q" unicode="q" horiz-adv-x="517" 
d="M265.016 438q-44.998 0 -84.9951 -17q-39.998 -17 -69.9961 -47t-47.4971 -70t-17.499 -85t17.499 -85t47.4971 -69t69.9961 -46q39.9971 -17 84.9951 -17q42.9971 0 81.4941 15.5q38.498 15.5 67.4961 43.5v-262h17.999v638h-17.999v-58q-28.998 27 -67.4961 43
q-38.4971 16 -81.4941 16zM265.016 20q-41.998 0 -78.9961 15.5q-36.9971 15.5 -63.9961 42q-26.998 26.5 -42.9971 63t-15.999 78.5t15.999 78.5t42.9971 63.5q26.999 27 63.9961 43q36.998 16 78.9961 16q44.9971 0 82.9941 -18q37.998 -18 65.9961 -48v-268
q-27.998 -31 -65.9961 -48.5q-37.9971 -17.5 -82.9941 -17.5z" />
    <glyph glyph-name="r" unicode="r" horiz-adv-x="275" 
d="M239 436v-17q-42 -2 -78.5 -19.5t-62.5 -46.5v-353h-17v437h17v-59q28 26 64 41t77 17z" />
    <glyph glyph-name="s" unicode="s" horiz-adv-x="509" 
d="M436 112q0 -24 -13.5 -44.5t-37 -36t-56 -24.5t-70.5 -9q-58 0 -100.5 20t-62.5 52q-2 4 -4 7.5t-4 7.5l14 12q3 -10 8 -17q17 -28 56 -46t93 -18q34 0 63.5 7.5t50.5 20.5t33 30.5t12 37.5q0 40 -40.5 67t-109.5 28q-8 0 -17 1.5t-15 1.5q-24 1 -51 8.5t-49.5 21.5
t-37.5 34.5t-15 48.5q0 24 13.5 44.5t37 36t55.5 24.5t70 9q59 0 101.5 -19.5t62.5 -51.5l-13 -11q-17 29 -56.5 47t-94.5 18q-35 0 -64 -7.5t-50 -20.5t-33 -31t-12 -38t11.5 -37t32.5 -30t49.5 -20.5t62.5 -8.5q20 -1 40.5 -3t35.5 -6q51 -14 77.5 -42t26.5 -64z" />
    <glyph glyph-name="t" unicode="t" horiz-adv-x="200" 
d="M100 421v-360q0 -16 10 -28t25 -15v-18q-23 3 -38 20.5t-15 40.5v639h18v-263h100v-16h-100z" />
    <glyph glyph-name="u" unicode="u" horiz-adv-x="540" 
d="M83 221v215h17v-215q0 -23 5 -43t13 -40q2 -5 4.5 -9.5t5.5 -9.5q26 -45 72 -72.5t103 -27.5q45 0 83 17.5t66 48.5v351h18v-426h-18v50q-29 -28 -67.5 -43.5t-81.5 -15.5q-59 0 -107.5 27.5t-77.5 73.5q-3 4 -5.5 8t-4.5 9l-8 16q-17 40 -17 86z" />
    <glyph glyph-name="z" unicode="z" horiz-adv-x="479" 
d="M396 0h-342l324 419h-306v18h342l-324 -419h306v-18z" />
    <glyph glyph-name="v" unicode="v" horiz-adv-x="527" 
d="M484 437l-211 -437h-15l-211 437h20l198 -412l199 412h20z" />
    <glyph glyph-name="w" unicode="w" horiz-adv-x="800" 
d="M747 437l-209 -437h-15l-124 262l-125 -262h-14l-210 437h20l197 -412l122 257l-75 155h19l66 -135l65 135h20l-75 -155l122 -257l197 412h19z" />
    <glyph glyph-name="x" unicode="x" horiz-adv-x="491" 
d="M432 0h-23l-168 209l-168 -209h-22l179 223l-176 214h23l164 -200l164 200h23l-175 -214z" />
    <glyph glyph-name="y" unicode="y" horiz-adv-x="570" 
d="M512 436l-262 -534q-2 -4 -4 -7.5t-4 -6.5q-15 -29 -47 -34q-3 -1 -9 -1q-5 0 -8 1v18q2 -1 8 -1t9 1q13 2 23 11.5t21 32.5l43 92l-210 428h20l200 -408l200 408h20z" />
    <glyph glyph-name="A" unicode="A" horiz-adv-x="657" 
d="M580 0h-17l-103 284h-284l-103 -284h-19l259 699h12zM452 301l-133 368l-134 -368h267z" />
    <glyph glyph-name="E" unicode="E" horiz-adv-x="502" 
d="M100 684v-367h332v-16h-332v-285h332v-16h-348v700h348v-16h-332z" />
    <glyph glyph-name="G" unicode="G" horiz-adv-x="674" 
d="M613 356v-257q-4 -4 -8 -7.5t-8 -8.5q-43 -39 -97 -61t-114 -22q-67 0 -126 27.5t-103 74.5t-69.5 110.5t-25.5 135.5t25.5 135.5t69.5 110.5t103 74.5t126 27.5q60 0 114 -22.5t97 -61.5v-23q-42 42 -95.5 66.5t-115.5 24.5q-63 0 -119 -26t-98 -71t-66 -105.5
t-24 -129.5t24 -129.5t66 -105.5t98 -71t119 -26q62 0 115.5 24t95.5 66v234h-187v16h203z" />
    <glyph glyph-name="B" unicode="B" horiz-adv-x="535" 
d="M272 405q46 -5 85 -22.5t68 -44.5t45.5 -61t16.5 -72q0 -42 -19.5 -79t-53.5 -65t-80 -44t-98 -16q-38 0 -73 8.5t-64 24.5v-25h-16v667q6 4 16 7q43 16 89 16q42 0 78.5 -12t64 -33t43.5 -49t16 -60q0 -47 -32.5 -84t-85.5 -56zM99 410h126q32 5 59 17t47 30t31.5 40.5
t11.5 47.5q0 28 -14.5 53.5t-40 44t-59 29.5t-72.5 11q-24 0 -46.5 -4.5t-42.5 -12.5v-256zM236 17q49 0 91.5 15t74.5 40.5t50.5 59.5t18.5 73q0 38 -20 72.5t-51.5 60.5t-71 41t-78.5 15h-151v-342q29 -17 64 -26t73 -9z" />
    <glyph glyph-name="C" unicode="C" horiz-adv-x="637" 
d="M81 350q0 -69 24 -129.5t66 -105.5t98 -71t119 -26q62 0 115.5 24t95.5 66v-23q-43 -39 -97 -61t-114 -22q-67 0 -126 27.5t-103 74.5t-69.5 110.5t-25.5 135.5t25.5 135.5t69.5 111.5t103 75.5t126 27.5q60 0 114 -23.5t97 -62.5v-23q-42 42 -95.5 67t-115.5 25
q-63 0 -119 -26.5t-98 -71.5t-66 -105.5t-24 -129.5z" />
    <glyph glyph-name="D" unicode="D" horiz-adv-x="651" 
d="M238 -1q-72 0 -138 29l-16 7v665h16v-31q67 28 138 28q72 0 136 -27.5t111 -74.5t74.5 -111t27.5 -136t-27.5 -136t-74.5 -111t-111 -74.5t-136 -27.5zM238 681q-37 0 -71.5 -8t-66.5 -22v-606q32 -14 66.5 -22t71.5 -8q69 0 129.5 26t106 71.5t71.5 106t26 129.5
t-26 129.5t-71.5 106t-106 71.5t-129.5 26z" />
    <glyph glyph-name="F" unicode="F" horiz-adv-x="485" 
d="M100 684v-367h332v-16h-332v-301h-16v700h348v-16h-332z" />
    <glyph glyph-name="H" unicode="H" horiz-adv-x="599" 
d="M518 700v-700h-17v285h-399v-285h-16v700h16v-399h399v399h17z" />
    <glyph glyph-name="I" unicode="I" horiz-adv-x="178" 
d="M99 0h-16v700h16v-700z" />
    <glyph glyph-name="J" unicode="J" horiz-adv-x="199" 
d="M-103 -176h-8v16h8q44 0 74.5 12t51.5 30.5t33 41t18 43t8 36.5t2 21v676h16v-674q0 -1 -1 -16t-7 -37.5t-18.5 -48.5t-35 -48t-57 -37t-84.5 -15z" />
    <glyph glyph-name="K" unicode="K" horiz-adv-x="551" 
d="M201 392l291 -392h-21l-282 380l-88 -88v-292h-16v700h16v-385l369 385h23z" />
    <glyph glyph-name="L" unicode="L" horiz-adv-x="553" 
d="M485 16v-16h-410v700h17v-684h393z" />
    <glyph glyph-name="M" unicode="M" horiz-adv-x="677" 
d="M585 700v-700h-16v656l-225 -585h-20l-225 585v-656h-16v700h17l234 -609l234 609h17z" />
    <glyph glyph-name="N" unicode="N" horiz-adv-x="597" 
d="M537 700v-700h-18l-419 665v-665h-17v700h18l419 -670v670h17z" />
    <glyph glyph-name="O" unicode="O" horiz-adv-x="718" 
d="M353 1q-62 0 -116 27.5t-94 74.5t-63.5 110.5t-23.5 134.5q0 72 23.5 135.5t63.5 111t94 75.5t116 28q61 0 115.5 -28t95 -75.5t64 -111t23.5 -135.5q0 -71 -23.5 -134.5t-64 -110.5t-95 -74.5t-115.5 -27.5zM353 682q-58 0 -109 -26.5t-89.5 -72t-60.5 -106.5t-22 -129
t22 -128t60.5 -105t89.5 -71.5t109 -26.5t109 26.5t89.5 71.5t60.5 105t22 128t-22 129t-60.5 106.5t-89.5 72t-109 26.5z" />
    <glyph glyph-name="P" unicode="P" horiz-adv-x="560" 
d="M213 698q56 0 106 -17.5t87 -48.5t58.5 -72t21.5 -87q0 -47 -21.5 -87.5t-58.5 -71.5t-87 -48.5t-106 -17.5q-59 0 -113 20v-268h-16v671q4 2 8 3.5t8 3.5q54 20 113 20zM213 264q53 0 100 16.5t82 45t55 66.5t20 81t-20 81t-55 66.5t-82 45t-100 16.5q-31 0 -59 -5.5
t-54 -15.5v-376q51 -21 113 -21z" />
    <glyph glyph-name="Q" unicode="Q" horiz-adv-x="769" 
d="M677 351q0 -75 -24.5 -139.5t-68.5 -112.5l87 -91h-23l-76 79q-39 -40 -88.5 -62.5t-106.5 -22.5q-63 0 -117.5 27.5t-95.5 74.5t-64.5 111t-23.5 136t23.5 136t64.5 111t95.5 74.5t117.5 27.5q62 0 116.5 -27.5t95.5 -74.5t64.5 -111t23.5 -136zM377 18q53 0 100 21.5
t84 59.5l-93 97h22l82 -85q42 45 65 106.5t23 133.5q0 69 -22.5 129.5t-60.5 105.5t-90 71.5t-110 26.5q-59 0 -111 -26.5t-90.5 -71.5t-61 -105.5t-22.5 -129.5t22.5 -129.5t61 -106t90.5 -71.5t111 -26z" />
    <glyph glyph-name="R" unicode="R" horiz-adv-x="570" 
d="M486 473q0 -62 -36 -112.5t-96 -80.5l129 -280h-18l-126 274q-58 -26 -126 -26q-61 0 -113 20v-268h-16v671q4 2 8 3.5t8 3.5q52 20 113 20q56 0 106 -17.5t87 -48.5t58.5 -72t21.5 -87zM332 288q4 2 7.5 3.5t7.5 3.5q55 27 89 74t34 104q0 43 -20.5 81t-55.5 66.5
t-81.5 45t-99.5 16.5q-31 0 -59 -5.5t-54 -15.5v-376q51 -21 113 -21q32 0 62.5 6.5t56.5 17.5z" />
    <glyph glyph-name="S" unicode="S" horiz-adv-x="550" 
d="M475 208q0 -42 -17.5 -79.5t-48.5 -66t-72 -45t-87 -16.5q-62 0 -113 26.5t-81 71.5l-9 15l11 15q2 -5 4 -8.5t4 -7.5q27 -43 75.5 -69.5t108.5 -26.5q43 0 81 15.5t66.5 41.5t45 61t16.5 73q0 37 -16 70.5t-43.5 58t-64.5 39.5t-79 16l-20 1q-23 1 -46 9
q-51 16 -84 54.5t-33 88.5q0 31 14 59t38 49t56 33t69 12q47 0 86 -19.5t63 -51.5l-10 -14q-21 31 -57.5 50t-81.5 19q-33 0 -62.5 -11t-51.5 -29.5t-34.5 -43.5t-12.5 -53t12.5 -52.5t34 -43t50 -29.5t61.5 -11l3 -1q23 -1 35.5 -2.5t23.5 -4.5q36 -9 66 -27t52.5 -43.5
t35 -57t12.5 -65.5z" />
    <glyph glyph-name="T" unicode="T" horiz-adv-x="424" 
d="M413 700v-16h-193v-684h-16v684h-193v16h402z" />
    <glyph glyph-name="U" unicode="U" horiz-adv-x="680" 
d="M589 700v-690h-16v52q-53 -37 -115 -52q-37 -8 -73 -8q-35 0 -72 8q-75 17 -131.5 65t-81.5 114q-16 41 -16 90v421h16v-421q0 -54 22.5 -101.5t61 -83.5t90.5 -56.5t111 -20.5q54 0 102 17.5t86 47.5v618h16z" />
    <glyph glyph-name="V" unicode="V" horiz-adv-x="603" 
d="M597 700l-259 -700h-18l-259 700h17l251 -676l251 676h17z" />
    <glyph glyph-name="W" unicode="W" horiz-adv-x="896" 
d="M883 700l-260 -700h-17l-138 386l-138 -386h-18l-259 700h17l251 -676l138 387l-111 289h18l102 -265l104 265h17l-113 -289l138 -387l251 676h18z" />
    <glyph glyph-name="X" unicode="X" horiz-adv-x="677" 
d="M340 342l245 -342h-20l-235 328l-234 -328h-20l244 342l-259 358h20l249 -344l250 344h20z" />
    <glyph glyph-name="Y" unicode="Y" horiz-adv-x="560" 
d="M554 700l-245 -347v-351h-17v351l-244 347h18l235 -330l234 330h19z" />
    <glyph glyph-name="Z" unicode="Z" horiz-adv-x="608" 
d="M62 0l443 684h-436v16h466l-443 -684h437v-16h-467z" />
    <glyph glyph-name="space" unicode=" " 
 />
    <glyph glyph-name="zero" unicode="0" horiz-adv-x="571" 
d="M284 3q-42 0 -79 27.5t-64.5 74.5t-43.5 110.5t-16 135.5t16 135.5t43.5 110.5t64.5 74.5t79 27.5t78.5 -27.5t64 -74.5t43.5 -110.5t16 -135.5t-16 -135.5t-43.5 -110.5t-64 -74.5t-78.5 -27.5zM284 683q-39 0 -72.5 -26t-59 -71t-40 -105.5t-14.5 -129.5t14.5 -129.5
t40 -105.5t59 -71t72.5 -26q38 0 72 26t59.5 71t40 105.5t14.5 129.5t-14.5 129.5t-40 105.5t-59.5 71t-72 26z" />
    <glyph glyph-name="one" unicode="1" horiz-adv-x="344" 
d="M211 700v-700h-16v671l-123 -163v27l124 165h15z" />
    <glyph glyph-name="two" unicode="2" 
d="M98 16h288v-16h-322l287 387q14 23 22 51t8 58q0 39 -12.5 73t-34.5 59.5t-51.5 40t-62.5 14.5q-43 0 -78.5 -23t-58.5 -61v27q24 33 59.5 53t77.5 20q37 0 69.5 -16t56.5 -43.5t38 -64.5t14 -79q0 -38 -12 -72.5t-33 -61.5z" />
    <glyph glyph-name="three" unicode="3" 
d="M423 205q0 -42 -15.5 -79t-43 -64.5t-64 -43.5t-78.5 -16q-38 0 -72.5 13.5t-61.5 37.5v22q26 -26 60.5 -41.5t73.5 -15.5t72.5 14.5t59 40t40 59t14.5 72.5q0 36 -12.5 68.5t-35 58t-52.5 42.5t-65 21h-13v16h6q51 12 84 49t33 85q0 28 -12.5 53.5t-34 44t-50 29.5
t-61.5 11q-31 0 -58.5 -9.5t-48.5 -26.5v20q23 15 50 23.5t57 8.5q36 0 67.5 -12t55.5 -33t37.5 -49t13.5 -60q0 -46 -27 -83t-71 -55q33 -9 61 -28t48 -45.5t31.5 -59t11.5 -68.5z" />
    <glyph glyph-name="four" unicode="4" horiz-adv-x="470" 
d="M375 252v-252h-17v236h-295l220 464h17l-212 -448h287z" />
    <glyph glyph-name="five" unicode="5" horiz-adv-x="533" 
d="M440 255q0 -52 -16 -98t-43.5 -80.5t-64.5 -54.5t-79 -20q-50 0 -92 27.5t-70 73.5l10 14q26 -45 65.5 -72t86.5 -27q39 0 73 18.5t59.5 51t40 75.5t14.5 92q0 48 -14.5 91t-40 74.5t-59.5 50t-73 18.5h-153v211h299v-16h-283v-179h137q42 0 79 -19.5t64.5 -53.5
t43.5 -79.5t16 -97.5z" />
    <glyph glyph-name="six" unicode="6" horiz-adv-x="563" 
d="M281 406q42 0 79 -16t64.5 -43t43.5 -64t16 -79t-16 -79t-43.5 -64t-64.5 -43t-79 -16t-78.5 16t-64 43t-43.5 64t-16 79q0 28 7 54t19 49l228 393h19l-197 -338q26 21 58.5 32.5t67.5 11.5zM281 18q39 0 73 14.5t59.5 40t40 59t14.5 72.5t-14.5 72.5t-40 59t-59.5 40
t-73 14.5q-38 0 -72 -14.5t-59.5 -40t-40 -59t-14.5 -72.5t14.5 -72.5t40 -59t59.5 -40t72 -14.5z" />
    <glyph glyph-name="seven" unicode="7" horiz-adv-x="461" 
d="M183 0h-17q0 65 12 136.5t30.5 142t40.5 136t43.5 120t38.5 93.5t25 56h-279v16h305l-6 -12q-1 -1 -15 -32.5t-35.5 -84t-46.5 -121.5t-46.5 -145.5t-35.5 -155t-14 -149.5z" />
    <glyph glyph-name="eight" unicode="8" horiz-adv-x="582" 
d="M338 446q33 -10 60.5 -30.5t47.5 -49.5t31.5 -64.5t11.5 -74.5q0 -47 -16 -88t-43.5 -72t-64.5 -48.5t-79 -17.5t-78.5 17.5t-64 48.5t-43.5 72t-16 88q0 39 11.5 74.5t31.5 64.5t47.5 49.5t59.5 30.5q-42 14 -68.5 46.5t-26.5 74.5q0 27 11.5 50.5t31.5 41.5t47 28
t57 10t57 -10t47 -28t31.5 -41.5t11.5 -50.5q0 -42 -26.5 -74.5t-68.5 -46.5zM156 567q0 -23 10 -43.5t28 -36t41.5 -24.5t50.5 -9t51 9t41.5 24.5t28 36t10.5 43.5q0 24 -10.5 44.5t-28 36t-41.5 24.5t-51 9t-50.5 -9t-41.5 -24.5t-28 -36t-10 -44.5zM286 17
q39 0 72.5 16.5t59 45t40 66.5t14.5 82q0 43 -14.5 81.5t-40 67.5t-59 45.5t-72.5 16.5q-38 0 -72 -16.5t-59.5 -45.5t-40 -67.5t-14.5 -81.5q0 -44 14.5 -82t40 -66.5t59.5 -45t72 -16.5z" />
    <glyph glyph-name="nine" unicode="9" horiz-adv-x="563" 
d="M282 296q-42 0 -79 16t-64.5 43t-43.5 64t-16 79t16 79t43.5 64t64.5 43t79 16t78.5 -16t64 -43t43.5 -64t16 -79q0 -28 -7 -54t-19 -49l-230 -395h-19l199 340q-26 -21 -58.5 -32.5t-67.5 -11.5zM282 684q-39 0 -73 -14.5t-59.5 -40t-40 -59t-14.5 -72.5t14.5 -72.5
t40 -59t59.5 -40t73 -14.5q38 0 72 14.5t59.5 40t40 59t14.5 72.5t-14.5 72.5t-40 59t-59.5 40t-72 14.5z" />
    <glyph glyph-name="exclam" unicode="!" horiz-adv-x="223" 
d="M118 119h-18v581h18v-581zM136 32q0 -11 -7.5 -18.5t-18.5 -7.5t-18.5 7.5t-7.5 18.5t7.5 18.5t18.5 7.5t18.5 -7.5t7.5 -18.5z" />
    <glyph glyph-name="period" unicode="." horiz-adv-x="198" 
d="M118 32q0 -11 -7.5 -18.5t-18.5 -7.5t-18.5 7.5t-7.5 18.5t7.5 18.5t18.5 7.5t18.5 -7.5t7.5 -18.5z" />
    <glyph glyph-name="colon" unicode=":" horiz-adv-x="195" 
d="M118 32q0 -11 -7.5 -18.5t-18.5 -7.5t-18.5 7.5t-7.5 18.5t7.5 18.5t18.5 7.5t18.5 -7.5t7.5 -18.5zM118 188q0 -11 -7.5 -18.5t-18.5 -7.5t-18.5 7.5t-7.5 18.5t7.5 18.5t18.5 7.5t18.5 -7.5t7.5 -18.5z" />
    <glyph glyph-name="semicolon" unicode=";" horiz-adv-x="200" 
d="M124 188q0 -11 -7.5 -18.5t-18.5 -7.5t-18.5 7.5t-7.5 18.5t7.5 18.5t18.5 7.5t18.5 -7.5t7.5 -18.5zM72 -67h-24l37 98h32z" />
    <glyph glyph-name="comma" unicode="," horiz-adv-x="189" 
d="M75 -67h-24l37 98h32z" />
    <glyph glyph-name="question" unicode="?" horiz-adv-x="450" 
d="M212 182h-18l149 204q14 23 22 51t8 58q0 39 -12.5 73t-34.5 59.5t-51.5 40t-62.5 14.5q-43 0 -78.5 -23t-58.5 -61v27q24 33 59.5 53t77.5 20q37 0 69.5 -16t56.5 -43.5t38 -64.5t14 -79q0 -38 -12 -72.5t-33 -61.5zM210 27q0 -11 -7.5 -18.5t-18.5 -7.5t-18.5 7.5
t-7.5 18.5t7.5 18.5t18.5 7.5t18.5 -7.5t7.5 -18.5z" />
  </font>
</defs>
</svg>
