<?xml version="1.0" encoding="utf-8"?>
<!-- Generator: Adobe Illustrator 16.0.0, SVG Export Plug-In . SVG Version: 6.00 Build 0)  -->
<!DOCTYPE svg PUBLIC "-//W3C//DTD SVG 1.1//EN" "http://www.w3.org/Graphics/SVG/1.1/DTD/svg11.dtd">
<svg version="1.1" id="Layer_1" xmlns="http://www.w3.org/2000/svg" xmlns:xlink="http://www.w3.org/1999/xlink" x="0px" y="0px"
	 width="2217.494px" height="1216.238px" viewBox="0 0 2217.494 1216.238" enable-background="new 0 0 2217.494 1216.238"
	 xml:space="preserve">
<g opacity="0.5">
	<g>
		
			<line fill="none" stroke="#E2CFCC" stroke-width="7.633" stroke-miterlimit="10" x1="75.558" y1="627.921" x2="89.938" y2="627.921"/>
		
			<line fill="none" stroke="#E2CFCC" stroke-width="7.633" stroke-miterlimit="10" stroke-dasharray="26.7925,26.7925,26.7925,26.7925" x1="116.729" y1="627.921" x2="210.503" y2="627.921"/>
		
			<line fill="none" stroke="#E2CFCC" stroke-width="7.633" stroke-miterlimit="10" stroke-dasharray="26.7925,26.7925,26.7925,26.7925,26.7925,26.7925" x1="223.899" y1="627.921" x2="1175.033" y2="627.921"/>
		
			<line fill="none" stroke="#E2CFCC" stroke-width="7.633" stroke-miterlimit="10" x1="1188.43" y1="627.921" x2="1202.809" y2="627.921"/>
	</g>
</g>
<g opacity="0.5">
	<g>
		<polyline fill="none" stroke="#E2CFCC" stroke-width="7.633" stroke-miterlimit="10" points="1700.48,1186.327 1687.973,1193.421 
			1675.576,1186.137 		"/>
		
			<line fill="none" stroke="#E2CFCC" stroke-width="7.633" stroke-miterlimit="10" stroke-dasharray="31.574,31.574,31.574,31.574" x1="1648.354" y1="1170.141" x2="1553.076" y2="1114.155"/>
		
			<line fill="none" stroke="#E2CFCC" stroke-width="7.633" stroke-miterlimit="10" stroke-dasharray="31.574,31.574,31.574,31.574,31.574,31.574" x1="1539.465" y1="1106.157" x2="1226.409" y2="922.205"/>
		<polyline fill="none" stroke="#E2CFCC" stroke-width="7.633" stroke-miterlimit="10" points="1212.798,914.207 1200.4,906.922 
			1200.51,892.543 		"/>
		
			<line fill="none" stroke="#E2CFCC" stroke-width="7.633" stroke-miterlimit="10" stroke-dasharray="31.5737,31.5737,31.5737,31.5737" x1="1200.752" y1="860.97" x2="1201.598" y2="750.466"/>
		
			<line fill="none" stroke="#E2CFCC" stroke-width="7.633" stroke-miterlimit="10" stroke-dasharray="31.5737,31.5737,31.5737,31.5737,31.5737,31.5737" x1="1201.719" y1="734.679" x2="1204.499" y2="371.592"/>
		<polyline fill="none" stroke="#E2CFCC" stroke-width="7.633" stroke-miterlimit="10" points="1204.62,355.806 1204.73,341.427 
			1217.237,334.333 		"/>
		
			<line fill="none" stroke="#E2CFCC" stroke-width="7.633" stroke-miterlimit="10" stroke-dasharray="31.5737,31.5737,31.5737,31.5737" x1="1244.701" y1="318.756" x2="1340.823" y2="264.234"/>
		
			<line fill="none" stroke="#E2CFCC" stroke-width="7.633" stroke-miterlimit="10" stroke-dasharray="31.5737,31.5737,31.5737,31.5737,31.5737,31.5737" x1="1354.555" y1="256.446" x2="1670.384" y2="77.305"/>
		<polyline fill="none" stroke="#E2CFCC" stroke-width="7.633" stroke-miterlimit="10" points="1684.116,69.517 1696.623,62.422 
			1709.021,69.707 		"/>
		
			<line fill="none" stroke="#E2CFCC" stroke-width="7.633" stroke-miterlimit="10" stroke-dasharray="31.5741,31.5741,31.5741,31.5741" x1="1736.243" y1="85.703" x2="1831.521" y2="141.689"/>
		
			<line fill="none" stroke="#E2CFCC" stroke-width="7.633" stroke-miterlimit="10" stroke-dasharray="31.5741,31.5741,31.5741,31.5741,31.5741,31.5741" x1="1845.132" y1="149.688" x2="2158.188" y2="333.642"/>
		<polyline fill="none" stroke="#E2CFCC" stroke-width="7.633" stroke-miterlimit="10" points="2171.799,341.64 2184.196,348.925 
			2184.086,363.304 		"/>
		
			<line fill="none" stroke="#E2CFCC" stroke-width="7.633" stroke-miterlimit="10" stroke-dasharray="31.574,31.574,31.574,31.574" x1="2183.844" y1="394.876" x2="2182.997" y2="505.382"/>
		
			<line fill="none" stroke="#E2CFCC" stroke-width="7.633" stroke-miterlimit="10" stroke-dasharray="31.574,31.574,31.574,31.574,31.574,31.574" x1="2182.876" y1="521.169" x2="2180.094" y2="884.26"/>
		<polyline fill="none" stroke="#E2CFCC" stroke-width="7.633" stroke-miterlimit="10" points="2179.973,900.046 2179.862,914.425 
			2167.355,921.519 		"/>
		
			<line fill="none" stroke="#E2CFCC" stroke-width="7.633" stroke-miterlimit="10" stroke-dasharray="31.5732,31.5732,31.5732,31.5732" x1="2139.892" y1="937.096" x2="2043.771" y2="991.615"/>
		
			<line fill="none" stroke="#E2CFCC" stroke-width="7.633" stroke-miterlimit="10" stroke-dasharray="31.5732,31.5732,31.5732,31.5732,31.5732,31.5732" x1="2030.039" y1="999.403" x2="1714.212" y2="1178.538"/>
	</g>
</g>
<g>
	<path fill="#C2BCC3" stroke="#C2BCC3" stroke-width="1.3045" stroke-miterlimit="10" d="M1863.806,836.286v18.808h-1.467v-18.808
		c0-2.416-0.461-4.672-1.38-6.773c-0.921-2.099-2.157-3.925-3.71-5.479c-1.553-1.553-3.38-2.789-5.479-3.709
		c-2.101-0.919-4.356-1.38-6.772-1.38c-2.588,0-4.976,0.504-7.161,1.51c-2.187,1.007-4.055,2.402-5.607,4.184v30.455h-1.553v-64.792
		h1.553v32.18c1.667-1.553,3.594-2.774,5.78-3.667c2.186-0.891,4.515-1.337,6.988-1.337c3.91,0,7.404,1.05,10.482,3.149
		c3.076,2.101,5.362,4.846,6.858,8.239C1863.316,831.167,1863.806,833.641,1863.806,836.286z"/>
	<path fill="#C2BCC3" stroke="#C2BCC3" stroke-width="1.3045" stroke-miterlimit="10" d="M1877.609,818.772v31.059
		c0,0.921,0.287,1.726,0.862,2.416c0.574,0.69,1.294,1.122,2.157,1.294v1.553c-1.324-0.172-2.416-0.762-3.279-1.769
		c-0.862-1.006-1.294-2.17-1.294-3.494v-55.129h1.554v22.69h8.627v1.38H1877.609z"/>
	<path fill="#C2BCC3" stroke="#C2BCC3" stroke-width="1.3045" stroke-miterlimit="10" d="M1958.103,836.458v18.635h-1.467v-18.635
		c0-2.416-0.461-4.672-1.381-6.772c-0.921-2.099-2.172-3.939-3.753-5.521c-1.582-1.582-3.438-2.833-5.564-3.753
		c-2.129-0.919-4.4-1.38-6.815-1.38c-2.589,0-5.034,0.576-7.334,1.726c-2.301,1.151-4.658,3.106-7.074,5.867l-0.604,1.035
		c0.114,0.231,0.215,0.461,0.302,0.69c0.086,0.23,0.186,0.461,0.302,0.69c1.035,2.243,1.553,4.717,1.553,7.419v18.635h-1.553
		v-18.635c0-2.472-0.489-4.832-1.467-7.075c-0.116-0.287-0.245-0.574-0.388-0.863c-0.145-0.287-0.303-0.574-0.475-0.863
		c-1.497-2.588-3.567-4.672-6.212-6.255c-2.646-1.581-5.608-2.373-8.887-2.373c-2.588,0-4.976,0.504-7.16,1.51
		c-2.187,1.007-4.085,2.402-5.694,4.184v30.369h-1.553v-37.702h1.553v5.177c1.667-1.553,3.608-2.789,5.823-3.71
		c2.214-0.919,4.558-1.38,7.031-1.38c3.394,0,6.484,0.792,9.274,2.373c2.789,1.583,5.018,3.696,6.687,6.341
		c0.229-0.345,0.46-0.69,0.69-1.036c0.229-0.345,0.488-0.69,0.776-1.035l1.553-1.553c1.668-1.553,3.608-2.789,5.823-3.71
		c2.214-0.919,4.559-1.38,7.032-1.38c3.968,0,7.506,1.065,10.611,3.192c3.105,2.128,5.405,4.917,6.902,8.369
		C1957.612,831.34,1958.103,833.813,1958.103,836.458z"/>
	<path fill="#C2BCC3" stroke="#C2BCC3" stroke-width="1.3045" stroke-miterlimit="10" d="M1974.839,853.541v1.466
		c-1.324-0.172-2.416-0.747-3.279-1.725c-0.862-0.978-1.294-2.127-1.294-3.451v-59.443h1.553v59.443
		c0,0.921,0.288,1.726,0.863,2.416C1973.256,852.937,1973.976,853.368,1974.839,853.541z"/>
</g>
<g>
	<path fill="#C2BCC3" stroke="#C2BCC3" stroke-width="1.3045" stroke-miterlimit="10" d="M1393.551,848.968l1.122,1.035
		c-1.669,1.553-3.595,2.776-5.78,3.667c-2.187,0.892-4.516,1.337-6.988,1.337c-2.588,0-5.019-0.488-7.291-1.466
		c-2.272-0.978-4.271-2.33-5.996-4.055c-1.725-1.726-3.078-3.723-4.055-5.996c-0.979-2.271-1.467-4.702-1.467-7.29
		s0.488-5.018,1.467-7.291c0.977-2.271,2.33-4.271,4.055-5.996c1.726-1.725,3.724-3.076,5.996-4.055
		c2.271-0.978,4.702-1.467,7.291-1.467c2.472,0,4.802,0.446,6.988,1.337c2.185,0.893,4.111,2.114,5.78,3.667l-1.122,1.036
		c-1.497-1.38-3.25-2.487-5.263-3.322c-2.014-0.833-4.141-1.251-6.384-1.251c-2.416,0-4.674,0.461-6.773,1.38
		c-2.1,0.921-3.925,2.172-5.478,3.753c-1.553,1.583-2.791,3.423-3.71,5.521c-0.921,2.101-1.38,4.329-1.38,6.687
		c0,2.416,0.459,4.673,1.38,6.772c0.919,2.1,2.157,3.925,3.71,5.479c1.553,1.553,3.378,2.791,5.478,3.71
		c2.099,0.92,4.357,1.38,6.773,1.38c2.243,0,4.37-0.402,6.384-1.208C1390.301,851.528,1392.055,850.407,1393.551,848.968z"/>
	<path fill="#C2BCC3" stroke="#C2BCC3" stroke-width="1.3045" stroke-miterlimit="10" d="M1437.809,845.431
		c0,1.38-0.388,2.661-1.165,3.839c-0.777,1.18-1.842,2.215-3.192,3.106c-1.352,0.893-2.963,1.596-4.832,2.114
		c-1.87,0.518-3.897,0.776-6.082,0.776c-3.336,0-6.227-0.574-8.671-1.725c-2.445-1.15-4.242-2.645-5.392-4.486
		c-0.116-0.229-0.23-0.445-0.345-0.647c-0.116-0.201-0.231-0.417-0.345-0.647l1.208-1.035c0.173,0.576,0.402,1.065,0.69,1.467
		c0.978,1.611,2.588,2.933,4.832,3.969c2.243,1.035,4.917,1.553,8.023,1.553c1.955,0,3.781-0.216,5.479-0.647
		c1.696-0.432,3.149-1.021,4.357-1.769c1.208-0.747,2.157-1.625,2.847-2.631c0.69-1.006,1.036-2.084,1.036-3.235
		c0-2.3-1.165-4.228-3.494-5.781c-2.33-1.553-5.479-2.357-9.447-2.416c-0.461,0-0.949-0.043-1.467-0.129s-0.949-0.129-1.294-0.129
		c-1.38-0.057-2.847-0.302-4.4-0.733c-1.553-0.431-2.977-1.049-4.271-1.855c-1.294-0.805-2.373-1.797-3.235-2.976
		c-0.863-1.178-1.294-2.574-1.294-4.185c0-1.38,0.388-2.66,1.165-3.839c0.776-1.178,1.84-2.213,3.192-3.106
		c1.351-0.891,2.947-1.596,4.788-2.113c1.84-0.518,3.853-0.777,6.04-0.777c3.393,0,6.312,0.561,8.757,1.683
		c2.444,1.122,4.241,2.603,5.392,4.443l-1.122,0.949c-0.979-1.667-2.603-3.02-4.875-4.055c-2.273-1.035-4.99-1.553-8.153-1.553
		c-2.014,0-3.854,0.216-5.521,0.647c-1.669,0.432-3.106,1.022-4.314,1.769c-1.208,0.749-2.157,1.639-2.847,2.675
		c-0.69,1.035-1.035,2.128-1.035,3.278c0,1.151,0.33,2.215,0.992,3.192c0.661,0.979,1.596,1.841,2.804,2.588
		c1.208,0.749,2.631,1.337,4.271,1.769c1.639,0.432,3.436,0.677,5.392,0.733c1.15,0.058,2.314,0.145,3.494,0.259
		c1.178,0.116,2.2,0.289,3.062,0.518c2.934,0.806,5.162,2.014,6.687,3.623C1437.046,841.521,1437.809,843.36,1437.809,845.431z"/>
	<path fill="#C2BCC3" stroke="#C2BCC3" stroke-width="1.3045" stroke-miterlimit="10" d="M1481.722,845.431
		c0,1.38-0.388,2.661-1.165,3.839c-0.777,1.18-1.842,2.215-3.192,3.106c-1.352,0.893-2.963,1.596-4.832,2.114
		c-1.87,0.518-3.897,0.776-6.082,0.776c-3.336,0-6.227-0.574-8.671-1.725c-2.445-1.15-4.242-2.645-5.392-4.486
		c-0.116-0.229-0.23-0.445-0.345-0.647c-0.116-0.201-0.231-0.417-0.345-0.647l1.208-1.035c0.173,0.576,0.402,1.065,0.69,1.467
		c0.978,1.611,2.588,2.933,4.832,3.969c2.243,1.035,4.917,1.553,8.023,1.553c1.955,0,3.781-0.216,5.479-0.647
		c1.696-0.432,3.149-1.021,4.357-1.769c1.208-0.747,2.157-1.625,2.847-2.631c0.69-1.006,1.036-2.084,1.036-3.235
		c0-2.3-1.165-4.228-3.494-5.781c-2.33-1.553-5.479-2.357-9.447-2.416c-0.461,0-0.949-0.043-1.467-0.129s-0.949-0.129-1.294-0.129
		c-1.38-0.057-2.847-0.302-4.4-0.733c-1.553-0.431-2.977-1.049-4.271-1.855c-1.294-0.805-2.373-1.797-3.235-2.976
		c-0.863-1.178-1.294-2.574-1.294-4.185c0-1.38,0.388-2.66,1.165-3.839c0.776-1.178,1.84-2.213,3.192-3.106
		c1.351-0.891,2.947-1.596,4.788-2.113c1.84-0.518,3.853-0.777,6.04-0.777c3.393,0,6.312,0.561,8.757,1.683
		c2.444,1.122,4.241,2.603,5.392,4.443l-1.122,0.949c-0.979-1.667-2.603-3.02-4.875-4.055c-2.273-1.035-4.99-1.553-8.153-1.553
		c-2.014,0-3.854,0.216-5.521,0.647c-1.669,0.432-3.106,1.022-4.314,1.769c-1.208,0.749-2.157,1.639-2.847,2.675
		c-0.69,1.035-1.035,2.128-1.035,3.278c0,1.151,0.33,2.215,0.992,3.192c0.661,0.979,1.596,1.841,2.804,2.588
		c1.208,0.749,2.631,1.337,4.271,1.769c1.639,0.432,3.436,0.677,5.392,0.733c1.15,0.058,2.314,0.145,3.494,0.259
		c1.178,0.116,2.2,0.289,3.062,0.518c2.934,0.806,5.162,2.014,6.687,3.623C1480.958,841.521,1481.722,843.36,1481.722,845.431z"/>
</g>
<g>
	<path fill="#C2BCC3" stroke="#C2BCC3" stroke-width="1.3045" stroke-miterlimit="10" d="M1317.322,482.906v36.321
		c0,2.53-0.474,4.918-1.423,7.161s-2.243,4.212-3.882,5.91c-1.639,1.696-3.551,3.062-5.737,4.098
		c-2.185,1.035-4.543,1.581-7.075,1.639v-1.467c2.301-0.116,4.458-0.647,6.471-1.596c2.014-0.949,3.767-2.2,5.263-3.753
		c1.495-1.553,2.675-3.351,3.538-5.392c0.863-2.042,1.294-4.242,1.294-6.6v-36.321H1317.322z M1318.444,475.142
		c0,0.633-0.215,1.165-0.647,1.596c-0.431,0.432-0.964,0.647-1.596,0.647c-0.633,0-1.165-0.215-1.596-0.647
		c-0.432-0.431-0.647-0.962-0.647-1.596c0-0.632,0.216-1.165,0.647-1.596c0.431-0.432,0.962-0.647,1.596-0.647
		c0.632,0,1.165,0.215,1.596,0.647C1318.229,473.977,1318.444,474.509,1318.444,475.142z"/>
	<path fill="#C2BCC3" stroke="#C2BCC3" stroke-width="1.3045" stroke-miterlimit="10" d="M1384.271,490.412
		c0,4.313-0.705,8.325-2.114,12.035c-1.41,3.71-3.379,6.945-5.91,9.706l7.506,7.851h-1.984l-6.557-6.815
		c-2.243,2.301-4.788,4.098-7.635,5.392s-5.91,1.941-9.188,1.941c-3.624,0-7.003-0.79-10.137-2.373
		c-3.135-1.582-5.881-3.724-8.239-6.428c-2.359-2.703-4.214-5.895-5.564-9.576c-1.352-3.68-2.028-7.592-2.028-11.733
		s0.676-8.052,2.028-11.733c1.351-3.68,3.206-6.873,5.564-9.577c2.358-2.703,5.104-4.845,8.239-6.427
		c3.134-1.582,6.514-2.373,10.137-2.373c3.566,0,6.916,0.791,10.051,2.373c3.134,1.583,5.88,3.725,8.239,6.427
		c2.357,2.704,4.212,5.896,5.564,9.577C1383.594,482.36,1384.271,486.271,1384.271,490.412z M1358.388,519.142
		c3.048,0,5.923-0.618,8.627-1.855c2.703-1.236,5.119-2.947,7.247-5.133l-8.023-8.369h1.898l7.075,7.333
		c2.416-2.588,4.284-5.651,5.608-9.188c1.322-3.537,1.984-7.376,1.984-11.518c0-3.969-0.647-7.692-1.941-11.173
		c-1.294-3.479-3.034-6.514-5.22-9.102c-2.187-2.588-4.774-4.644-7.765-6.168c-2.991-1.523-6.155-2.286-9.49-2.286
		c-3.394,0-6.586,0.763-9.576,2.286c-2.992,1.525-5.595,3.581-7.808,6.168c-2.215,2.588-3.969,5.623-5.263,9.102
		c-1.294,3.481-1.941,7.204-1.941,11.173c0,3.968,0.647,7.693,1.941,11.172c1.294,3.48,3.048,6.529,5.263,9.145
		c2.213,2.618,4.816,4.674,7.808,6.169C1351.802,518.395,1354.994,519.142,1358.388,519.142z"/>
	<path fill="#C2BCC3" stroke="#C2BCC3" stroke-width="1.3045" stroke-miterlimit="10" d="M1399.368,501.627v-18.549h1.467v18.549
		c0,1.324,0.143,2.56,0.431,3.71c0.288,1.151,0.661,2.301,1.122,3.451c0.115,0.289,0.244,0.561,0.389,0.819
		c0.143,0.259,0.302,0.533,0.474,0.82c1.495,2.588,3.566,4.673,6.212,6.255c2.645,1.583,5.608,2.373,8.886,2.373
		c2.588,0,4.974-0.503,7.161-1.51c2.186-1.006,4.083-2.401,5.694-4.185v-30.282h1.553v36.753h-1.553v-4.313
		c-1.669,1.611-3.61,2.862-5.824,3.753c-2.215,0.892-4.559,1.337-7.031,1.337c-3.394,0-6.485-0.79-9.274-2.373
		c-2.791-1.581-5.019-3.695-6.687-6.341c-0.172-0.229-0.332-0.46-0.474-0.69c-0.145-0.229-0.274-0.488-0.388-0.776l-0.69-1.38
		C1399.856,506.748,1399.368,504.274,1399.368,501.627z"/>
	<path fill="#C2BCC3" stroke="#C2BCC3" stroke-width="1.3045" stroke-miterlimit="10" d="M1463.988,519.142
		c2.243,0,4.37-0.402,6.384-1.208c2.013-0.805,3.766-1.926,5.263-3.365l1.122,1.035c-1.669,1.553-3.595,2.776-5.78,3.667
		c-2.187,0.892-4.516,1.337-6.988,1.337c-2.474,0-4.803-0.445-6.988-1.337c-2.187-0.891-4.113-2.114-5.781-3.667l-1.035-1.035
		c-1.553-1.667-2.775-3.594-3.667-5.78c-0.893-2.186-1.337-4.515-1.337-6.988c0-2.588,0.488-5.018,1.467-7.291
		c0.977-2.271,2.329-4.271,4.055-5.996c1.726-1.725,3.724-3.076,5.996-4.055c2.271-0.978,4.702-1.467,7.291-1.467
		c2.472,0,4.802,0.446,6.988,1.337c2.185,0.893,4.111,2.114,5.78,3.667l1.035,1.036l-25.537,25.537
		c1.553,1.438,3.335,2.56,5.349,3.365C1459.616,518.74,1461.745,519.142,1463.988,519.142z M1446.646,501.8
		c0,2.243,0.402,4.372,1.208,6.384c0.805,2.014,1.927,3.796,3.365,5.349l24.416-24.502c-1.497-1.38-3.25-2.487-5.263-3.322
		c-2.014-0.833-4.141-1.251-6.384-1.251c-2.416,0-4.674,0.461-6.773,1.38c-2.1,0.921-3.925,2.172-5.478,3.753
		c-1.553,1.583-2.791,3.423-3.71,5.521C1447.106,497.214,1446.646,499.442,1446.646,501.8z"/>
	<path fill="#C2BCC3" stroke="#C2BCC3" stroke-width="1.3045" stroke-miterlimit="10" d="M1503.155,483.079v1.467
		c-2.416,0.116-4.674,0.677-6.772,1.682c-2.101,1.007-3.897,2.344-5.392,4.012v30.455h-1.467v-37.702h1.467v5.09
		c1.609-1.495,3.451-2.674,5.521-3.537C1498.583,483.683,1500.796,483.194,1503.155,483.079z"/>
	<path fill="#C2BCC3" stroke="#C2BCC3" stroke-width="1.3045" stroke-miterlimit="10" d="M1550.433,483.079l-22.604,46.071
		c-0.116,0.229-0.231,0.445-0.345,0.647c-0.116,0.201-0.23,0.388-0.345,0.561c-0.863,1.667-2.215,2.645-4.055,2.934
		c-0.173,0.057-0.432,0.086-0.777,0.086c-0.288,0-0.518-0.029-0.69-0.086v-1.553c0.115,0.057,0.345,0.086,0.69,0.086
		c0.345,0,0.604-0.03,0.777-0.086c0.747-0.116,1.409-0.446,1.984-0.992c0.575-0.547,1.178-1.481,1.812-2.804l3.71-7.938
		l-18.118-36.925h1.726l17.255,35.2l17.255-35.2H1550.433z"/>
</g>
<g>
	<path fill="#C2BCC3" stroke="#C2BCC3" stroke-width="1.3045" stroke-miterlimit="10" d="M1533.008,284.694v36.321
		c0,2.53-0.474,4.918-1.423,7.161s-2.243,4.212-3.882,5.91c-1.639,1.696-3.551,3.062-5.737,4.098
		c-2.185,1.035-4.543,1.581-7.075,1.639v-1.467c2.301-0.116,4.458-0.647,6.471-1.596c2.014-0.949,3.767-2.2,5.263-3.753
		c1.495-1.553,2.675-3.351,3.538-5.392c0.863-2.042,1.294-4.242,1.294-6.6v-36.321H1533.008z M1534.129,276.93
		c0,0.633-0.215,1.165-0.647,1.596c-0.431,0.432-0.964,0.647-1.596,0.647c-0.633,0-1.165-0.215-1.596-0.647
		c-0.432-0.431-0.647-0.962-0.647-1.596c0-0.632,0.216-1.165,0.647-1.596c0.431-0.432,0.962-0.647,1.596-0.647
		c0.632,0,1.165,0.215,1.596,0.647C1533.914,275.765,1534.129,276.297,1534.129,276.93z"/>
	<path fill="#C2BCC3" stroke="#C2BCC3" stroke-width="1.3045" stroke-miterlimit="10" d="M1580.976,317.996
		c0.345,1.611,1.323,2.588,2.934,2.934v1.553c-1.035-0.172-2.042-0.69-3.02-1.553c-0.461-0.46-0.82-0.992-1.079-1.596
		s-0.388-1.221-0.388-1.855c-1.669,1.553-3.595,2.761-5.78,3.624c-2.187,0.863-4.516,1.294-6.988,1.294
		c-2.588,0-5.019-0.488-7.29-1.466c-2.273-0.978-4.271-2.315-5.996-4.012c-1.726-1.696-3.078-3.68-4.055-5.953
		c-0.979-2.271-1.467-4.702-1.467-7.29c0-2.588,0.488-5.018,1.467-7.291c0.978-2.271,2.33-4.271,4.055-5.996
		c1.725-1.726,3.723-3.076,5.996-4.055c2.271-0.978,4.702-1.467,7.29-1.467c2.472,0,4.802,0.446,6.988,1.337
		c2.185,0.892,4.111,2.143,5.78,3.753v-4.314h1.553V317.996z M1579.423,292.027c-1.611-1.726-3.509-3.119-5.694-4.184
		c-2.187-1.063-4.544-1.596-7.075-1.596c-2.416,0-4.674,0.461-6.772,1.38c-2.101,0.921-3.926,2.172-5.479,3.753
		c-1.553,1.583-2.791,3.438-3.71,5.565c-0.92,2.128-1.38,4.372-1.38,6.729c0,2.416,0.46,4.673,1.38,6.772
		c0.919,2.1,2.157,3.925,3.71,5.479c1.553,1.553,3.378,2.775,5.479,3.667c2.099,0.893,4.357,1.337,6.772,1.337
		c2.53,0,4.888-0.503,7.075-1.51c2.185-1.005,4.083-2.372,5.694-4.098V292.027z"/>
	<path fill="#C2BCC3" stroke="#C2BCC3" stroke-width="1.3045" stroke-miterlimit="10" d="M1629.116,284.78l-18.204,37.702h-1.294
		l-18.204-37.702h1.726l17.083,35.545l17.168-35.545H1629.116z"/>
	<path fill="#C2BCC3" stroke="#C2BCC3" stroke-width="1.3045" stroke-miterlimit="10" d="M1672.252,317.996
		c0.345,1.611,1.323,2.588,2.934,2.934v1.553c-1.035-0.172-2.042-0.69-3.02-1.553c-0.461-0.46-0.82-0.992-1.079-1.596
		s-0.388-1.221-0.388-1.855c-1.669,1.553-3.595,2.761-5.78,3.624c-2.187,0.863-4.516,1.294-6.988,1.294
		c-2.588,0-5.019-0.488-7.29-1.466c-2.273-0.978-4.271-2.315-5.996-4.012c-1.726-1.696-3.078-3.68-4.055-5.953
		c-0.979-2.271-1.467-4.702-1.467-7.29c0-2.588,0.488-5.018,1.467-7.291c0.978-2.271,2.33-4.271,4.055-5.996
		c1.725-1.726,3.723-3.076,5.996-4.055c2.271-0.978,4.702-1.467,7.29-1.467c2.472,0,4.802,0.446,6.988,1.337
		c2.185,0.892,4.111,2.143,5.78,3.753v-4.314h1.553V317.996z M1670.7,292.027c-1.611-1.726-3.509-3.119-5.694-4.184
		c-2.187-1.063-4.544-1.596-7.075-1.596c-2.416,0-4.674,0.461-6.772,1.38c-2.101,0.921-3.926,2.172-5.479,3.753
		c-1.553,1.583-2.791,3.438-3.71,5.565c-0.92,2.128-1.38,4.372-1.38,6.729c0,2.416,0.46,4.673,1.38,6.772
		c0.919,2.1,2.157,3.925,3.71,5.479c1.553,1.553,3.378,2.775,5.479,3.667c2.099,0.893,4.357,1.337,6.772,1.337
		c2.53,0,4.888-0.503,7.075-1.51c2.185-1.005,4.083-2.372,5.694-4.098V292.027z"/>
	<path fill="#C2BCC3" stroke="#C2BCC3" stroke-width="1.3045" stroke-miterlimit="10" d="M1716.252,312.82
		c0,1.38-0.388,2.661-1.165,3.839c-0.777,1.18-1.842,2.215-3.192,3.106c-1.352,0.893-2.963,1.596-4.832,2.114
		c-1.87,0.518-3.897,0.776-6.082,0.776c-3.336,0-6.227-0.574-8.671-1.725c-2.445-1.15-4.242-2.645-5.392-4.486
		c-0.116-0.229-0.23-0.445-0.345-0.647c-0.116-0.201-0.231-0.417-0.345-0.647l1.208-1.035c0.173,0.576,0.402,1.065,0.69,1.467
		c0.978,1.611,2.588,2.933,4.832,3.969c2.243,1.035,4.917,1.553,8.023,1.553c1.955,0,3.781-0.216,5.479-0.647
		c1.696-0.432,3.149-1.021,4.357-1.769c1.208-0.747,2.157-1.625,2.847-2.631c0.69-1.006,1.036-2.084,1.036-3.235
		c0-2.3-1.165-4.228-3.494-5.781c-2.33-1.553-5.479-2.357-9.447-2.416c-0.461,0-0.949-0.043-1.467-0.129s-0.949-0.129-1.294-0.129
		c-1.38-0.057-2.847-0.302-4.4-0.733c-1.553-0.431-2.977-1.049-4.271-1.855c-1.294-0.805-2.373-1.797-3.235-2.976
		c-0.863-1.178-1.294-2.574-1.294-4.185c0-1.38,0.388-2.66,1.165-3.839c0.776-1.178,1.84-2.213,3.192-3.106
		c1.351-0.891,2.947-1.596,4.788-2.113c1.84-0.518,3.853-0.777,6.04-0.777c3.393,0,6.312,0.561,8.757,1.683
		c2.444,1.122,4.241,2.603,5.392,4.443l-1.122,0.949c-0.979-1.667-2.603-3.02-4.875-4.055c-2.273-1.035-4.99-1.553-8.153-1.553
		c-2.014,0-3.854,0.216-5.521,0.647c-1.669,0.432-3.106,1.022-4.314,1.769c-1.208,0.749-2.157,1.639-2.847,2.675
		c-0.69,1.035-1.035,2.128-1.035,3.278c0,1.151,0.33,2.215,0.992,3.192c0.661,0.979,1.596,1.841,2.804,2.588
		c1.208,0.749,2.631,1.337,4.271,1.769c1.639,0.432,3.436,0.677,5.392,0.733c1.15,0.058,2.314,0.145,3.494,0.259
		c1.178,0.116,2.2,0.289,3.062,0.518c2.934,0.806,5.162,2.014,6.687,3.623C1715.489,308.909,1716.252,310.749,1716.252,312.82z"/>
	<path fill="#C2BCC3" stroke="#C2BCC3" stroke-width="1.3045" stroke-miterlimit="10" d="M1759.646,316.357l1.122,1.035
		c-1.669,1.553-3.596,2.776-5.78,3.667c-2.187,0.892-4.517,1.337-6.988,1.337c-2.588,0-5.019-0.488-7.291-1.466
		c-2.272-0.978-4.271-2.33-5.996-4.055c-1.725-1.726-3.078-3.723-4.055-5.996c-0.979-2.271-1.467-4.702-1.467-7.29
		s0.488-5.018,1.467-7.291c0.977-2.271,2.33-4.271,4.055-5.996c1.726-1.725,3.724-3.076,5.996-4.055
		c2.271-0.978,4.702-1.467,7.291-1.467c2.472,0,4.802,0.446,6.988,1.337c2.185,0.893,4.111,2.114,5.78,3.667l-1.122,1.036
		c-1.496-1.38-3.25-2.487-5.263-3.322c-2.014-0.833-4.141-1.251-6.384-1.251c-2.416,0-4.674,0.461-6.773,1.38
		c-2.1,0.921-3.925,2.172-5.478,3.753c-1.553,1.583-2.791,3.423-3.71,5.521c-0.921,2.101-1.38,4.329-1.38,6.687
		c0,2.416,0.459,4.673,1.38,6.772c0.919,2.1,2.157,3.925,3.71,5.479c1.553,1.553,3.378,2.791,5.478,3.71
		c2.099,0.92,4.357,1.38,6.773,1.38c2.243,0,4.37-0.402,6.384-1.208C1756.396,318.917,1758.15,317.795,1759.646,316.357z"/>
	<path fill="#C2BCC3" stroke="#C2BCC3" stroke-width="1.3045" stroke-miterlimit="10" d="M1786.908,284.867v1.467
		c-2.415,0.116-4.673,0.677-6.772,1.682c-2.1,1.007-3.896,2.344-5.392,4.012v30.455h-1.467V284.78h1.467v5.09
		c1.609-1.495,3.451-2.674,5.521-3.537S1784.55,284.982,1786.908,284.867z"/>
	<path fill="#C2BCC3" stroke="#C2BCC3" stroke-width="1.3045" stroke-miterlimit="10" d="M1799.936,276.93
		c0,0.633-0.216,1.165-0.647,1.596c-0.432,0.432-0.964,0.647-1.596,0.647c-0.634,0-1.165-0.215-1.597-0.647
		c-0.431-0.431-0.646-0.962-0.646-1.596c0-0.632,0.216-1.165,0.646-1.596c0.432-0.432,0.963-0.647,1.597-0.647
		c0.632,0,1.164,0.215,1.596,0.647C1799.72,275.765,1799.936,276.297,1799.936,276.93z M1798.642,322.482h-1.554V284.78h1.554
		V322.482z"/>
	<path fill="#C2BCC3" stroke="#C2BCC3" stroke-width="1.3045" stroke-miterlimit="10" d="M1828.406,284.694
		c2.588,0,5.032,0.489,7.333,1.466c2.3,0.979,4.314,2.33,6.039,4.055c1.726,1.726,3.092,3.739,4.099,6.039
		c1.006,2.301,1.51,4.745,1.51,7.333s-0.504,5.034-1.51,7.333c-1.007,2.301-2.373,4.286-4.099,5.953
		c-1.725,1.669-3.739,2.991-6.039,3.969c-2.301,0.979-4.745,1.467-7.333,1.467c-2.474,0-4.818-0.445-7.031-1.337
		c-2.215-0.891-4.156-2.142-5.823-3.753v22.604h-1.554V284.78h1.554v5.004c1.667-1.553,3.608-2.789,5.823-3.709
		C1823.588,285.155,1825.933,284.694,1828.406,284.694z M1828.406,320.757c2.416,0,4.688-0.445,6.815-1.337
		c2.127-0.891,3.969-2.099,5.521-3.624c1.554-1.523,2.789-3.335,3.71-5.435c0.92-2.099,1.381-4.357,1.381-6.772
		c0-2.416-0.461-4.672-1.381-6.772c-0.921-2.099-2.156-3.926-3.71-5.479c-1.553-1.553-3.395-2.789-5.521-3.71
		c-2.128-0.919-4.399-1.38-6.815-1.38c-2.588,0-4.976,0.518-7.161,1.553c-2.187,1.036-4.084,2.416-5.693,4.142v23.122
		c1.609,1.783,3.507,3.179,5.693,4.184C1823.431,320.254,1825.818,320.757,1828.406,320.757z"/>
	<path fill="#C2BCC3" stroke="#C2BCC3" stroke-width="1.3045" stroke-miterlimit="10" d="M1860.155,286.161v31.059
		c0,0.921,0.287,1.726,0.862,2.416c0.574,0.69,1.294,1.122,2.157,1.294v1.553c-1.324-0.172-2.416-0.762-3.279-1.769
		c-0.862-1.006-1.294-2.17-1.294-3.494V262.09h1.554v22.69h8.627v1.38H1860.155z"/>
</g>
<g>
	<path fill="#C2BCC3" stroke="#C2BCC3" stroke-width="1.3045" stroke-miterlimit="10" d="M1809.729,465.363
		c0,0.633-0.216,1.165-0.647,1.596c-0.432,0.432-0.964,0.647-1.596,0.647c-0.634,0-1.165-0.215-1.597-0.647
		c-0.431-0.431-0.646-0.962-0.646-1.596c0-0.632,0.216-1.165,0.646-1.596c0.432-0.432,0.963-0.647,1.597-0.647
		c0.632,0,1.164,0.215,1.596,0.647C1809.514,464.198,1809.729,464.731,1809.729,465.363z M1808.436,510.916h-1.554v-37.702h1.554
		V510.916z"/>
	<path fill="#C2BCC3" stroke="#C2BCC3" stroke-width="1.3045" stroke-miterlimit="10" d="M1857.095,492.281v18.635h-1.554v-18.635
		c0-2.472-0.489-4.832-1.467-7.075c-0.23-0.574-0.547-1.15-0.948-1.726c-1.497-2.588-3.567-4.672-6.212-6.255
		c-2.646-1.581-5.58-2.373-8.8-2.373c-2.589,0-4.976,0.504-7.161,1.51c-2.187,1.007-4.085,2.402-5.694,4.184v30.369h-1.553v-37.702
		h1.553v5.177c1.668-1.553,3.594-2.789,5.78-3.71c2.186-0.919,4.543-1.38,7.075-1.38c1.667,0,3.321,0.245,4.96,0.733
		c1.64,0.489,3.192,1.165,4.659,2.027s2.817,1.928,4.055,3.192c1.236,1.266,2.286,2.674,3.149,4.227l0.604,1.381
		c0.46,1.151,0.833,2.344,1.122,3.58C1856.95,489.679,1857.095,490.958,1857.095,492.281z"/>
	<path fill="#C2BCC3" stroke="#C2BCC3" stroke-width="1.3045" stroke-miterlimit="10" d="M1888.066,473.214
		c2.472,0,4.801,0.446,6.987,1.337c2.186,0.893,4.112,2.144,5.781,3.753V446.9h1.553v64.016h-1.553v-5.09
		c-1.669,1.553-3.596,2.776-5.781,3.667c-2.187,0.892-4.516,1.337-6.987,1.337c-2.589,0-5.02-0.488-7.291-1.466
		c-2.272-0.978-4.271-2.33-5.996-4.055s-3.077-3.723-4.055-5.996c-0.979-2.271-1.467-4.702-1.467-7.29s0.488-5.018,1.467-7.291
		c0.978-2.271,2.329-4.271,4.055-5.996c1.726-1.725,3.724-3.076,5.996-4.055C1883.047,473.703,1885.478,473.214,1888.066,473.214z
		 M1888.066,509.363c2.588,0,4.974-0.518,7.16-1.553c2.186-1.035,4.055-2.416,5.608-4.141v-23.294
		c-1.554-1.726-3.423-3.091-5.608-4.098c-2.187-1.006-4.572-1.51-7.16-1.51c-2.416,0-4.674,0.461-6.773,1.38
		c-2.1,0.92-3.925,2.157-5.478,3.709c-1.554,1.553-2.791,3.38-3.71,5.479c-0.921,2.101-1.381,4.329-1.381,6.687
		c0,2.416,0.46,4.673,1.381,6.772c0.919,2.1,2.156,3.925,3.71,5.479c1.553,1.553,3.378,2.791,5.478,3.71
		C1883.393,508.903,1885.65,509.363,1888.066,509.363z"/>
	<path fill="#C2BCC3" stroke="#C2BCC3" stroke-width="1.3045" stroke-miterlimit="10" d="M1933.705,509.363
		c2.243,0,4.37-0.402,6.384-1.208c2.013-0.805,3.767-1.926,5.263-3.365l1.122,1.035c-1.669,1.553-3.596,2.776-5.78,3.667
		c-2.187,0.892-4.517,1.337-6.988,1.337c-2.474,0-4.804-0.445-6.988-1.337c-2.187-0.891-4.113-2.114-5.78-3.667l-1.035-1.035
		c-1.554-1.667-2.776-3.594-3.667-5.78c-0.893-2.186-1.337-4.515-1.337-6.988c0-2.588,0.487-5.018,1.466-7.291
		c0.978-2.271,2.33-4.271,4.056-5.996c1.726-1.725,3.723-3.076,5.996-4.055c2.271-0.978,4.701-1.467,7.29-1.467
		c2.472,0,4.802,0.446,6.988,1.337c2.185,0.893,4.111,2.114,5.78,3.667l1.035,1.036l-25.537,25.537
		c1.553,1.438,3.335,2.56,5.349,3.365C1929.333,508.961,1931.462,509.363,1933.705,509.363z M1916.363,492.022
		c0,2.243,0.402,4.372,1.208,6.384c0.805,2.014,1.927,3.796,3.365,5.349l24.415-24.502c-1.496-1.38-3.25-2.487-5.263-3.322
		c-2.014-0.833-4.141-1.251-6.384-1.251c-2.416,0-4.674,0.461-6.772,1.38c-2.101,0.921-3.926,2.172-5.479,3.753
		c-1.553,1.583-2.791,3.423-3.71,5.521C1916.823,487.436,1916.363,489.664,1916.363,492.022z"/>
	<path fill="#C2BCC3" stroke="#C2BCC3" stroke-width="1.3045" stroke-miterlimit="10" d="M1989.868,501.253
		c0,1.38-0.388,2.661-1.164,3.839c-0.776,1.18-1.842,2.215-3.192,3.106c-1.352,0.893-2.963,1.596-4.831,2.114
		c-1.87,0.518-3.897,0.776-6.083,0.776c-3.336,0-6.227-0.574-8.67-1.725c-2.445-1.15-4.242-2.645-5.393-4.486
		c-0.116-0.229-0.23-0.445-0.345-0.647c-0.116-0.201-0.23-0.417-0.346-0.647l1.208-1.035c0.173,0.576,0.402,1.065,0.69,1.467
		c0.978,1.611,2.588,2.933,4.831,3.969c2.243,1.035,4.918,1.553,8.023,1.553c1.955,0,3.781-0.216,5.479-0.647
		c1.696-0.432,3.149-1.021,4.357-1.769c1.208-0.747,2.156-1.625,2.847-2.631c0.69-1.006,1.035-2.084,1.035-3.235
		c0-2.3-1.164-4.228-3.494-5.781c-2.329-1.553-5.479-2.357-9.446-2.416c-0.462,0-0.949-0.043-1.467-0.129s-0.949-0.129-1.295-0.129
		c-1.38-0.057-2.847-0.302-4.399-0.733c-1.553-0.431-2.977-1.049-4.271-1.855c-1.294-0.805-2.373-1.797-3.235-2.976
		c-0.863-1.178-1.294-2.574-1.294-4.185c0-1.38,0.388-2.66,1.164-3.839c0.776-1.178,1.841-2.213,3.192-3.106
		c1.351-0.891,2.947-1.596,4.788-2.113c1.84-0.518,3.853-0.777,6.039-0.777c3.394,0,6.312,0.561,8.757,1.683
		c2.444,1.122,4.241,2.603,5.393,4.443l-1.121,0.949c-0.979-1.667-2.604-3.02-4.875-4.055c-2.272-1.035-4.99-1.553-8.153-1.553
		c-2.014,0-3.854,0.216-5.521,0.647c-1.669,0.432-3.105,1.022-4.313,1.769c-1.208,0.749-2.157,1.639-2.847,2.675
		c-0.69,1.035-1.035,2.128-1.035,3.278c0,1.151,0.33,2.215,0.991,3.192c0.661,0.979,1.597,1.841,2.805,2.588
		c1.208,0.749,2.631,1.337,4.271,1.769c1.639,0.432,3.436,0.677,5.392,0.733c1.15,0.058,2.314,0.145,3.494,0.259
		c1.179,0.116,2.2,0.289,3.063,0.518c2.933,0.806,5.161,2.014,6.686,3.623C1989.105,497.343,1989.868,499.183,1989.868,501.253z"/>
	<path fill="#C2BCC3" stroke="#C2BCC3" stroke-width="1.3045" stroke-miterlimit="10" d="M2006.088,465.363
		c0,0.633-0.216,1.165-0.647,1.596c-0.432,0.432-0.964,0.647-1.596,0.647c-0.634,0-1.165-0.215-1.597-0.647
		c-0.431-0.431-0.646-0.962-0.646-1.596c0-0.632,0.216-1.165,0.646-1.596c0.432-0.432,0.963-0.647,1.597-0.647
		c0.632,0,1.164,0.215,1.596,0.647C2005.872,464.198,2006.088,464.731,2006.088,465.363z M2004.794,510.916h-1.554v-37.702h1.554
		V510.916z"/>
	<path fill="#C2BCC3" stroke="#C2BCC3" stroke-width="1.3045" stroke-miterlimit="10" d="M2051.555,478.304
		c0.173-0.978,0.444-1.782,0.819-2.416c0.374-0.632,0.79-1.122,1.251-1.467c0.46-0.345,0.906-0.589,1.338-0.733
		c0.431-0.143,0.789-0.244,1.078-0.302v1.466c-0.863,0.173-1.583,0.604-2.157,1.294c-0.575,0.69-0.862,1.496-0.862,2.416v43.828
		l-1.467,1.553c-1.669,1.553-3.596,2.774-5.78,3.667c-2.187,0.891-4.516,1.337-6.988,1.337c-2.474,0-4.803-0.446-6.988-1.337
		c-2.187-0.893-4.113-2.114-5.78-3.667l1.035-1.035c1.553,1.437,3.335,2.559,5.349,3.365c2.013,0.805,4.142,1.208,6.385,1.208
		c2.53,0,4.888-0.504,7.074-1.51c2.186-1.007,4.083-2.402,5.694-4.184v-15.875c-1.726,1.496-3.667,2.704-5.823,3.624
		c-2.157,0.921-4.473,1.38-6.945,1.38c-0.289,0-0.576,0-0.863,0c-0.288,0-0.575-0.028-0.862-0.086
		c-2.934-0.287-5.595-1.15-7.98-2.588c-2.388-1.437-4.356-3.307-5.91-5.608l-0.862-1.467c-1.553-2.645-2.329-5.665-2.329-9.059
		c0-2.588,0.487-5.018,1.466-7.291c0.978-2.271,2.33-4.271,4.056-5.996s3.723-3.076,5.996-4.055c2.271-0.978,4.702-1.467,7.29-1.467
		c0.574,0,1.365,0.058,2.372,0.172c1.006,0.116,2.084,0.345,3.235,0.69c1.15,0.345,2.343,0.849,3.581,1.51
		C2049.21,476.335,2050.403,477.212,2051.555,478.304z M2051.555,480.461c-1.611-1.726-3.509-3.106-5.694-4.141
		c-2.187-1.035-4.544-1.553-7.074-1.553c-2.416,0-4.674,0.461-6.772,1.38c-2.101,0.92-3.926,2.157-5.479,3.709
		c-1.553,1.553-2.791,3.38-3.71,5.479c-0.921,2.101-1.381,4.357-1.381,6.773c0,2.704,0.575,5.206,1.726,7.506
		c0.115,0.288,0.244,0.547,0.389,0.776c0.143,0.23,0.302,0.489,0.475,0.776c1.495,2.416,3.494,4.372,5.996,5.867
		c2.502,1.496,5.306,2.301,8.411,2.416h0.346c0.287,0,0.604-0.013,0.949-0.043c0.345-0.028,0.66-0.071,0.948-0.129
		c2.186-0.229,4.198-0.833,6.04-1.812c1.84-0.977,3.45-2.213,4.831-3.709V480.461z"/>
	<path fill="#C2BCC3" stroke="#C2BCC3" stroke-width="1.3045" stroke-miterlimit="10" d="M2101.421,492.281v18.635h-1.554v-18.635
		c0-2.472-0.489-4.832-1.467-7.075c-0.23-0.574-0.547-1.15-0.948-1.726c-1.497-2.588-3.567-4.672-6.212-6.255
		c-2.646-1.581-5.58-2.373-8.8-2.373c-2.589,0-4.976,0.504-7.161,1.51c-2.187,1.007-4.085,2.402-5.694,4.184v30.369h-1.553v-37.702
		h1.553v5.177c1.668-1.553,3.594-2.789,5.78-3.71c2.186-0.919,4.543-1.38,7.075-1.38c1.667,0,3.321,0.245,4.96,0.733
		c1.64,0.489,3.192,1.165,4.659,2.027s2.817,1.928,4.055,3.192c1.236,1.266,2.286,2.674,3.149,4.227l0.604,1.381
		c0.46,1.151,0.833,2.344,1.122,3.58C2101.276,489.679,2101.421,490.958,2101.421,492.281z"/>
</g>
<g>
	<path fill="#C2BCC3" stroke="#C2BCC3" stroke-width="1.3045" stroke-miterlimit="10" d="M1534.129,958.127
		c0,0.634-0.215,1.164-0.647,1.596c-0.431,0.432-0.964,0.647-1.596,0.647c-0.633,0-1.165-0.216-1.596-0.647
		c-0.432-0.432-0.647-0.962-0.647-1.596c0-0.632,0.216-1.165,0.647-1.596c0.431-0.432,0.962-0.647,1.596-0.647
		c0.632,0,1.165,0.215,1.596,0.647C1533.914,956.962,1534.129,957.495,1534.129,958.127z M1532.835,1003.68h-1.553v-37.702h1.553
		V1003.68z"/>
	<path fill="#C2BCC3" stroke="#C2BCC3" stroke-width="1.3045" stroke-miterlimit="10" d="M1552.506,1002.127v1.467
		c-1.324-0.173-2.416-0.747-3.278-1.726c-0.863-0.978-1.294-2.128-1.294-3.451v-59.443h1.553v59.443
		c0,0.921,0.287,1.726,0.863,2.416C1550.923,1001.522,1551.643,1001.954,1552.506,1002.127z"/>
	<path fill="#C2BCC3" stroke="#C2BCC3" stroke-width="1.3045" stroke-miterlimit="10" d="M1568.812,1002.127v1.467
		c-1.324-0.173-2.416-0.747-3.278-1.726c-0.863-0.978-1.294-2.128-1.294-3.451v-59.443h1.553v59.443
		c0,0.921,0.287,1.726,0.863,2.416C1567.229,1001.522,1567.949,1001.954,1568.812,1002.127z"/>
	<path fill="#C2BCC3" stroke="#C2BCC3" stroke-width="1.3045" stroke-miterlimit="10" d="M1580.889,984.613v-18.549h1.467v18.549
		c0,1.323,0.143,2.56,0.431,3.71c0.288,1.15,0.661,2.301,1.122,3.45c0.115,0.289,0.244,0.562,0.389,0.82
		c0.143,0.259,0.302,0.532,0.474,0.819c1.495,2.588,3.566,4.674,6.212,6.255c2.645,1.583,5.608,2.372,8.886,2.372
		c2.588,0,4.974-0.502,7.161-1.51c2.186-1.005,4.083-2.4,5.694-4.184v-30.282h1.553v36.753h-1.553v-4.314
		c-1.669,1.611-3.61,2.862-5.824,3.753c-2.215,0.893-4.559,1.338-7.031,1.338c-3.394,0-6.485-0.79-9.274-2.373
		c-2.791-1.581-5.019-3.694-6.687-6.341c-0.172-0.229-0.332-0.46-0.474-0.69c-0.145-0.229-0.274-0.488-0.388-0.776l-0.69-1.381
		C1581.377,989.732,1580.889,987.259,1580.889,984.613z"/>
	<path fill="#C2BCC3" stroke="#C2BCC3" stroke-width="1.3045" stroke-miterlimit="10" d="M1657.932,994.017
		c0,1.381-0.388,2.661-1.165,3.84c-0.777,1.18-1.842,2.215-3.192,3.105c-1.352,0.893-2.963,1.597-4.832,2.114
		c-1.87,0.518-3.897,0.776-6.082,0.776c-3.336,0-6.227-0.574-8.671-1.726c-2.445-1.15-4.242-2.646-5.392-4.486
		c-0.116-0.229-0.23-0.445-0.345-0.647c-0.116-0.2-0.231-0.416-0.345-0.646l1.208-1.035c0.173,0.575,0.402,1.064,0.69,1.466
		c0.978,1.611,2.588,2.934,4.832,3.969s4.917,1.553,8.023,1.553c1.955,0,3.781-0.215,5.479-0.646
		c1.696-0.432,3.149-1.021,4.357-1.769c1.208-0.747,2.157-1.625,2.847-2.632c0.69-1.005,1.036-2.084,1.036-3.235
		c0-2.3-1.165-4.228-3.494-5.78c-2.33-1.553-5.479-2.357-9.447-2.415c-0.461,0-0.949-0.044-1.467-0.13s-0.949-0.129-1.294-0.129
		c-1.38-0.057-2.847-0.303-4.4-0.733c-1.553-0.432-2.977-1.049-4.271-1.855c-1.294-0.805-2.373-1.797-3.235-2.977
		c-0.863-1.178-1.294-2.573-1.294-4.184c0-1.381,0.388-2.66,1.165-3.84c0.776-1.178,1.84-2.213,3.192-3.105
		c1.351-0.892,2.947-1.597,4.788-2.114c1.84-0.518,3.853-0.776,6.04-0.776c3.393,0,6.312,0.561,8.757,1.683
		c2.444,1.121,4.241,2.603,5.392,4.443l-1.122,0.948c-0.979-1.667-2.603-3.02-4.875-4.055c-2.273-1.035-4.99-1.553-8.153-1.553
		c-2.014,0-3.854,0.216-5.521,0.647c-1.669,0.431-3.106,1.021-4.314,1.769c-1.208,0.748-2.157,1.639-2.847,2.674
		c-0.69,1.036-1.035,2.129-1.035,3.279s0.33,2.214,0.992,3.191c0.661,0.979,1.596,1.842,2.804,2.589
		c1.208,0.748,2.631,1.337,4.271,1.769c1.639,0.431,3.436,0.677,5.392,0.733c1.15,0.058,2.314,0.144,3.494,0.259
		c1.178,0.115,2.2,0.288,3.062,0.518c2.934,0.806,5.162,2.014,6.687,3.623C1657.169,990.106,1657.932,991.946,1657.932,994.017z"/>
	<path fill="#C2BCC3" stroke="#C2BCC3" stroke-width="1.3045" stroke-miterlimit="10" d="M1672.856,967.358v31.059
		c0,0.921,0.287,1.726,0.863,2.416c0.574,0.689,1.294,1.121,2.157,1.294v1.553c-1.324-0.173-2.416-0.762-3.278-1.769
		c-0.863-1.006-1.294-2.171-1.294-3.494v-55.129h1.553v22.69h8.627v1.381H1672.856z"/>
	<path fill="#C2BCC3" stroke="#C2BCC3" stroke-width="1.3045" stroke-miterlimit="10" d="M1702.104,966.064v1.466
		c-2.416,0.116-4.674,0.677-6.772,1.683c-2.101,1.007-3.897,2.345-5.392,4.012v30.455h-1.467v-37.702h1.467v5.091
		c1.609-1.495,3.451-2.675,5.521-3.538C1697.531,966.668,1699.745,966.18,1702.104,966.064z"/>
	<path fill="#C2BCC3" stroke="#C2BCC3" stroke-width="1.3045" stroke-miterlimit="10" d="M1744.636,999.193
		c0.345,1.611,1.323,2.588,2.933,2.934v1.553c-1.035-0.173-2.042-0.69-3.019-1.553c-0.461-0.46-0.82-0.992-1.079-1.597
		c-0.259-0.604-0.388-1.221-0.388-1.854c-1.669,1.553-3.595,2.761-5.78,3.623c-2.187,0.863-4.516,1.295-6.988,1.295
		c-2.588,0-5.019-0.488-7.29-1.467c-2.273-0.978-4.271-2.314-5.996-4.012c-1.726-1.696-3.078-3.681-4.055-5.953
		c-0.979-2.271-1.467-4.702-1.467-7.29c0-2.589,0.488-5.018,1.467-7.29c0.978-2.271,2.33-4.271,4.055-5.996
		c1.725-1.726,3.723-3.076,5.996-4.056c2.271-0.977,4.702-1.466,7.29-1.466c2.472,0,4.802,0.445,6.988,1.337
		c2.185,0.893,4.111,2.144,5.78,3.753v-4.313h1.553V999.193z M1743.083,973.225c-1.611-1.726-3.509-3.119-5.694-4.185
		c-2.187-1.063-4.544-1.596-7.075-1.596c-2.416,0-4.674,0.461-6.772,1.381c-2.101,0.92-3.926,2.171-5.479,3.753
		c-1.553,1.582-2.791,3.438-3.71,5.564c-0.92,2.128-1.38,4.371-1.38,6.729c0,2.415,0.46,4.674,1.38,6.772
		c0.919,2.101,2.157,3.926,3.71,5.479c1.553,1.553,3.378,2.775,5.479,3.666c2.099,0.893,4.357,1.338,6.772,1.338
		c2.53,0,4.888-0.503,7.075-1.51c2.185-1.006,4.083-2.373,5.694-4.099V973.225z"/>
	<path fill="#C2BCC3" stroke="#C2BCC3" stroke-width="1.3045" stroke-miterlimit="10" d="M1759.647,967.358v31.059
		c0,0.921,0.287,1.726,0.862,2.416c0.574,0.689,1.294,1.121,2.157,1.294v1.553c-1.324-0.173-2.416-0.762-3.279-1.769
		c-0.862-1.006-1.294-2.171-1.294-3.494v-55.129h1.554v22.69h8.627v1.381H1759.647z"/>
	<path fill="#C2BCC3" stroke="#C2BCC3" stroke-width="1.3045" stroke-miterlimit="10" d="M1792.259,1003.68
		c-2.588,0-5.033-0.503-7.333-1.51c-2.302-1.006-4.314-2.373-6.04-4.098c-1.725-1.726-3.092-3.738-4.098-6.04
		c-1.007-2.3-1.51-4.745-1.51-7.333s0.503-5.032,1.51-7.333c1.006-2.3,2.373-4.314,4.098-6.039c1.726-1.726,3.738-3.076,6.04-4.056
		c2.3-0.977,4.745-1.467,7.333-1.467s5.032,0.49,7.333,1.467c2.3,0.979,4.314,2.33,6.039,4.056c1.726,1.725,3.092,3.739,4.099,6.039
		c1.006,2.301,1.51,4.745,1.51,7.333s-0.504,5.033-1.51,7.333c-1.007,2.302-2.373,4.314-4.099,6.04
		c-1.725,1.725-3.739,3.092-6.039,4.098C1797.291,1003.177,1794.847,1003.68,1792.259,1003.68z M1792.259,967.271
		c-2.416,0-4.688,0.461-6.815,1.381c-2.129,0.921-3.969,2.172-5.521,3.753c-1.554,1.582-2.791,3.423-3.71,5.521
		c-0.921,2.101-1.381,4.356-1.381,6.772s0.46,4.688,1.381,6.815c0.919,2.129,2.156,3.969,3.71,5.521
		c1.553,1.554,3.393,2.791,5.521,3.71c2.127,0.921,4.399,1.381,6.815,1.381s4.672-0.46,6.772-1.381
		c2.099-0.919,3.939-2.156,5.521-3.71c1.581-1.553,2.832-3.393,3.753-5.521c0.92-2.127,1.381-4.399,1.381-6.815
		s-0.461-4.672-1.381-6.772c-0.921-2.099-2.172-3.939-3.753-5.521c-1.582-1.581-3.423-2.832-5.521-3.753
		C1796.931,967.732,1794.675,967.271,1792.259,967.271z"/>
	<path fill="#C2BCC3" stroke="#C2BCC3" stroke-width="1.3045" stroke-miterlimit="10" d="M1837.725,966.064v1.466
		c-2.415,0.116-4.673,0.677-6.772,1.683c-2.1,1.007-3.896,2.345-5.392,4.012v30.455h-1.467v-37.702h1.467v5.091
		c1.609-1.495,3.451-2.675,5.521-3.538C1833.152,966.668,1835.366,966.18,1837.725,966.064z"/>
</g>
<g>
	<path fill="#C2BCC3" stroke="#C2BCC3" stroke-width="1.3045" stroke-miterlimit="10" d="M1516.935,657.852
		c2.588,0,5.032,0.489,7.333,1.466c2.299,0.979,4.313,2.33,6.039,4.055s3.091,3.739,4.098,6.039c1.005,2.301,1.51,4.745,1.51,7.333
		s-0.504,5.034-1.51,7.333c-1.007,2.301-2.373,4.286-4.098,5.953c-1.726,1.669-3.74,2.991-6.039,3.969
		c-2.301,0.979-4.745,1.467-7.333,1.467c-2.474,0-4.818-0.445-7.031-1.337c-2.215-0.891-4.156-2.142-5.824-3.753v22.604h-1.553
		v-55.043h1.553v5.004c1.667-1.553,3.609-2.789,5.824-3.709C1512.117,658.312,1514.461,657.852,1516.935,657.852z M1516.935,693.914
		c2.416,0,4.687-0.445,6.815-1.337c2.127-0.891,3.969-2.099,5.522-3.624c1.553-1.523,2.789-3.335,3.709-5.435
		c0.919-2.099,1.38-4.357,1.38-6.772c0-2.416-0.461-4.672-1.38-6.772c-0.92-2.099-2.157-3.926-3.709-5.479
		c-1.553-1.553-3.395-2.789-5.522-3.71c-2.128-0.919-4.4-1.38-6.815-1.38c-2.588,0-4.976,0.518-7.161,1.553
		c-2.187,1.036-4.085,2.416-5.694,4.142v23.122c1.609,1.783,3.508,3.179,5.694,4.184
		C1511.959,693.411,1514.346,693.914,1516.935,693.914z"/>
	<path fill="#C2BCC3" stroke="#C2BCC3" stroke-width="1.3045" stroke-miterlimit="10" d="M1580.087,676.832v18.808h-1.466v-18.808
		c0-2.416-0.461-4.672-1.38-6.773c-0.921-2.099-2.157-3.925-3.71-5.479c-1.553-1.553-3.379-2.789-5.479-3.709
		c-2.1-0.919-4.357-1.38-6.772-1.38c-2.588,0-4.976,0.504-7.161,1.51c-2.187,1.007-4.055,2.402-5.608,4.184v30.455h-1.553v-64.792
		h1.553v32.18c1.667-1.553,3.594-2.774,5.78-3.667c2.185-0.891,4.515-1.337,6.988-1.337c3.911,0,7.405,1.05,10.482,3.149
		c3.076,2.101,5.362,4.846,6.859,8.239C1579.598,671.713,1580.087,674.187,1580.087,676.832z"/>
	<path fill="#C2BCC3" stroke="#C2BCC3" stroke-width="1.3045" stroke-miterlimit="10" d="M1609.247,695.64
		c-2.588,0-5.034-0.503-7.333-1.51c-2.301-1.006-4.313-2.373-6.039-4.098s-3.092-3.738-4.098-6.039
		c-1.007-2.3-1.51-4.745-1.51-7.333s0.503-5.032,1.51-7.333c1.006-2.299,2.373-4.313,4.098-6.039s3.738-3.076,6.039-4.055
		c2.3-0.978,4.745-1.467,7.333-1.467s5.032,0.489,7.333,1.467c2.299,0.979,4.313,2.329,6.039,4.055s3.091,3.74,4.098,6.039
		c1.005,2.301,1.51,4.745,1.51,7.333s-0.504,5.034-1.51,7.333c-1.007,2.301-2.373,4.313-4.098,6.039s-3.74,3.092-6.039,4.098
		C1614.279,695.137,1611.835,695.64,1609.247,695.64z M1609.247,659.232c-2.416,0-4.688,0.461-6.816,1.38
		c-2.128,0.92-3.968,2.171-5.521,3.753c-1.553,1.583-2.791,3.422-3.709,5.521c-0.921,2.1-1.381,4.357-1.381,6.772
		s0.46,4.688,1.381,6.816c0.919,2.128,2.157,3.968,3.709,5.521c1.553,1.553,3.393,2.791,5.521,3.71c2.127,0.92,4.4,1.38,6.816,1.38
		s4.672-0.46,6.772-1.38c2.099-0.919,3.939-2.157,5.521-3.71c1.582-1.553,2.833-3.393,3.753-5.521c0.919-2.127,1.38-4.4,1.38-6.816
		s-0.461-4.672-1.38-6.772c-0.92-2.099-2.171-3.939-3.753-5.521c-1.583-1.582-3.422-2.833-5.521-3.753
		C1613.919,659.693,1611.663,659.232,1609.247,659.232z"/>
	<path fill="#C2BCC3" stroke="#C2BCC3" stroke-width="1.3045" stroke-miterlimit="10" d="M1642.721,659.318v31.059
		c0,0.921,0.287,1.726,0.863,2.416c0.574,0.69,1.294,1.122,2.157,1.294v1.553c-1.324-0.172-2.416-0.762-3.278-1.769
		c-0.863-1.006-1.294-2.17-1.294-3.494v-55.129h1.553v22.69h8.627v1.38H1642.721z"/>
	<path fill="#C2BCC3" stroke="#C2BCC3" stroke-width="1.3045" stroke-miterlimit="10" d="M1675.333,695.64
		c-2.588,0-5.034-0.503-7.333-1.51c-2.301-1.006-4.313-2.373-6.039-4.098s-3.092-3.738-4.098-6.039
		c-1.007-2.3-1.51-4.745-1.51-7.333s0.503-5.032,1.51-7.333c1.006-2.299,2.373-4.313,4.098-6.039s3.738-3.076,6.039-4.055
		c2.3-0.978,4.745-1.467,7.333-1.467s5.032,0.489,7.333,1.467c2.299,0.979,4.313,2.329,6.039,4.055s3.091,3.74,4.098,6.039
		c1.005,2.301,1.51,4.745,1.51,7.333s-0.504,5.034-1.51,7.333c-1.007,2.301-2.373,4.313-4.098,6.039s-3.74,3.092-6.039,4.098
		C1680.365,695.137,1677.921,695.64,1675.333,695.64z M1675.333,659.232c-2.416,0-4.688,0.461-6.816,1.38
		c-2.128,0.92-3.968,2.171-5.521,3.753c-1.553,1.583-2.791,3.422-3.709,5.521c-0.921,2.1-1.381,4.357-1.381,6.772
		s0.46,4.688,1.381,6.816c0.919,2.128,2.157,3.968,3.709,5.521c1.553,1.553,3.393,2.791,5.521,3.71c2.127,0.92,4.4,1.38,6.816,1.38
		s4.672-0.46,6.772-1.38c2.099-0.919,3.939-2.157,5.521-3.71c1.582-1.553,2.833-3.393,3.753-5.521c0.919-2.127,1.38-4.4,1.38-6.816
		s-0.461-4.672-1.38-6.772c-0.92-2.099-2.171-3.939-3.753-5.521c-1.583-1.582-3.422-2.833-5.521-3.753
		C1680.005,659.693,1677.748,659.232,1675.333,659.232z"/>
	<path fill="#C2BCC3" stroke="#C2BCC3" stroke-width="1.3045" stroke-miterlimit="10" d="M1737.795,685.977
		c0,1.38-0.388,2.661-1.165,3.839c-0.777,1.18-1.842,2.215-3.192,3.106c-1.352,0.893-2.963,1.596-4.832,2.114
		c-1.87,0.518-3.897,0.776-6.082,0.776c-3.336,0-6.227-0.574-8.671-1.725c-2.445-1.15-4.242-2.645-5.392-4.486
		c-0.116-0.229-0.23-0.445-0.345-0.647c-0.116-0.201-0.231-0.417-0.345-0.647l1.208-1.035c0.173,0.576,0.402,1.065,0.69,1.467
		c0.978,1.611,2.588,2.933,4.832,3.969c2.243,1.035,4.917,1.553,8.023,1.553c1.955,0,3.781-0.216,5.479-0.647
		c1.696-0.432,3.149-1.021,4.357-1.769c1.208-0.747,2.157-1.625,2.847-2.631c0.69-1.006,1.036-2.084,1.036-3.235
		c0-2.3-1.165-4.228-3.494-5.781c-2.33-1.553-5.479-2.357-9.447-2.416c-0.461,0-0.949-0.043-1.467-0.129s-0.949-0.129-1.294-0.129
		c-1.38-0.057-2.847-0.302-4.4-0.733c-1.553-0.431-2.977-1.049-4.271-1.855c-1.294-0.805-2.373-1.797-3.235-2.976
		c-0.863-1.178-1.294-2.574-1.294-4.185c0-1.38,0.388-2.66,1.165-3.839c0.776-1.178,1.84-2.213,3.192-3.106
		c1.351-0.891,2.947-1.596,4.788-2.113c1.84-0.518,3.853-0.777,6.04-0.777c3.393,0,6.312,0.561,8.757,1.683
		c2.444,1.122,4.241,2.603,5.392,4.443l-1.122,0.949c-0.979-1.667-2.603-3.02-4.875-4.055c-2.273-1.035-4.99-1.553-8.153-1.553
		c-2.014,0-3.854,0.216-5.521,0.647c-1.669,0.432-3.106,1.022-4.314,1.769c-1.208,0.749-2.157,1.639-2.847,2.675
		c-0.69,1.035-1.035,2.128-1.035,3.278c0,1.151,0.33,2.215,0.992,3.192c0.661,0.979,1.596,1.841,2.804,2.588
		c1.208,0.749,2.631,1.337,4.271,1.769c1.639,0.432,3.436,0.677,5.392,0.733c1.15,0.058,2.314,0.145,3.494,0.259
		c1.178,0.116,2.2,0.289,3.062,0.518c2.934,0.806,5.162,2.014,6.687,3.623C1737.032,682.066,1737.795,683.906,1737.795,685.977z"/>
	<path fill="#C2BCC3" stroke="#C2BCC3" stroke-width="1.3045" stroke-miterlimit="10" d="M1784.123,676.832v18.808h-1.467v-18.808
		c0-2.416-0.461-4.672-1.38-6.773c-0.921-2.099-2.157-3.925-3.71-5.479c-1.553-1.553-3.38-2.789-5.479-3.709
		c-2.101-0.919-4.356-1.38-6.772-1.38c-2.588,0-4.976,0.504-7.161,1.51c-2.187,1.007-4.055,2.402-5.607,4.184v30.455h-1.553v-64.792
		h1.553v32.18c1.667-1.553,3.594-2.774,5.78-3.667c2.186-0.891,4.515-1.337,6.988-1.337c3.91,0,7.404,1.05,10.482,3.149
		c3.076,2.101,5.362,4.846,6.858,8.239C1783.634,671.713,1784.123,674.187,1784.123,676.832z"/>
	<path fill="#C2BCC3" stroke="#C2BCC3" stroke-width="1.3045" stroke-miterlimit="10" d="M1813.283,695.64
		c-2.588,0-5.033-0.503-7.333-1.51c-2.302-1.006-4.314-2.373-6.04-4.098c-1.725-1.726-3.092-3.738-4.098-6.039
		c-1.007-2.3-1.51-4.745-1.51-7.333s0.503-5.032,1.51-7.333c1.006-2.299,2.373-4.313,4.098-6.039
		c1.726-1.726,3.738-3.076,6.04-4.055c2.3-0.978,4.745-1.467,7.333-1.467s5.032,0.489,7.333,1.467
		c2.3,0.979,4.314,2.329,6.039,4.055c1.726,1.726,3.092,3.74,4.099,6.039c1.006,2.301,1.51,4.745,1.51,7.333
		s-0.504,5.034-1.51,7.333c-1.007,2.301-2.373,4.313-4.099,6.039c-1.725,1.726-3.739,3.092-6.039,4.098
		C1818.315,695.137,1815.871,695.64,1813.283,695.64z M1813.283,659.232c-2.416,0-4.688,0.461-6.815,1.38
		c-2.129,0.92-3.969,2.171-5.521,3.753c-1.554,1.583-2.791,3.422-3.71,5.521c-0.921,2.1-1.381,4.357-1.381,6.772
		s0.46,4.688,1.381,6.816c0.919,2.128,2.156,3.968,3.71,5.521c1.553,1.553,3.393,2.791,5.521,3.71c2.127,0.92,4.399,1.38,6.815,1.38
		s4.672-0.46,6.772-1.38c2.099-0.919,3.939-2.157,5.521-3.71c1.581-1.553,2.832-3.393,3.753-5.521c0.92-2.127,1.381-4.4,1.381-6.816
		s-0.461-4.672-1.381-6.772c-0.921-2.099-2.172-3.939-3.753-5.521c-1.582-1.582-3.423-2.833-5.521-3.753
		C1817.955,659.693,1815.699,659.232,1813.283,659.232z"/>
	<path fill="#C2BCC3" stroke="#C2BCC3" stroke-width="1.3045" stroke-miterlimit="10" d="M1859.612,657.852
		c2.588,0,5.032,0.489,7.333,1.466c2.3,0.979,4.314,2.33,6.039,4.055c1.726,1.726,3.092,3.739,4.099,6.039
		c1.006,2.301,1.51,4.745,1.51,7.333s-0.504,5.034-1.51,7.333c-1.007,2.301-2.373,4.286-4.099,5.953
		c-1.725,1.669-3.739,2.991-6.039,3.969c-2.301,0.979-4.745,1.467-7.333,1.467c-2.474,0-4.818-0.445-7.031-1.337
		c-2.215-0.891-4.156-2.142-5.823-3.753v22.604h-1.554v-55.043h1.554v5.004c1.667-1.553,3.608-2.789,5.823-3.709
		C1854.794,658.312,1857.139,657.852,1859.612,657.852z M1859.612,693.914c2.416,0,4.688-0.445,6.815-1.337
		c2.127-0.891,3.969-2.099,5.521-3.624c1.554-1.523,2.789-3.335,3.71-5.435c0.92-2.099,1.381-4.357,1.381-6.772
		c0-2.416-0.461-4.672-1.381-6.772c-0.921-2.099-2.156-3.926-3.71-5.479c-1.553-1.553-3.395-2.789-5.521-3.71
		c-2.128-0.919-4.399-1.38-6.815-1.38c-2.588,0-4.976,0.518-7.161,1.553c-2.187,1.036-4.084,2.416-5.693,4.142v23.122
		c1.609,1.783,3.507,3.179,5.693,4.184C1854.637,693.411,1857.024,693.914,1859.612,693.914z"/>
</g>
<g>
</g>
<g>
</g>
<g>
</g>
<g>
</g>
<g>
</g>
<g>
</g>
</svg>
