<?xml version="1.0" encoding="utf-8"?>
<!-- Generator: Adobe Illustrator 16.0.0, SVG Export Plug-In . SVG Version: 6.00 Build 0)  -->
<!DOCTYPE svg PUBLIC "-//W3C//DTD SVG 1.1//EN" "http://www.w3.org/Graphics/SVG/1.1/DTD/svg11.dtd">
<svg version="1.1" id="Layer_1" xmlns="http://www.w3.org/2000/svg" xmlns:xlink="http://www.w3.org/1999/xlink" x="0px" y="0px"
	 width="1626.33px" height="892px" viewBox="0 0 1626.33 892" enable-background="new 0 0 1626.33 892" xml:space="preserve">
<g opacity="0.5">
	<g>
		
			<line fill="none" stroke="#E2CFCC" stroke-width="5.8513" stroke-miterlimit="10" x1="-1.403" y1="445.683" x2="9.619" y2="445.683"/>
		
			<line fill="none" stroke="#E2CFCC" stroke-width="5.8513" stroke-miterlimit="10" stroke-dasharray="20.5385,20.5385,20.5385,20.5385" x1="30.158" y1="445.683" x2="102.043" y2="445.683"/>
		
			<line fill="none" stroke="#E2CFCC" stroke-width="5.8513" stroke-miterlimit="10" stroke-dasharray="20.5385,20.5385,20.5385,20.5385,20.5385,20.5385" x1="112.312" y1="445.683" x2="841.43" y2="445.683"/>
		
			<line fill="none" stroke="#E2CFCC" stroke-width="5.8513" stroke-miterlimit="10" x1="851.7" y1="445.683" x2="862.722" y2="445.683"/>
	</g>
</g>
<g opacity="0.5">
	<g>
		<polyline fill="none" stroke="#E2CFCC" stroke-width="5.8513" stroke-miterlimit="10" points="1244.227,873.744 1234.639,879.183 
			1225.135,873.599 		"/>
		
			<line fill="none" stroke="#E2CFCC" stroke-width="5.8513" stroke-miterlimit="10" stroke-dasharray="24.204,24.204,24.204,24.204" x1="1204.268" y1="861.336" x2="1131.229" y2="818.419"/>
		
			<line fill="none" stroke="#E2CFCC" stroke-width="5.8513" stroke-miterlimit="10" stroke-dasharray="24.204,24.204,24.204,24.204,24.204,24.204" x1="1120.795" y1="812.288" x2="880.813" y2="671.273"/>
		<polyline fill="none" stroke="#E2CFCC" stroke-width="5.8513" stroke-miterlimit="10" points="870.379,665.143 860.876,659.559 
			860.96,648.536 		"/>
		
			<line fill="none" stroke="#E2CFCC" stroke-width="5.8513" stroke-miterlimit="10" stroke-dasharray="24.2037,24.2037,24.2037,24.2037" x1="861.146" y1="624.333" x2="861.794" y2="539.623"/>
		
			<line fill="none" stroke="#E2CFCC" stroke-width="5.8513" stroke-miterlimit="10" stroke-dasharray="24.2037,24.2037,24.2037,24.2037,24.2037,24.2037" x1="861.887" y1="527.521" x2="864.018" y2="249.187"/>
		<polyline fill="none" stroke="#E2CFCC" stroke-width="5.8513" stroke-miterlimit="10" points="864.11,237.085 864.195,226.063 
			873.783,220.625 		"/>
		
			<line fill="none" stroke="#E2CFCC" stroke-width="5.8513" stroke-miterlimit="10" stroke-dasharray="24.2037,24.2037,24.2037,24.2037" x1="894.835" y1="208.684" x2="968.521" y2="166.889"/>
		
			<line fill="none" stroke="#E2CFCC" stroke-width="5.8513" stroke-miterlimit="10" stroke-dasharray="24.2037,24.2037,24.2037,24.2037,24.2037,24.2037" x1="979.047" y1="160.918" x2="1221.155" y2="23.593"/>
		<polyline fill="none" stroke="#E2CFCC" stroke-width="5.8513" stroke-miterlimit="10" points="1231.682,17.623 1241.27,12.184 
			1250.773,17.769 		"/>
		
			<line fill="none" stroke="#E2CFCC" stroke-width="5.8513" stroke-miterlimit="10" stroke-dasharray="24.204,24.204,24.204,24.204" x1="1271.641" y1="30.031" x2="1344.679" y2="72.948"/>
		
			<line fill="none" stroke="#E2CFCC" stroke-width="5.8513" stroke-miterlimit="10" stroke-dasharray="24.204,24.204,24.204,24.204,24.204,24.204" x1="1355.113" y1="79.08" x2="1595.095" y2="220.095"/>
		<polyline fill="none" stroke="#E2CFCC" stroke-width="5.8513" stroke-miterlimit="10" points="1605.529,226.226 1615.032,231.811 
			1614.947,242.833 		"/>
		
			<line fill="none" stroke="#E2CFCC" stroke-width="5.8513" stroke-miterlimit="10" stroke-dasharray="24.204,24.204,24.204,24.204" x1="1614.763" y1="267.036" x2="1614.113" y2="351.748"/>
		
			<line fill="none" stroke="#E2CFCC" stroke-width="5.8513" stroke-miterlimit="10" stroke-dasharray="24.204,24.204,24.204,24.204,24.204,24.204" x1="1614.021" y1="363.849" x2="1611.887" y2="642.187"/>
		<polyline fill="none" stroke="#E2CFCC" stroke-width="5.8513" stroke-miterlimit="10" points="1611.795,654.288 1611.71,665.311 
			1602.122,670.749 		"/>
		
			<line fill="none" stroke="#E2CFCC" stroke-width="5.8513" stroke-miterlimit="10" stroke-dasharray="24.2033,24.2033,24.2033,24.2033" x1="1581.069" y1="682.689" x2="1507.385" y2="724.482"/>
		
			<line fill="none" stroke="#E2CFCC" stroke-width="5.8513" stroke-miterlimit="10" stroke-dasharray="24.2033,24.2033,24.2033,24.2033,24.2033,24.2033" x1="1496.858" y1="730.453" x2="1254.753" y2="867.774"/>
	</g>
</g>
<g>
	<path fill="#C2BCC3" stroke="#C2BCC3" stroke-miterlimit="10" d="M1369.428,605.411v14.417h-1.125v-14.417
		c0-1.852-0.354-3.582-1.058-5.192c-0.706-1.609-1.653-3.009-2.844-4.2s-2.591-2.138-4.2-2.844c-1.609-0.705-3.34-1.058-5.191-1.058
		c-1.984,0-3.814,0.386-5.489,1.157c-1.676,0.772-3.108,1.841-4.299,3.208v23.346h-1.19V570.16h1.19v24.669
		c1.278-1.19,2.755-2.126,4.431-2.811c1.676-0.683,3.461-1.025,5.357-1.025c2.998,0,5.677,0.805,8.035,2.414
		c2.358,1.61,4.111,3.715,5.258,6.316C1369.053,601.487,1369.428,603.383,1369.428,605.411z"/>
	<path fill="#C2BCC3" stroke="#C2BCC3" stroke-miterlimit="10" d="M1380.008,591.985v23.809c0,0.706,0.221,1.323,0.662,1.852
		c0.439,0.529,0.991,0.86,1.653,0.992v1.19c-1.015-0.132-1.853-0.584-2.514-1.356c-0.661-0.771-0.992-1.664-0.992-2.678v-42.261
		h1.19v17.394h6.614v1.058H1380.008z"/>
	<path fill="#C2BCC3" stroke="#C2BCC3" stroke-miterlimit="10" d="M1441.714,605.543v14.286h-1.125v-14.286
		c0-1.852-0.354-3.582-1.058-5.191c-0.706-1.609-1.665-3.02-2.877-4.233c-1.214-1.212-2.636-2.171-4.266-2.877
		c-1.632-0.705-3.373-1.058-5.226-1.058c-1.983,0-3.858,0.441-5.621,1.323c-1.764,0.882-3.571,2.381-5.423,4.498l-0.463,0.793
		c0.088,0.177,0.165,0.354,0.231,0.529c0.065,0.177,0.143,0.354,0.231,0.529c0.793,1.72,1.19,3.616,1.19,5.688v14.286h-1.19v-14.286
		c0-1.895-0.375-3.704-1.125-5.423c-0.089-0.22-0.188-0.44-0.297-0.662c-0.111-0.22-0.231-0.44-0.364-0.661
		c-1.146-1.984-2.734-3.582-4.762-4.795c-2.028-1.212-4.299-1.819-6.812-1.819c-1.984,0-3.814,0.387-5.49,1.158
		c-1.676,0.771-3.131,1.841-4.364,3.208v23.28h-1.19v-28.901h1.19v3.968c1.278-1.191,2.766-2.138,4.464-2.844
		c1.697-0.705,3.494-1.058,5.391-1.058c2.601,0,4.97,0.606,7.109,1.819c2.138,1.213,3.846,2.833,5.125,4.861
		c0.176-0.265,0.353-0.529,0.529-0.793c0.176-0.265,0.374-0.529,0.596-0.793l1.19-1.19c1.278-1.191,2.766-2.138,4.464-2.844
		c1.697-0.705,3.494-1.058,5.39-1.058c3.043,0,5.754,0.816,8.135,2.447c2.382,1.631,4.145,3.77,5.291,6.415
		C1441.339,601.62,1441.714,603.516,1441.714,605.543z"/>
	<path fill="#C2BCC3" stroke="#C2BCC3" stroke-miterlimit="10" d="M1454.542,618.638v1.125c-1.015-0.132-1.852-0.573-2.513-1.323
		c-0.661-0.75-0.992-1.631-0.992-2.646v-45.568h1.19v45.568c0,0.706,0.221,1.323,0.661,1.852
		C1453.329,618.175,1453.881,618.506,1454.542,618.638z"/>
</g>
<g>
	<path fill="#C2BCC3" stroke="#C2BCC3" stroke-miterlimit="10" d="M1008.94,615.133l0.86,0.794c-1.279,1.19-2.756,2.127-4.431,2.811
		c-1.676,0.684-3.462,1.025-5.357,1.025c-1.984,0-3.847-0.375-5.588-1.125c-1.743-0.749-3.274-1.786-4.597-3.108
		s-2.359-2.854-3.108-4.597c-0.75-1.741-1.125-3.604-1.125-5.588c0-1.984,0.375-3.846,1.125-5.588
		c0.749-1.741,1.786-3.274,3.108-4.597s2.854-2.358,4.597-3.108c1.741-0.749,3.604-1.124,5.588-1.124
		c1.895,0,3.681,0.342,5.357,1.025c1.675,0.684,3.152,1.621,4.431,2.811l-0.86,0.793c-1.147-1.058-2.491-1.907-4.034-2.546
		c-1.544-0.639-3.175-0.959-4.894-0.959c-1.852,0-3.583,0.354-5.192,1.058c-1.61,0.706-3.009,1.665-4.2,2.877
		c-1.19,1.213-2.139,2.624-2.844,4.233c-0.706,1.61-1.058,3.318-1.058,5.125c0,1.852,0.353,3.583,1.058,5.192
		c0.705,1.61,1.653,3.009,2.844,4.2s2.59,2.139,4.2,2.844c1.609,0.706,3.34,1.058,5.192,1.058c1.719,0,3.35-0.308,4.894-0.926
		C1006.449,617.095,1007.793,616.235,1008.94,615.133z"/>
	<path fill="#C2BCC3" stroke="#C2BCC3" stroke-miterlimit="10" d="M1042.868,612.421c0,1.058-0.298,2.04-0.893,2.943
		c-0.595,0.904-1.412,1.698-2.447,2.381c-1.037,0.684-2.271,1.224-3.704,1.621c-1.434,0.397-2.988,0.595-4.663,0.595
		c-2.558,0-4.773-0.44-6.647-1.323c-1.875-0.881-3.252-2.027-4.133-3.439c-0.089-0.176-0.177-0.341-0.265-0.496
		c-0.089-0.154-0.177-0.319-0.265-0.496l0.926-0.793c0.132,0.441,0.308,0.816,0.529,1.124c0.75,1.235,1.984,2.249,3.704,3.042
		c1.72,0.793,3.77,1.19,6.151,1.19c1.498,0,2.898-0.166,4.2-0.496c1.3-0.331,2.414-0.782,3.34-1.356
		c0.926-0.572,1.653-1.245,2.182-2.017c0.529-0.771,0.794-1.598,0.794-2.48c0-1.763-0.893-3.241-2.679-4.431s-4.2-1.808-7.242-1.852
		c-0.354,0-0.728-0.033-1.125-0.099c-0.397-0.066-0.728-0.099-0.992-0.099c-1.058-0.043-2.182-0.231-3.373-0.562
		s-2.282-0.804-3.274-1.422c-0.992-0.617-1.819-1.377-2.48-2.282c-0.662-0.903-0.992-1.973-0.992-3.208
		c0-1.059,0.298-2.039,0.893-2.943c0.595-0.903,1.41-1.697,2.447-2.381c1.036-0.683,2.259-1.224,3.67-1.62
		c1.411-0.397,2.954-0.595,4.63-0.595c2.601,0,4.838,0.43,6.713,1.29c1.874,0.86,3.251,1.996,4.133,3.406l-0.86,0.728
		c-0.75-1.278-1.995-2.314-3.737-3.108c-1.742-0.793-3.825-1.19-6.25-1.19c-1.544,0-2.955,0.166-4.233,0.496
		c-1.279,0.331-2.381,0.783-3.307,1.356c-0.926,0.573-1.653,1.256-2.183,2.05c-0.529,0.793-0.793,1.631-0.793,2.513
		c0,0.882,0.253,1.698,0.76,2.447c0.506,0.75,1.224,1.412,2.149,1.984c0.926,0.573,2.017,1.025,3.274,1.355
		c1.256,0.331,2.634,0.519,4.133,0.562c0.882,0.044,1.774,0.11,2.679,0.198c0.903,0.089,1.687,0.221,2.348,0.397
		c2.249,0.618,3.957,1.543,5.126,2.777C1042.283,609.423,1042.868,610.834,1042.868,612.421z"/>
	<path fill="#C2BCC3" stroke="#C2BCC3" stroke-miterlimit="10" d="M1076.53,612.421c0,1.058-0.298,2.04-0.893,2.943
		c-0.595,0.904-1.412,1.698-2.447,2.381c-1.037,0.684-2.271,1.224-3.704,1.621c-1.434,0.397-2.988,0.595-4.663,0.595
		c-2.558,0-4.773-0.44-6.647-1.323c-1.875-0.881-3.252-2.027-4.133-3.439c-0.089-0.176-0.177-0.341-0.265-0.496
		c-0.089-0.154-0.177-0.319-0.265-0.496l0.926-0.793c0.132,0.441,0.308,0.816,0.529,1.124c0.75,1.235,1.984,2.249,3.704,3.042
		c1.72,0.793,3.77,1.19,6.151,1.19c1.498,0,2.898-0.166,4.2-0.496c1.3-0.331,2.414-0.782,3.34-1.356
		c0.926-0.572,1.653-1.245,2.182-2.017c0.529-0.771,0.794-1.598,0.794-2.48c0-1.763-0.893-3.241-2.679-4.431s-4.2-1.808-7.242-1.852
		c-0.354,0-0.728-0.033-1.125-0.099c-0.397-0.066-0.728-0.099-0.992-0.099c-1.058-0.043-2.182-0.231-3.373-0.562
		s-2.282-0.804-3.274-1.422c-0.992-0.617-1.819-1.377-2.48-2.282c-0.662-0.903-0.992-1.973-0.992-3.208
		c0-1.059,0.298-2.039,0.893-2.943c0.595-0.903,1.41-1.697,2.447-2.381c1.036-0.683,2.259-1.224,3.67-1.62
		c1.411-0.397,2.954-0.595,4.63-0.595c2.601,0,4.838,0.43,6.713,1.29c1.874,0.86,3.251,1.996,4.133,3.406l-0.86,0.728
		c-0.75-1.278-1.995-2.314-3.737-3.108c-1.742-0.793-3.825-1.19-6.25-1.19c-1.544,0-2.955,0.166-4.233,0.496
		c-1.279,0.331-2.381,0.783-3.307,1.356c-0.926,0.573-1.653,1.256-2.183,2.05c-0.529,0.793-0.793,1.631-0.793,2.513
		c0,0.882,0.253,1.698,0.76,2.447c0.506,0.75,1.224,1.412,2.149,1.984c0.926,0.573,2.017,1.025,3.274,1.355
		c1.256,0.331,2.634,0.519,4.133,0.562c0.882,0.044,1.774,0.11,2.679,0.198c0.903,0.089,1.687,0.221,2.348,0.397
		c2.249,0.618,3.957,1.543,5.126,2.777C1075.945,609.423,1076.53,610.834,1076.53,612.421z"/>
</g>
<g>
	<path fill="#C2BCC3" stroke="#C2BCC3" stroke-miterlimit="10" d="M950.506,334.518v27.843c0,1.94-0.364,3.77-1.091,5.489
		c-0.728,1.72-1.72,3.229-2.976,4.531c-1.257,1.3-2.722,2.348-4.398,3.141c-1.675,0.794-3.482,1.212-5.423,1.257v-1.125
		c1.764-0.089,3.417-0.496,4.96-1.224c1.544-0.727,2.887-1.686,4.035-2.876c1.146-1.191,2.05-2.569,2.711-4.134
		c0.661-1.565,0.992-3.252,0.992-5.06v-27.843H950.506z M951.365,328.566c0,0.486-0.165,0.893-0.496,1.224
		c-0.331,0.331-0.739,0.496-1.224,0.496c-0.486,0-0.893-0.166-1.224-0.496s-0.496-0.738-0.496-1.224
		c0-0.485,0.166-0.893,0.496-1.224s0.738-0.496,1.224-0.496c0.484,0,0.893,0.166,1.224,0.496
		C951.2,327.673,951.365,328.081,951.365,328.566z"/>
	<path fill="#C2BCC3" stroke="#C2BCC3" stroke-miterlimit="10" d="M1001.827,340.272c0,3.307-0.541,6.382-1.621,9.226
		c-1.081,2.844-2.591,5.324-4.53,7.44l5.754,6.018h-1.521l-5.026-5.225c-1.72,1.764-3.671,3.142-5.853,4.134
		c-2.183,0.992-4.531,1.488-7.044,1.488c-2.777,0-5.368-0.605-7.771-1.819c-2.403-1.212-4.508-2.854-6.316-4.927
		c-1.808-2.072-3.23-4.519-4.266-7.341c-1.037-2.821-1.554-5.82-1.554-8.995c0-3.174,0.518-6.172,1.554-8.995
		c1.036-2.821,2.458-5.268,4.266-7.341c1.808-2.072,3.913-3.714,6.316-4.927c2.403-1.212,4.994-1.819,7.771-1.819
		c2.733,0,5.301,0.606,7.705,1.819c2.403,1.213,4.508,2.855,6.316,4.927c1.808,2.073,3.229,4.52,4.266,7.341
		C1001.308,334.1,1001.827,337.098,1001.827,340.272z M981.985,362.295c2.337,0,4.541-0.473,6.614-1.422
		c2.072-0.948,3.924-2.259,5.556-3.935l-6.151-6.416h1.455l5.423,5.622c1.852-1.984,3.284-4.332,4.299-7.043
		c1.014-2.711,1.521-5.654,1.521-8.829c0-3.042-0.496-5.896-1.488-8.564c-0.992-2.667-2.326-4.993-4.001-6.978
		c-1.676-1.984-3.66-3.56-5.952-4.729c-2.293-1.168-4.719-1.753-7.275-1.753c-2.602,0-5.049,0.585-7.341,1.753
		c-2.293,1.168-4.289,2.745-5.985,4.729c-1.698,1.984-3.042,4.31-4.034,6.978c-0.992,2.668-1.488,5.522-1.488,8.564
		c0,3.042,0.496,5.897,1.488,8.565c0.992,2.668,2.336,5.004,4.034,7.01c1.697,2.007,3.692,3.583,5.985,4.729
		C976.937,361.723,979.383,362.295,981.985,362.295z"/>
	<path fill="#C2BCC3" stroke="#C2BCC3" stroke-miterlimit="10" d="M1013.4,348.87V334.65h1.125v14.219
		c0,1.015,0.109,1.962,0.331,2.844c0.22,0.883,0.506,1.764,0.86,2.646c0.088,0.221,0.187,0.43,0.297,0.628
		c0.11,0.198,0.231,0.408,0.364,0.628c1.146,1.984,2.733,3.583,4.762,4.795c2.028,1.213,4.299,1.819,6.812,1.819
		c1.984,0,3.813-0.386,5.49-1.158c1.675-0.771,3.13-1.84,4.365-3.208V334.65h1.19v28.174h-1.19v-3.307
		c-1.279,1.235-2.768,2.194-4.464,2.877c-1.698,0.684-3.495,1.025-5.39,1.025c-2.602,0-4.971-0.606-7.109-1.819
		c-2.139-1.212-3.847-2.833-5.125-4.861c-0.132-0.175-0.254-0.352-0.364-0.529c-0.111-0.176-0.21-0.374-0.298-0.595l-0.529-1.058
		C1013.774,352.794,1013.4,350.898,1013.4,348.87z"/>
	<path fill="#C2BCC3" stroke="#C2BCC3" stroke-miterlimit="10" d="M1062.936,362.295c1.72,0,3.351-0.308,4.895-0.926
		c1.542-0.617,2.887-1.477,4.034-2.58l0.86,0.794c-1.279,1.19-2.756,2.127-4.431,2.811c-1.676,0.684-3.462,1.025-5.357,1.025
		c-1.896,0-3.682-0.341-5.357-1.025c-1.676-0.683-3.153-1.62-4.431-2.811l-0.793-0.794c-1.19-1.278-2.128-2.755-2.811-4.431
		c-0.684-1.675-1.025-3.46-1.025-5.357c0-1.984,0.374-3.846,1.125-5.588c0.749-1.741,1.786-3.274,3.108-4.597
		s2.854-2.358,4.596-3.108c1.741-0.749,3.604-1.124,5.588-1.124c1.896,0,3.681,0.342,5.357,1.025
		c1.675,0.684,3.152,1.621,4.431,2.811l0.793,0.793l-19.576,19.576c1.19,1.103,2.557,1.962,4.1,2.58
		C1059.584,361.987,1061.216,362.295,1062.936,362.295z M1049.643,349.002c0,1.72,0.308,3.351,0.926,4.894
		c0.617,1.544,1.477,2.91,2.579,4.101l18.717-18.783c-1.147-1.058-2.492-1.907-4.034-2.546c-1.544-0.639-3.175-0.959-4.895-0.959
		c-1.852,0-3.583,0.354-5.191,1.058c-1.61,0.706-3.009,1.665-4.2,2.877c-1.19,1.213-2.139,2.624-2.844,4.233
		C1049.995,345.486,1049.643,347.195,1049.643,349.002z"/>
	<path fill="#C2BCC3" stroke="#C2BCC3" stroke-miterlimit="10" d="M1092.961,334.65v1.125c-1.852,0.089-3.583,0.519-5.192,1.29
		c-1.61,0.772-2.987,1.797-4.133,3.075v23.346h-1.125v-28.901h1.125v3.902c1.234-1.146,2.646-2.05,4.232-2.711
		C1089.456,335.113,1091.152,334.739,1092.961,334.65z"/>
	<path fill="#C2BCC3" stroke="#C2BCC3" stroke-miterlimit="10" d="M1129.203,334.65l-17.328,35.317
		c-0.089,0.176-0.177,0.341-0.265,0.496c-0.089,0.154-0.177,0.297-0.265,0.43c-0.661,1.278-1.698,2.027-3.108,2.249
		c-0.132,0.043-0.331,0.066-0.595,0.066c-0.221,0-0.397-0.023-0.529-0.066v-1.19c0.087,0.043,0.264,0.066,0.529,0.066
		s0.463-0.023,0.595-0.066c0.573-0.089,1.08-0.342,1.521-0.76c0.44-0.42,0.903-1.136,1.389-2.149l2.844-6.085l-13.889-28.306h1.323
		l13.227,26.983l13.228-26.983H1129.203z"/>
</g>
<g>
	<path fill="#C2BCC3" stroke="#C2BCC3" stroke-miterlimit="10" d="M1115.846,182.573v27.843c0,1.94-0.364,3.77-1.091,5.489
		c-0.728,1.72-1.72,3.229-2.976,4.531c-1.257,1.3-2.722,2.348-4.398,3.141c-1.675,0.794-3.482,1.212-5.423,1.257v-1.125
		c1.764-0.089,3.417-0.496,4.96-1.224c1.544-0.727,2.887-1.686,4.035-2.876c1.146-1.191,2.05-2.569,2.711-4.134
		c0.661-1.565,0.992-3.252,0.992-5.06v-27.843H1115.846z M1116.705,176.621c0,0.486-0.165,0.893-0.496,1.224
		c-0.331,0.331-0.739,0.496-1.224,0.496c-0.486,0-0.893-0.166-1.224-0.496s-0.496-0.738-0.496-1.224
		c0-0.485,0.166-0.893,0.496-1.224s0.738-0.496,1.224-0.496c0.484,0,0.893,0.166,1.224,0.496
		C1116.54,175.728,1116.705,176.136,1116.705,176.621z"/>
	<path fill="#C2BCC3" stroke="#C2BCC3" stroke-miterlimit="10" d="M1152.616,208.102c0.265,1.235,1.014,1.984,2.249,2.249v1.19
		c-0.793-0.132-1.565-0.529-2.314-1.19c-0.354-0.353-0.628-0.761-0.827-1.224c-0.199-0.463-0.298-0.936-0.298-1.422
		c-1.279,1.19-2.756,2.116-4.431,2.778c-1.676,0.661-3.462,0.992-5.357,0.992c-1.984,0-3.847-0.375-5.588-1.125
		c-1.742-0.749-3.274-1.774-4.597-3.075c-1.323-1.3-2.359-2.821-3.108-4.563c-0.75-1.741-1.124-3.604-1.124-5.588
		c0-1.984,0.374-3.847,1.124-5.589c0.75-1.741,1.786-3.273,3.108-4.596s2.854-2.358,4.597-3.108c1.741-0.75,3.604-1.125,5.588-1.125
		c1.895,0,3.681,0.342,5.357,1.025c1.675,0.684,3.152,1.643,4.431,2.877V183.3h1.19V208.102z M1151.426,188.194
		c-1.235-1.323-2.69-2.391-4.365-3.208c-1.676-0.815-3.484-1.224-5.423-1.224c-1.852,0-3.583,0.354-5.192,1.058
		c-1.61,0.706-3.009,1.665-4.199,2.877c-1.19,1.213-2.139,2.635-2.844,4.266c-0.706,1.631-1.058,3.351-1.058,5.159
		c0,1.852,0.353,3.583,1.058,5.191c0.705,1.61,1.654,3.009,2.844,4.2s2.589,2.128,4.199,2.811c1.609,0.684,3.34,1.025,5.192,1.025
		c1.939,0,3.747-0.385,5.423-1.157c1.675-0.771,3.13-1.819,4.365-3.142V188.194z"/>
	<path fill="#C2BCC3" stroke="#C2BCC3" stroke-miterlimit="10" d="M1189.52,182.639l-13.955,28.901h-0.992l-13.955-28.901h1.323
		l13.095,27.248l13.162-27.248H1189.52z"/>
	<path fill="#C2BCC3" stroke="#C2BCC3" stroke-miterlimit="10" d="M1222.588,208.102c0.265,1.235,1.014,1.984,2.248,2.249v1.19
		c-0.793-0.132-1.565-0.529-2.314-1.19c-0.354-0.353-0.628-0.761-0.827-1.224c-0.198-0.463-0.297-0.936-0.297-1.422
		c-1.279,1.19-2.757,2.116-4.432,2.778c-1.676,0.661-3.462,0.992-5.356,0.992c-1.984,0-3.848-0.375-5.589-1.125
		c-1.742-0.749-3.273-1.774-4.597-3.075c-1.322-1.3-2.359-2.821-3.108-4.563c-0.75-1.741-1.124-3.604-1.124-5.588
		c0-1.984,0.374-3.847,1.124-5.589c0.749-1.741,1.786-3.273,3.108-4.596c1.323-1.323,2.854-2.358,4.597-3.108
		c1.741-0.75,3.604-1.125,5.589-1.125c1.895,0,3.681,0.342,5.356,1.025c1.675,0.684,3.152,1.643,4.432,2.877V183.3h1.19V208.102z
		 M1221.397,188.194c-1.235-1.323-2.69-2.391-4.365-3.208c-1.677-0.815-3.483-1.224-5.423-1.224c-1.853,0-3.583,0.354-5.192,1.058
		c-1.609,0.706-3.009,1.665-4.199,2.877c-1.19,1.213-2.14,2.635-2.844,4.266c-0.706,1.631-1.059,3.351-1.059,5.159
		c0,1.852,0.353,3.583,1.059,5.191c0.704,1.61,1.653,3.009,2.844,4.2s2.59,2.128,4.199,2.811c1.609,0.684,3.34,1.025,5.192,1.025
		c1.939,0,3.746-0.385,5.423-1.157c1.675-0.771,3.13-1.819,4.365-3.142V188.194z"/>
	<path fill="#C2BCC3" stroke="#C2BCC3" stroke-miterlimit="10" d="M1256.315,204.133c0,1.058-0.297,2.04-0.893,2.943
		c-0.595,0.904-1.411,1.698-2.447,2.381c-1.036,0.684-2.271,1.224-3.703,1.621c-1.434,0.397-2.987,0.595-4.663,0.595
		c-2.558,0-4.772-0.44-6.646-1.323c-1.874-0.881-3.252-2.027-4.134-3.439c-0.089-0.176-0.176-0.341-0.264-0.496
		c-0.089-0.154-0.177-0.319-0.265-0.496l0.926-0.793c0.132,0.441,0.308,0.816,0.529,1.124c0.749,1.235,1.983,2.249,3.703,3.042
		c1.72,0.793,3.77,1.19,6.15,1.19c1.499,0,2.899-0.166,4.2-0.496c1.3-0.331,2.414-0.782,3.34-1.356
		c0.926-0.572,1.653-1.245,2.183-2.017c0.529-0.771,0.793-1.598,0.793-2.48c0-1.763-0.893-3.241-2.678-4.431
		c-1.786-1.19-4.2-1.808-7.242-1.852c-0.354,0-0.728-0.033-1.124-0.099c-0.397-0.066-0.728-0.099-0.992-0.099
		c-1.059-0.043-2.183-0.231-3.373-0.562s-2.282-0.804-3.273-1.422c-0.992-0.617-1.819-1.377-2.48-2.282
		c-0.661-0.903-0.992-1.973-0.992-3.208c0-1.059,0.298-2.039,0.893-2.943c0.596-0.903,1.411-1.697,2.447-2.381
		c1.035-0.683,2.259-1.224,3.671-1.62c1.41-0.397,2.953-0.595,4.629-0.595c2.602,0,4.839,0.43,6.713,1.29s3.251,1.996,4.134,3.406
		l-0.859,0.728c-0.751-1.278-1.996-2.314-3.737-3.108c-1.742-0.793-3.825-1.19-6.25-1.19c-1.544,0-2.954,0.166-4.232,0.496
		c-1.279,0.331-2.381,0.783-3.307,1.356c-0.926,0.573-1.653,1.256-2.183,2.05c-0.529,0.793-0.794,1.631-0.794,2.513
		c0,0.882,0.254,1.698,0.761,2.447c0.507,0.75,1.224,1.412,2.149,1.984c0.926,0.573,2.018,1.025,3.273,1.355
		c1.257,0.331,2.635,0.519,4.134,0.562c0.882,0.044,1.774,0.11,2.679,0.198c0.903,0.089,1.687,0.221,2.348,0.397
		c2.249,0.618,3.957,1.543,5.126,2.777C1255.73,201.135,1256.315,202.546,1256.315,204.133z"/>
	<path fill="#C2BCC3" stroke="#C2BCC3" stroke-miterlimit="10" d="M1289.582,206.845l0.859,0.794
		c-1.279,1.19-2.756,2.127-4.431,2.811c-1.676,0.684-3.462,1.025-5.357,1.025c-1.983,0-3.847-0.375-5.588-1.125
		c-1.742-0.749-3.274-1.786-4.597-3.108s-2.359-2.854-3.108-4.597c-0.75-1.741-1.124-3.604-1.124-5.588
		c0-1.984,0.374-3.846,1.124-5.588c0.749-1.741,1.786-3.274,3.108-4.597s2.854-2.358,4.597-3.108
		c1.741-0.749,3.604-1.124,5.588-1.124c1.896,0,3.682,0.342,5.357,1.025c1.675,0.684,3.151,1.621,4.431,2.811l-0.859,0.793
		c-1.146-1.058-2.491-1.907-4.034-2.546c-1.544-0.639-3.175-0.959-4.895-0.959c-1.852,0-3.582,0.354-5.191,1.058
		c-1.61,0.706-3.009,1.665-4.199,2.877c-1.19,1.213-2.14,2.624-2.844,4.233c-0.706,1.61-1.059,3.318-1.059,5.125
		c0,1.852,0.353,3.583,1.059,5.192c0.704,1.61,1.653,3.009,2.844,4.2s2.589,2.139,4.199,2.844c1.609,0.706,3.34,1.058,5.191,1.058
		c1.72,0,3.351-0.308,4.895-0.926C1287.091,208.807,1288.436,207.947,1289.582,206.845z"/>
	<path fill="#C2BCC3" stroke="#C2BCC3" stroke-miterlimit="10" d="M1310.48,182.705v1.125c-1.852,0.089-3.583,0.519-5.191,1.29
		c-1.61,0.772-2.988,1.797-4.134,3.075v23.346h-1.124v-28.901h1.124v3.902c1.233-1.146,2.646-2.05,4.232-2.711
		C1306.976,183.168,1308.672,182.794,1310.48,182.705z"/>
	<path fill="#C2BCC3" stroke="#C2BCC3" stroke-miterlimit="10" d="M1320.466,176.621c0,0.486-0.165,0.893-0.496,1.224
		c-0.33,0.331-0.738,0.496-1.224,0.496s-0.893-0.166-1.223-0.496c-0.331-0.331-0.496-0.738-0.496-1.224
		c0-0.485,0.165-0.893,0.496-1.224c0.33-0.331,0.737-0.496,1.223-0.496s0.894,0.166,1.224,0.496
		C1320.301,175.728,1320.466,176.136,1320.466,176.621z M1319.474,211.541h-1.19v-28.901h1.19V211.541z"/>
	<path fill="#C2BCC3" stroke="#C2BCC3" stroke-miterlimit="10" d="M1342.291,182.573c1.984,0,3.857,0.375,5.622,1.125
		c1.763,0.75,3.307,1.786,4.629,3.108c1.323,1.323,2.37,2.867,3.142,4.629c0.771,1.764,1.157,3.638,1.157,5.622
		c0,1.984-0.386,3.859-1.157,5.622c-0.771,1.764-1.818,3.285-3.142,4.563c-1.322,1.279-2.866,2.293-4.629,3.042
		c-1.765,0.75-3.638,1.124-5.622,1.124c-1.896,0-3.693-0.341-5.39-1.025c-1.698-0.683-3.187-1.642-4.465-2.877v17.328h-1.19v-42.195
		h1.19v3.836c1.278-1.19,2.767-2.138,4.465-2.844C1338.598,182.926,1340.395,182.573,1342.291,182.573z M1342.291,210.218
		c1.852,0,3.593-0.341,5.225-1.025c1.631-0.683,3.043-1.609,4.233-2.778c1.19-1.168,2.138-2.557,2.844-4.167
		c0.704-1.609,1.058-3.34,1.058-5.192c0-1.852-0.354-3.582-1.058-5.191c-0.706-1.609-1.653-3.009-2.844-4.2
		s-2.603-2.138-4.233-2.844c-1.632-0.705-3.373-1.058-5.225-1.058c-1.984,0-3.814,0.397-5.489,1.19
		c-1.676,0.794-3.131,1.852-4.365,3.175v17.725c1.234,1.367,2.689,2.437,4.365,3.208
		C1338.477,209.833,1340.307,210.218,1342.291,210.218z"/>
	<path fill="#C2BCC3" stroke="#C2BCC3" stroke-miterlimit="10" d="M1366.629,183.697v23.809c0,0.706,0.221,1.323,0.662,1.852
		c0.439,0.529,0.991,0.86,1.653,0.992v1.19c-1.015-0.132-1.853-0.584-2.514-1.356c-0.661-0.771-0.992-1.664-0.992-2.678v-42.261
		h1.19v17.394h6.614v1.058H1366.629z"/>
</g>
<g>
	<path fill="#C2BCC3" stroke="#C2BCC3" stroke-miterlimit="10" d="M1327.974,321.07c0,0.486-0.165,0.893-0.496,1.224
		c-0.33,0.331-0.738,0.496-1.224,0.496s-0.893-0.166-1.223-0.496c-0.331-0.331-0.496-0.738-0.496-1.224
		c0-0.485,0.165-0.893,0.496-1.224c0.33-0.331,0.737-0.496,1.223-0.496s0.894,0.166,1.224,0.496
		C1327.809,320.177,1327.974,320.585,1327.974,321.07z M1326.981,355.99h-1.19v-28.901h1.19V355.99z"/>
	<path fill="#C2BCC3" stroke="#C2BCC3" stroke-miterlimit="10" d="M1364.283,341.704v14.286h-1.19v-14.286
		c0-1.895-0.376-3.704-1.125-5.423c-0.177-0.44-0.419-0.881-0.728-1.323c-1.146-1.984-2.734-3.582-4.762-4.795
		c-2.028-1.212-4.277-1.819-6.746-1.819c-1.983,0-3.813,0.387-5.489,1.158c-1.676,0.771-3.131,1.841-4.364,3.208v23.28h-1.19
		v-28.901h1.19v3.968c1.278-1.191,2.755-2.138,4.431-2.844c1.675-0.705,3.482-1.058,5.423-1.058c1.278,0,2.547,0.188,3.804,0.562
		c1.256,0.375,2.446,0.893,3.571,1.554c1.124,0.662,2.159,1.478,3.108,2.447c0.947,0.97,1.752,2.05,2.413,3.241l0.464,1.058
		c0.352,0.882,0.639,1.797,0.859,2.745C1364.172,339.71,1364.283,340.69,1364.283,341.704z"/>
	<path fill="#C2BCC3" stroke="#C2BCC3" stroke-miterlimit="10" d="M1388.025,327.088c1.896,0,3.681,0.342,5.356,1.025
		c1.676,0.684,3.152,1.643,4.432,2.877v-24.074h1.19v49.073h-1.19v-3.902c-1.279,1.19-2.756,2.127-4.432,2.811
		c-1.676,0.684-3.461,1.025-5.356,1.025c-1.984,0-3.848-0.375-5.589-1.125c-1.742-0.749-3.273-1.786-4.597-3.108
		c-1.322-1.323-2.358-2.854-3.108-4.597c-0.75-1.741-1.124-3.604-1.124-5.588c0-1.984,0.374-3.846,1.124-5.588
		c0.75-1.741,1.786-3.274,3.108-4.597c1.323-1.323,2.854-2.358,4.597-3.108C1384.178,327.463,1386.041,327.088,1388.025,327.088z
		 M1388.025,354.799c1.984,0,3.813-0.397,5.489-1.19c1.675-0.793,3.108-1.852,4.299-3.175v-17.856
		c-1.19-1.323-2.624-2.37-4.299-3.142c-1.676-0.771-3.505-1.157-5.489-1.157c-1.852,0-3.583,0.354-5.191,1.058
		c-1.61,0.706-3.01,1.653-4.2,2.844s-2.139,2.591-2.844,4.2c-0.706,1.61-1.059,3.318-1.059,5.125c0,1.852,0.353,3.583,1.059,5.192
		c0.705,1.61,1.653,3.009,2.844,4.2s2.59,2.139,4.2,2.844C1384.442,354.447,1386.174,354.799,1388.025,354.799z"/>
	<path fill="#C2BCC3" stroke="#C2BCC3" stroke-miterlimit="10" d="M1423.011,354.799c1.72,0,3.351-0.308,4.895-0.926
		c1.543-0.617,2.887-1.477,4.034-2.58l0.859,0.794c-1.279,1.19-2.756,2.127-4.431,2.811c-1.677,0.684-3.462,1.025-5.357,1.025
		c-1.896,0-3.682-0.341-5.356-1.025c-1.677-0.683-3.153-1.62-4.432-2.811l-0.794-0.794c-1.19-1.278-2.127-2.755-2.811-4.431
		c-0.684-1.675-1.024-3.46-1.024-5.357c0-1.984,0.374-3.846,1.124-5.588c0.749-1.741,1.785-3.274,3.108-4.597
		c1.322-1.323,2.854-2.358,4.597-3.108c1.741-0.749,3.604-1.124,5.588-1.124c1.896,0,3.681,0.342,5.357,1.025
		c1.675,0.684,3.151,1.621,4.431,2.811l0.794,0.793l-19.576,19.576c1.19,1.103,2.557,1.962,4.101,2.58
		C1419.66,354.491,1421.291,354.799,1423.011,354.799z M1409.718,341.506c0,1.72,0.308,3.351,0.926,4.894
		c0.617,1.544,1.477,2.91,2.579,4.101l18.717-18.783c-1.147-1.058-2.491-1.907-4.034-2.546c-1.544-0.639-3.175-0.959-4.895-0.959
		c-1.852,0-3.582,0.354-5.191,1.058c-1.61,0.706-3.009,1.665-4.199,2.877c-1.191,1.213-2.14,2.624-2.845,4.233
		C1410.07,337.99,1409.718,339.699,1409.718,341.506z"/>
	<path fill="#C2BCC3" stroke="#C2BCC3" stroke-miterlimit="10" d="M1466.064,348.583c0,1.058-0.297,2.04-0.893,2.943
		c-0.595,0.904-1.411,1.698-2.447,2.381c-1.036,0.684-2.271,1.224-3.703,1.621c-1.434,0.397-2.987,0.595-4.663,0.595
		c-2.558,0-4.772-0.44-6.646-1.323c-1.874-0.881-3.252-2.027-4.134-3.439c-0.089-0.176-0.176-0.341-0.264-0.496
		c-0.089-0.154-0.177-0.319-0.265-0.496l0.926-0.793c0.132,0.441,0.308,0.816,0.529,1.124c0.749,1.235,1.983,2.249,3.703,3.042
		c1.72,0.793,3.77,1.19,6.15,1.19c1.499,0,2.899-0.166,4.2-0.496c1.3-0.331,2.414-0.782,3.34-1.356
		c0.926-0.572,1.653-1.245,2.183-2.017c0.529-0.771,0.793-1.598,0.793-2.48c0-1.763-0.893-3.241-2.678-4.431
		c-1.786-1.19-4.2-1.808-7.242-1.852c-0.354,0-0.728-0.033-1.124-0.099c-0.397-0.066-0.728-0.099-0.992-0.099
		c-1.059-0.043-2.183-0.231-3.373-0.562s-2.282-0.804-3.273-1.422c-0.992-0.617-1.819-1.377-2.48-2.282
		c-0.661-0.903-0.992-1.973-0.992-3.208c0-1.059,0.298-2.039,0.893-2.943c0.596-0.903,1.411-1.697,2.447-2.381
		c1.035-0.683,2.259-1.224,3.671-1.62c1.41-0.397,2.953-0.595,4.629-0.595c2.602,0,4.839,0.43,6.713,1.29s3.251,1.996,4.134,3.406
		l-0.859,0.728c-0.751-1.278-1.996-2.314-3.737-3.108c-1.742-0.793-3.825-1.19-6.25-1.19c-1.544,0-2.954,0.166-4.232,0.496
		c-1.279,0.331-2.381,0.783-3.307,1.356c-0.926,0.573-1.653,1.256-2.183,2.05c-0.529,0.793-0.794,1.631-0.794,2.513
		c0,0.882,0.254,1.698,0.761,2.447c0.507,0.75,1.224,1.412,2.149,1.984c0.926,0.573,2.018,1.025,3.273,1.355
		c1.257,0.331,2.635,0.519,4.134,0.562c0.882,0.044,1.774,0.11,2.679,0.198c0.903,0.089,1.687,0.221,2.348,0.397
		c2.249,0.618,3.957,1.543,5.126,2.777C1465.479,345.584,1466.064,346.995,1466.064,348.583z"/>
	<path fill="#C2BCC3" stroke="#C2BCC3" stroke-miterlimit="10" d="M1478.498,321.07c0,0.486-0.165,0.893-0.496,1.224
		c-0.33,0.331-0.738,0.496-1.224,0.496s-0.893-0.166-1.223-0.496c-0.331-0.331-0.496-0.738-0.496-1.224
		c0-0.485,0.165-0.893,0.496-1.224c0.33-0.331,0.737-0.496,1.223-0.496s0.894,0.166,1.224,0.496
		C1478.333,320.177,1478.498,320.585,1478.498,321.07z M1477.506,355.99h-1.19v-28.901h1.19V355.99z"/>
	<path fill="#C2BCC3" stroke="#C2BCC3" stroke-miterlimit="10" d="M1513.352,330.99c0.132-0.749,0.341-1.366,0.628-1.852
		c0.286-0.485,0.605-0.86,0.959-1.125c0.353-0.265,0.694-0.452,1.025-0.562c0.33-0.11,0.605-0.187,0.826-0.231v1.124
		c-0.661,0.132-1.213,0.463-1.653,0.992c-0.441,0.529-0.661,1.147-0.661,1.852v33.597l-1.124,1.19
		c-1.279,1.191-2.757,2.127-4.432,2.811c-1.676,0.683-3.462,1.025-5.356,1.025c-1.896,0-3.683-0.342-5.357-1.025
		c-1.676-0.684-3.153-1.62-4.431-2.811l0.793-0.793c1.19,1.102,2.557,1.961,4.101,2.58c1.543,0.617,3.175,0.926,4.895,0.926
		c1.939,0,3.747-0.387,5.423-1.158c1.675-0.771,3.13-1.841,4.365-3.208v-12.169c-1.323,1.147-2.812,2.073-4.465,2.778
		c-1.653,0.706-3.429,1.058-5.323,1.058c-0.222,0-0.441,0-0.662,0s-0.44-0.021-0.661-0.066c-2.248-0.22-4.288-0.882-6.117-1.984
		c-1.83-1.102-3.34-2.535-4.53-4.299l-0.662-1.125c-1.19-2.027-1.785-4.342-1.785-6.944c0-1.984,0.374-3.847,1.124-5.589
		c0.749-1.741,1.786-3.273,3.108-4.596c1.323-1.323,2.854-2.358,4.597-3.108c1.741-0.75,3.604-1.125,5.589-1.125
		c0.439,0,1.047,0.044,1.818,0.132c0.771,0.089,1.598,0.265,2.48,0.529c0.881,0.264,1.796,0.651,2.744,1.157
		C1511.554,329.48,1512.469,330.153,1513.352,330.99z M1513.352,332.644c-1.235-1.323-2.69-2.381-4.365-3.174
		c-1.676-0.794-3.483-1.19-5.423-1.19c-1.853,0-3.583,0.354-5.192,1.058c-1.609,0.706-3.009,1.653-4.199,2.844
		s-2.14,2.591-2.844,4.2c-0.706,1.61-1.059,3.34-1.059,5.192c0,2.073,0.44,3.991,1.323,5.753c0.088,0.221,0.187,0.42,0.297,0.595
		c0.11,0.177,0.231,0.375,0.364,0.595c1.146,1.852,2.679,3.352,4.597,4.498c1.918,1.147,4.067,1.764,6.448,1.852h0.265
		c0.22,0,0.463-0.01,0.728-0.033c0.264-0.022,0.506-0.055,0.728-0.099c1.675-0.176,3.218-0.639,4.629-1.389
		c1.411-0.749,2.646-1.697,3.704-2.844V332.644z"/>
	<path fill="#C2BCC3" stroke="#C2BCC3" stroke-miterlimit="10" d="M1551.579,341.704v14.286h-1.19v-14.286
		c0-1.895-0.376-3.704-1.125-5.423c-0.177-0.44-0.419-0.881-0.728-1.323c-1.146-1.984-2.734-3.582-4.762-4.795
		c-2.028-1.212-4.277-1.819-6.746-1.819c-1.983,0-3.813,0.387-5.489,1.158c-1.676,0.771-3.131,1.841-4.364,3.208v23.28h-1.19
		v-28.901h1.19v3.968c1.278-1.191,2.755-2.138,4.431-2.844c1.675-0.705,3.482-1.058,5.423-1.058c1.278,0,2.547,0.188,3.804,0.562
		c1.256,0.375,2.446,0.893,3.571,1.554c1.124,0.662,2.159,1.478,3.108,2.447c0.947,0.97,1.752,2.05,2.413,3.241l0.464,1.058
		c0.352,0.882,0.639,1.797,0.859,2.745C1551.468,339.71,1551.579,340.69,1551.579,341.704z"/>
</g>
<g>
	<path fill="#C2BCC3" stroke="#C2BCC3" stroke-miterlimit="10" d="M1116.705,698.812c0,0.485-0.165,0.893-0.496,1.224
		c-0.331,0.331-0.739,0.496-1.224,0.496c-0.486,0-0.893-0.165-1.224-0.496s-0.496-0.738-0.496-1.224
		c0-0.484,0.166-0.893,0.496-1.224c0.331-0.33,0.738-0.496,1.224-0.496c0.484,0,0.893,0.166,1.224,0.496
		C1116.54,697.919,1116.705,698.327,1116.705,698.812z M1115.713,733.731h-1.19V704.83h1.19V733.731z"/>
	<path fill="#C2BCC3" stroke="#C2BCC3" stroke-miterlimit="10" d="M1130.792,732.541v1.124c-1.015-0.132-1.852-0.572-2.513-1.322
		c-0.661-0.749-0.992-1.631-0.992-2.646v-45.568h1.19v45.568c0,0.706,0.22,1.322,0.662,1.852
		C1129.579,732.078,1130.131,732.409,1130.792,732.541z"/>
	<path fill="#C2BCC3" stroke="#C2BCC3" stroke-miterlimit="10" d="M1143.292,732.541v1.124c-1.015-0.132-1.852-0.572-2.513-1.322
		c-0.661-0.749-0.992-1.631-0.992-2.646v-45.568h1.19v45.568c0,0.706,0.22,1.322,0.662,1.852
		C1142.078,732.078,1142.63,732.409,1143.292,732.541z"/>
	<path fill="#C2BCC3" stroke="#C2BCC3" stroke-miterlimit="10" d="M1152.55,719.115v-14.219h1.125v14.219
		c0,1.015,0.109,1.963,0.331,2.844c0.22,0.883,0.506,1.765,0.86,2.646c0.088,0.222,0.187,0.43,0.297,0.629
		c0.11,0.198,0.231,0.408,0.364,0.628c1.146,1.984,2.733,3.583,4.762,4.795c2.028,1.213,4.299,1.818,6.812,1.818
		c1.984,0,3.813-0.385,5.49-1.157c1.675-0.771,3.13-1.841,4.365-3.207v-23.214h1.189v28.174h-1.189v-3.307
		c-1.28,1.234-2.768,2.193-4.465,2.877c-1.698,0.684-3.495,1.024-5.39,1.024c-2.602,0-4.971-0.605-7.109-1.818
		c-2.139-1.212-3.847-2.833-5.125-4.861c-0.132-0.176-0.254-0.353-0.364-0.529c-0.111-0.175-0.21-0.374-0.298-0.595l-0.529-1.059
		C1152.924,723.04,1152.55,721.144,1152.55,719.115z"/>
	<path fill="#C2BCC3" stroke="#C2BCC3" stroke-miterlimit="10" d="M1211.609,726.324c0,1.059-0.297,2.04-0.893,2.943
		c-0.595,0.904-1.411,1.697-2.447,2.381s-2.271,1.224-3.703,1.62c-1.434,0.396-2.987,0.595-4.663,0.595
		c-2.558,0-4.772-0.439-6.646-1.322c-1.874-0.882-3.252-2.027-4.134-3.439c-0.089-0.176-0.176-0.341-0.264-0.496
		c-0.089-0.153-0.177-0.319-0.265-0.495l0.926-0.794c0.132,0.441,0.308,0.816,0.529,1.124c0.749,1.235,1.983,2.249,3.703,3.042
		c1.72,0.794,3.77,1.19,6.15,1.19c1.499,0,2.899-0.165,4.2-0.496c1.3-0.33,2.414-0.782,3.34-1.355
		c0.926-0.572,1.653-1.245,2.183-2.017s0.793-1.598,0.793-2.48c0-1.763-0.893-3.24-2.678-4.431c-1.786-1.191-4.2-1.808-7.242-1.853
		c-0.354,0-0.728-0.033-1.124-0.099c-0.397-0.066-0.728-0.1-0.992-0.1c-1.059-0.043-2.183-0.231-3.373-0.562
		c-1.19-0.33-2.282-0.804-3.273-1.422c-0.992-0.616-1.819-1.377-2.48-2.281c-0.661-0.903-0.992-1.973-0.992-3.208
		c0-1.058,0.298-2.038,0.893-2.942c0.596-0.903,1.411-1.697,2.447-2.381c1.035-0.684,2.259-1.224,3.671-1.621
		c1.41-0.396,2.953-0.595,4.629-0.595c2.602,0,4.839,0.43,6.713,1.289c1.874,0.86,3.251,1.996,4.134,3.406l-0.859,0.728
		c-0.751-1.278-1.996-2.314-3.737-3.108c-1.742-0.794-3.825-1.19-6.25-1.19c-1.544,0-2.954,0.165-4.232,0.496
		c-1.279,0.331-2.381,0.783-3.307,1.355c-0.926,0.574-1.653,1.257-2.183,2.051s-0.794,1.632-0.794,2.513
		c0,0.883,0.254,1.698,0.761,2.447c0.507,0.75,1.224,1.412,2.149,1.984c0.926,0.573,2.018,1.025,3.273,1.355
		c1.257,0.331,2.635,0.519,4.134,0.562c0.882,0.044,1.774,0.11,2.679,0.198c0.903,0.089,1.687,0.221,2.348,0.396
		c2.249,0.618,3.957,1.544,5.126,2.778C1211.024,723.326,1211.609,724.737,1211.609,726.324z"/>
	<path fill="#C2BCC3" stroke="#C2BCC3" stroke-miterlimit="10" d="M1223.05,705.888v23.81c0,0.706,0.221,1.322,0.662,1.852
		c0.439,0.529,0.991,0.86,1.653,0.992v1.19c-1.015-0.132-1.853-0.584-2.514-1.355s-0.992-1.664-0.992-2.679v-42.261h1.19v17.394
		h6.614v1.058H1223.05z"/>
	<path fill="#C2BCC3" stroke="#C2BCC3" stroke-miterlimit="10" d="M1245.471,704.896v1.124c-1.852,0.089-3.583,0.519-5.191,1.289
		c-1.61,0.772-2.988,1.798-4.134,3.076v23.346h-1.124V704.83h1.124v3.902c1.233-1.146,2.646-2.051,4.232-2.712
		C1241.966,705.359,1243.662,704.985,1245.471,704.896z"/>
	<path fill="#C2BCC3" stroke="#C2BCC3" stroke-miterlimit="10" d="M1278.075,730.292c0.265,1.235,1.014,1.984,2.248,2.249v1.19
		c-0.793-0.132-1.565-0.529-2.314-1.19c-0.354-0.353-0.628-0.761-0.827-1.224c-0.198-0.463-0.297-0.937-0.297-1.422
		c-1.279,1.19-2.757,2.116-4.432,2.777c-1.676,0.662-3.462,0.992-5.356,0.992c-1.984,0-3.848-0.374-5.589-1.124
		c-1.742-0.749-3.273-1.774-4.597-3.075c-1.322-1.3-2.359-2.821-3.108-4.563c-0.75-1.741-1.124-3.604-1.124-5.589
		c0-1.983,0.374-3.846,1.124-5.588c0.749-1.741,1.786-3.274,3.108-4.597c1.323-1.323,2.854-2.358,4.597-3.108
		c1.741-0.749,3.604-1.124,5.589-1.124c1.895,0,3.681,0.342,5.356,1.024c1.675,0.685,3.152,1.644,4.432,2.877v-3.307h1.19V730.292z
		 M1276.885,710.386c-1.235-1.323-2.69-2.392-4.365-3.208c-1.677-0.815-3.483-1.224-5.423-1.224c-1.853,0-3.583,0.354-5.192,1.059
		s-3.009,1.664-4.199,2.877s-2.14,2.635-2.844,4.266c-0.706,1.632-1.059,3.352-1.059,5.158c0,1.853,0.353,3.583,1.059,5.192
		c0.704,1.609,1.653,3.009,2.844,4.199s2.59,2.128,4.199,2.811c1.609,0.685,3.34,1.025,5.192,1.025c1.939,0,3.746-0.386,5.423-1.157
		c1.675-0.771,3.13-1.819,4.365-3.142V710.386z"/>
	<path fill="#C2BCC3" stroke="#C2BCC3" stroke-miterlimit="10" d="M1289.582,705.888v23.81c0,0.706,0.221,1.322,0.662,1.852
		c0.439,0.529,0.991,0.86,1.653,0.992v1.19c-1.015-0.132-1.853-0.584-2.514-1.355s-0.992-1.664-0.992-2.679v-42.261h1.19v17.394
		h6.614v1.058H1289.582z"/>
	<path fill="#C2BCC3" stroke="#C2BCC3" stroke-miterlimit="10" d="M1314.581,733.731c-1.984,0-3.858-0.386-5.621-1.157
		c-1.765-0.771-3.308-1.819-4.63-3.142s-2.37-2.865-3.142-4.63c-0.771-1.763-1.157-3.637-1.157-5.621s0.386-3.857,1.157-5.622
		c0.771-1.763,1.819-3.307,3.142-4.629c1.322-1.323,2.865-2.358,4.63-3.108c1.763-0.749,3.637-1.125,5.621-1.125
		s3.857,0.376,5.622,1.125c1.763,0.75,3.307,1.785,4.629,3.108c1.323,1.322,2.37,2.866,3.142,4.629
		c0.771,1.765,1.157,3.638,1.157,5.622s-0.386,3.858-1.157,5.621c-0.771,1.765-1.818,3.308-3.142,4.63
		c-1.322,1.322-2.866,2.37-4.629,3.142C1318.438,733.346,1316.565,733.731,1314.581,733.731z M1314.581,705.822
		c-1.852,0-3.594,0.354-5.225,1.058c-1.632,0.706-3.042,1.665-4.232,2.877c-1.19,1.214-2.14,2.624-2.844,4.233
		c-0.706,1.609-1.059,3.34-1.059,5.191s0.353,3.594,1.059,5.225c0.704,1.632,1.653,3.042,2.844,4.232s2.601,2.14,4.232,2.844
		c1.631,0.706,3.373,1.059,5.225,1.059s3.582-0.353,5.191-1.059c1.609-0.704,3.02-1.653,4.233-2.844
		c1.212-1.19,2.171-2.601,2.877-4.232c0.704-1.631,1.058-3.373,1.058-5.225s-0.354-3.582-1.058-5.191
		c-0.706-1.609-1.665-3.02-2.877-4.233c-1.214-1.212-2.624-2.171-4.233-2.877C1318.163,706.176,1316.433,705.822,1314.581,705.822z"
		/>
	<path fill="#C2BCC3" stroke="#C2BCC3" stroke-miterlimit="10" d="M1349.435,704.896v1.124c-1.852,0.089-3.583,0.519-5.191,1.289
		c-1.61,0.772-2.988,1.798-4.134,3.076v23.346h-1.124V704.83h1.124v3.902c1.233-1.146,2.646-2.051,4.232-2.712
		C1345.93,705.359,1347.626,704.985,1349.435,704.896z"/>
</g>
<g>
	<path fill="#C2BCC3" stroke="#C2BCC3" stroke-miterlimit="10" d="M1103.523,468.627c1.984,0,3.858,0.375,5.622,1.125
		c1.763,0.75,3.307,1.786,4.63,3.108c1.322,1.323,2.369,2.867,3.141,4.629c0.771,1.764,1.158,3.638,1.158,5.622
		c0,1.984-0.387,3.859-1.158,5.622c-0.772,1.764-1.819,3.285-3.141,4.563c-1.323,1.279-2.867,2.293-4.63,3.042
		c-1.764,0.75-3.637,1.124-5.622,1.124c-1.896,0-3.693-0.341-5.39-1.025c-1.698-0.683-3.186-1.642-4.464-2.877v17.328h-1.19v-42.195
		h1.19v3.836c1.278-1.19,2.766-2.138,4.464-2.844C1099.83,468.98,1101.627,468.627,1103.523,468.627z M1103.523,496.272
		c1.852,0,3.593-0.341,5.225-1.025c1.63-0.683,3.042-1.609,4.232-2.778c1.19-1.168,2.138-2.557,2.844-4.167
		c0.705-1.609,1.059-3.34,1.059-5.192c0-1.852-0.354-3.582-1.059-5.191c-0.706-1.609-1.653-3.009-2.844-4.2
		s-2.602-2.138-4.232-2.844c-1.632-0.705-3.373-1.058-5.225-1.058c-1.984,0-3.814,0.397-5.489,1.19
		c-1.676,0.794-3.131,1.852-4.365,3.175v17.725c1.234,1.367,2.688,2.437,4.365,3.208
		C1099.709,495.887,1101.54,496.272,1103.523,496.272z"/>
	<path fill="#C2BCC3" stroke="#C2BCC3" stroke-miterlimit="10" d="M1151.935,483.177v14.417h-1.124v-14.417
		c0-1.852-0.354-3.582-1.058-5.192c-0.706-1.609-1.654-3.009-2.844-4.2s-2.59-2.138-4.199-2.844c-1.61-0.705-3.34-1.058-5.192-1.058
		c-1.984,0-3.814,0.386-5.489,1.157c-1.676,0.772-3.108,1.841-4.299,3.208v23.346h-1.19v-49.668h1.19v24.669
		c1.278-1.19,2.755-2.126,4.431-2.811c1.675-0.683,3.46-1.025,5.357-1.025c2.998,0,5.676,0.805,8.036,2.414
		c2.358,1.61,4.111,3.715,5.258,6.316C1151.56,479.253,1151.935,481.149,1151.935,483.177z"/>
	<path fill="#C2BCC3" stroke="#C2BCC3" stroke-miterlimit="10" d="M1174.288,497.595c-1.984,0-3.858-0.385-5.622-1.157
		c-1.764-0.771-3.307-1.819-4.629-3.142s-2.371-2.866-3.142-4.629c-0.772-1.763-1.157-3.638-1.157-5.622
		c0-1.984,0.385-3.858,1.157-5.622c0.771-1.763,1.819-3.307,3.142-4.63s2.866-2.358,4.629-3.108
		c1.763-0.749,3.638-1.124,5.622-1.124c1.984,0,3.857,0.375,5.622,1.124c1.763,0.75,3.307,1.786,4.629,3.108
		c1.323,1.323,2.37,2.867,3.142,4.63c0.771,1.764,1.157,3.637,1.157,5.622c0,1.984-0.386,3.858-1.157,5.622
		c-0.771,1.764-1.818,3.307-3.142,4.629c-1.322,1.323-2.866,2.371-4.629,3.142C1178.146,497.209,1176.272,497.595,1174.288,497.595z
		 M1174.288,469.685c-1.852,0-3.594,0.354-5.225,1.059c-1.632,0.706-3.042,1.665-4.233,2.876c-1.19,1.213-2.139,2.624-2.844,4.233
		c-0.706,1.61-1.058,3.34-1.058,5.192c0,1.852,0.353,3.594,1.058,5.225c0.705,1.632,1.653,3.042,2.844,4.233
		s2.601,2.139,4.233,2.844c1.631,0.706,3.373,1.058,5.225,1.058c1.852,0,3.582-0.353,5.191-1.058
		c1.609-0.705,3.02-1.653,4.233-2.844c1.212-1.19,2.171-2.601,2.877-4.233c0.704-1.631,1.058-3.373,1.058-5.225
		c0-1.852-0.354-3.582-1.058-5.192c-0.706-1.609-1.665-3.02-2.877-4.233c-1.214-1.212-2.624-2.171-4.233-2.876
		C1177.87,470.039,1176.14,469.685,1174.288,469.685z"/>
	<path fill="#C2BCC3" stroke="#C2BCC3" stroke-miterlimit="10" d="M1199.948,469.751v23.809c0,0.706,0.221,1.323,0.662,1.852
		c0.439,0.529,0.991,0.86,1.653,0.992v1.19c-1.015-0.132-1.853-0.584-2.514-1.356c-0.661-0.771-0.992-1.664-0.992-2.678v-42.261
		h1.19v17.394h6.614v1.058H1199.948z"/>
	<path fill="#C2BCC3" stroke="#C2BCC3" stroke-miterlimit="10" d="M1224.948,497.595c-1.984,0-3.858-0.385-5.621-1.157
		c-1.765-0.771-3.308-1.819-4.63-3.142s-2.37-2.866-3.142-4.629c-0.771-1.763-1.157-3.638-1.157-5.622
		c0-1.984,0.386-3.858,1.157-5.622c0.771-1.763,1.819-3.307,3.142-4.63s2.865-2.358,4.63-3.108c1.763-0.749,3.637-1.124,5.621-1.124
		s3.857,0.375,5.622,1.124c1.763,0.75,3.307,1.786,4.629,3.108c1.323,1.323,2.37,2.867,3.142,4.63
		c0.771,1.764,1.157,3.637,1.157,5.622c0,1.984-0.386,3.858-1.157,5.622c-0.771,1.764-1.818,3.307-3.142,4.629
		c-1.322,1.323-2.866,2.371-4.629,3.142C1228.806,497.209,1226.933,497.595,1224.948,497.595z M1224.948,469.685
		c-1.852,0-3.594,0.354-5.225,1.059c-1.632,0.706-3.042,1.665-4.232,2.876c-1.19,1.213-2.14,2.624-2.844,4.233
		c-0.706,1.61-1.059,3.34-1.059,5.192c0,1.852,0.353,3.594,1.059,5.225c0.704,1.632,1.653,3.042,2.844,4.233
		s2.601,2.139,4.232,2.844c1.631,0.706,3.373,1.058,5.225,1.058s3.582-0.353,5.191-1.058c1.609-0.705,3.02-1.653,4.233-2.844
		c1.212-1.19,2.171-2.601,2.877-4.233c0.704-1.631,1.058-3.373,1.058-5.225c0-1.852-0.354-3.582-1.058-5.192
		c-0.706-1.609-1.665-3.02-2.877-4.233c-1.214-1.212-2.624-2.171-4.233-2.876C1228.53,470.039,1226.8,469.685,1224.948,469.685z"/>
	<path fill="#C2BCC3" stroke="#C2BCC3" stroke-miterlimit="10" d="M1272.83,490.188c0,1.058-0.297,2.04-0.893,2.943
		c-0.595,0.904-1.411,1.698-2.447,2.381c-1.036,0.684-2.271,1.224-3.703,1.621c-1.434,0.397-2.987,0.595-4.663,0.595
		c-2.558,0-4.772-0.44-6.646-1.323c-1.874-0.881-3.252-2.027-4.134-3.439c-0.089-0.176-0.176-0.341-0.264-0.496
		c-0.089-0.154-0.177-0.319-0.265-0.496l0.926-0.793c0.132,0.441,0.308,0.816,0.529,1.124c0.749,1.235,1.983,2.249,3.703,3.042
		c1.72,0.793,3.77,1.19,6.15,1.19c1.499,0,2.899-0.166,4.2-0.496c1.3-0.331,2.414-0.782,3.34-1.356
		c0.926-0.572,1.653-1.245,2.183-2.017c0.529-0.771,0.793-1.598,0.793-2.48c0-1.763-0.893-3.241-2.678-4.431
		c-1.786-1.19-4.2-1.808-7.242-1.852c-0.354,0-0.728-0.033-1.124-0.099c-0.397-0.066-0.728-0.099-0.992-0.099
		c-1.059-0.043-2.183-0.231-3.373-0.562s-2.282-0.804-3.273-1.422c-0.992-0.617-1.819-1.377-2.48-2.282
		c-0.661-0.903-0.992-1.973-0.992-3.208c0-1.059,0.298-2.039,0.893-2.943c0.596-0.903,1.411-1.697,2.447-2.381
		c1.035-0.683,2.259-1.224,3.671-1.62c1.41-0.397,2.953-0.595,4.629-0.595c2.602,0,4.839,0.43,6.713,1.29s3.251,1.996,4.134,3.406
		l-0.859,0.728c-0.751-1.278-1.996-2.314-3.737-3.108c-1.742-0.793-3.825-1.19-6.25-1.19c-1.544,0-2.954,0.166-4.232,0.496
		c-1.279,0.331-2.381,0.783-3.307,1.356c-0.926,0.573-1.653,1.256-2.183,2.05c-0.529,0.793-0.794,1.631-0.794,2.513
		c0,0.882,0.254,1.698,0.761,2.447c0.507,0.75,1.224,1.412,2.149,1.984c0.926,0.573,2.018,1.025,3.273,1.355
		c1.257,0.331,2.635,0.519,4.134,0.562c0.882,0.044,1.774,0.11,2.679,0.198c0.903,0.089,1.687,0.221,2.348,0.397
		c2.249,0.618,3.957,1.543,5.126,2.777C1272.245,487.189,1272.83,488.6,1272.83,490.188z"/>
	<path fill="#C2BCC3" stroke="#C2BCC3" stroke-miterlimit="10" d="M1308.345,483.177v14.417h-1.125v-14.417
		c0-1.852-0.354-3.582-1.058-5.192c-0.706-1.609-1.653-3.009-2.844-4.2s-2.591-2.138-4.2-2.844c-1.609-0.705-3.34-1.058-5.191-1.058
		c-1.984,0-3.814,0.386-5.489,1.157c-1.676,0.772-3.108,1.841-4.299,3.208v23.346h-1.19v-49.668h1.19v24.669
		c1.278-1.19,2.755-2.126,4.431-2.811c1.676-0.683,3.461-1.025,5.357-1.025c2.998,0,5.677,0.805,8.035,2.414
		c2.358,1.61,4.111,3.715,5.258,6.316C1307.97,479.253,1308.345,481.149,1308.345,483.177z"/>
	<path fill="#C2BCC3" stroke="#C2BCC3" stroke-miterlimit="10" d="M1330.697,497.595c-1.984,0-3.858-0.385-5.621-1.157
		c-1.765-0.771-3.308-1.819-4.63-3.142s-2.37-2.866-3.142-4.629c-0.771-1.763-1.157-3.638-1.157-5.622
		c0-1.984,0.386-3.858,1.157-5.622c0.771-1.763,1.819-3.307,3.142-4.63s2.865-2.358,4.63-3.108c1.763-0.749,3.637-1.124,5.621-1.124
		s3.857,0.375,5.622,1.124c1.763,0.75,3.307,1.786,4.629,3.108c1.323,1.323,2.37,2.867,3.142,4.63
		c0.771,1.764,1.157,3.637,1.157,5.622c0,1.984-0.386,3.858-1.157,5.622c-0.771,1.764-1.818,3.307-3.142,4.629
		c-1.322,1.323-2.866,2.371-4.629,3.142C1334.555,497.209,1332.682,497.595,1330.697,497.595z M1330.697,469.685
		c-1.852,0-3.594,0.354-5.225,1.059c-1.632,0.706-3.042,1.665-4.232,2.876c-1.19,1.213-2.14,2.624-2.844,4.233
		c-0.706,1.61-1.059,3.34-1.059,5.192c0,1.852,0.353,3.594,1.059,5.225c0.704,1.632,1.653,3.042,2.844,4.233
		s2.601,2.139,4.232,2.844c1.631,0.706,3.373,1.058,5.225,1.058s3.582-0.353,5.191-1.058c1.609-0.705,3.02-1.653,4.233-2.844
		c1.212-1.19,2.171-2.601,2.877-4.233c0.704-1.631,1.058-3.373,1.058-5.225c0-1.852-0.354-3.582-1.058-5.192
		c-0.706-1.609-1.665-3.02-2.877-4.233c-1.214-1.212-2.624-2.171-4.233-2.876C1334.279,470.039,1332.549,469.685,1330.697,469.685z"
		/>
	<path fill="#C2BCC3" stroke="#C2BCC3" stroke-miterlimit="10" d="M1366.212,468.627c1.984,0,3.857,0.375,5.622,1.125
		c1.763,0.75,3.307,1.786,4.629,3.108c1.323,1.323,2.37,2.867,3.142,4.629c0.771,1.764,1.157,3.638,1.157,5.622
		c0,1.984-0.386,3.859-1.157,5.622c-0.771,1.764-1.818,3.285-3.142,4.563c-1.322,1.279-2.866,2.293-4.629,3.042
		c-1.765,0.75-3.638,1.124-5.622,1.124c-1.896,0-3.693-0.341-5.39-1.025c-1.698-0.683-3.187-1.642-4.465-2.877v17.328h-1.19v-42.195
		h1.19v3.836c1.278-1.19,2.767-2.138,4.465-2.844C1362.519,468.98,1364.315,468.627,1366.212,468.627z M1366.212,496.272
		c1.852,0,3.593-0.341,5.225-1.025c1.631-0.683,3.043-1.609,4.233-2.778c1.19-1.168,2.138-2.557,2.844-4.167
		c0.704-1.609,1.058-3.34,1.058-5.192c0-1.852-0.354-3.582-1.058-5.191c-0.706-1.609-1.653-3.009-2.844-4.2
		s-2.603-2.138-4.233-2.844c-1.632-0.705-3.373-1.058-5.225-1.058c-1.984,0-3.814,0.397-5.489,1.19
		c-1.676,0.794-3.131,1.852-4.365,3.175v17.725c1.234,1.367,2.689,2.437,4.365,3.208
		C1362.397,495.887,1364.228,496.272,1366.212,496.272z"/>
</g>
<g>
</g>
<g>
</g>
<g>
</g>
<g>
</g>
<g>
</g>
<g>
</g>
</svg>
