<?xml version="1.0" encoding="utf-8"?>
<!-- Generator: Adobe Illustrator 16.0.0, SVG Export Plug-In . SVG Version: 6.00 Build 0)  -->
<!DOCTYPE svg PUBLIC "-//W3C//DTD SVG 1.1//EN" "http://www.w3.org/Graphics/SVG/1.1/DTD/svg11.dtd">
<svg version="1.1" id="Layer_1" xmlns="http://www.w3.org/2000/svg" xmlns:xlink="http://www.w3.org/1999/xlink" x="0px" y="0px"
	 width="2269.247px" height="1216.238px" viewBox="0 0 2269.247 1216.238" enable-background="new 0 0 2269.247 1216.238"
	 xml:space="preserve">
<image overflow="visible" width="1047" height="1179" xlink:href="../../../../rock.png"  transform="matrix(1 0 0 1 1170.4941 18.6191)">
</image>
<g>
	<g>
		
			<line fill="none" stroke="#231F20" stroke-width="7.633" stroke-miterlimit="10" x1="75.558" y1="627.921" x2="89.938" y2="627.921"/>
		
			<line fill="none" stroke="#231F20" stroke-width="7.633" stroke-miterlimit="10" stroke-dasharray="26.7925,26.7925,26.7925,26.7925" x1="116.729" y1="627.921" x2="210.503" y2="627.921"/>
		
			<line fill="none" stroke="#231F20" stroke-width="7.633" stroke-miterlimit="10" stroke-dasharray="26.7925,26.7925,26.7925,26.7925,26.7925,26.7925" x1="223.899" y1="627.921" x2="1175.033" y2="627.921"/>
		
			<line fill="none" stroke="#231F20" stroke-width="7.633" stroke-miterlimit="10" x1="1188.43" y1="627.921" x2="1202.809" y2="627.921"/>
	</g>
</g>
<g>
	<path fill="#231F20" stroke="#231F20" stroke-width="1.3045" stroke-miterlimit="10" d="M1863.807,836.286v18.808h-1.468v-18.808
		c0-2.416-0.461-4.672-1.38-6.773c-0.921-2.099-2.157-3.925-3.71-5.479c-1.553-1.553-3.38-2.789-5.479-3.709
		c-2.101-0.919-4.355-1.38-6.771-1.38c-2.588,0-4.977,0.504-7.161,1.51c-2.187,1.007-4.055,2.402-5.606,4.184v30.455h-1.554v-64.792
		h1.554v32.181c1.666-1.554,3.594-2.774,5.779-3.667c2.187-0.892,4.516-1.337,6.988-1.337c3.91,0,7.404,1.05,10.482,3.148
		c3.076,2.102,5.361,4.846,6.857,8.239C1863.316,831.167,1863.807,833.641,1863.807,836.286z"/>
	<path fill="#231F20" stroke="#231F20" stroke-width="1.3045" stroke-miterlimit="10" d="M1877.609,818.771v31.06
		c0,0.921,0.287,1.726,0.861,2.416s1.295,1.122,2.157,1.294v1.553c-1.323-0.172-2.416-0.762-3.278-1.769
		c-0.863-1.006-1.295-2.17-1.295-3.494v-55.129h1.555v22.689h8.627v1.38H1877.609z"/>
	<path fill="#231F20" stroke="#231F20" stroke-width="1.3045" stroke-miterlimit="10" d="M1958.104,836.458v18.635h-1.468v-18.635
		c0-2.416-0.461-4.672-1.381-6.772c-0.921-2.099-2.172-3.938-3.753-5.521c-1.582-1.582-3.438-2.833-5.564-3.753
		c-2.129-0.919-4.399-1.38-6.814-1.38c-2.589,0-5.034,0.576-7.334,1.726c-2.301,1.151-4.658,3.106-7.074,5.867l-0.604,1.035
		c0.113,0.23,0.215,0.461,0.302,0.689c0.086,0.23,0.187,0.461,0.302,0.69c1.035,2.243,1.553,4.717,1.553,7.419v18.635h-1.553
		v-18.635c0-2.472-0.488-4.832-1.467-7.075c-0.116-0.287-0.245-0.573-0.388-0.862c-0.146-0.287-0.304-0.574-0.476-0.863
		c-1.496-2.588-3.566-4.672-6.212-6.255c-2.646-1.581-5.608-2.373-8.887-2.373c-2.588,0-4.976,0.504-7.16,1.51
		c-2.187,1.007-4.085,2.402-5.694,4.185v30.368h-1.553v-37.702h1.553v5.178c1.668-1.553,3.608-2.789,5.823-3.71
		c2.214-0.919,4.558-1.38,7.031-1.38c3.394,0,6.483,0.792,9.274,2.373c2.789,1.582,5.018,3.695,6.687,6.341
		c0.229-0.346,0.46-0.69,0.69-1.036c0.229-0.345,0.488-0.69,0.775-1.035l1.553-1.553c1.668-1.553,3.608-2.789,5.823-3.71
		c2.214-0.919,4.56-1.38,7.032-1.38c3.968,0,7.506,1.064,10.611,3.191c3.104,2.128,5.404,4.917,6.901,8.369
		C1957.612,831.34,1958.104,833.812,1958.104,836.458z"/>
	<path fill="#231F20" stroke="#231F20" stroke-width="1.3045" stroke-miterlimit="10" d="M1974.839,853.541v1.466
		c-1.323-0.172-2.416-0.747-3.278-1.725c-0.863-0.979-1.295-2.127-1.295-3.451v-59.443h1.553v59.443
		c0,0.921,0.289,1.726,0.863,2.416S1973.977,853.368,1974.839,853.541z"/>
</g>
<g>
	<path fill="#231F20" stroke="#231F20" stroke-width="1.3045" stroke-miterlimit="10" d="M1393.551,848.968l1.122,1.035
		c-1.669,1.553-3.595,2.776-5.78,3.667c-2.187,0.893-4.516,1.337-6.987,1.337c-2.589,0-5.02-0.488-7.291-1.466
		c-2.272-0.979-4.271-2.33-5.996-4.055c-1.726-1.727-3.078-3.724-4.056-5.996c-0.979-2.271-1.467-4.702-1.467-7.29
		s0.488-5.019,1.467-7.291c0.978-2.271,2.33-4.271,4.056-5.996s3.724-3.076,5.996-4.055c2.271-0.979,4.702-1.468,7.291-1.468
		c2.472,0,4.802,0.446,6.987,1.338c2.186,0.893,4.111,2.113,5.78,3.666l-1.122,1.036c-1.497-1.38-3.25-2.486-5.263-3.321
		c-2.014-0.833-4.141-1.251-6.384-1.251c-2.416,0-4.674,0.461-6.773,1.38c-2.1,0.921-3.925,2.172-5.478,3.753
		c-1.554,1.583-2.791,3.423-3.71,5.521c-0.921,2.102-1.38,4.329-1.38,6.688c0,2.416,0.459,4.673,1.38,6.771
		c0.919,2.101,2.156,3.926,3.71,5.479c1.553,1.553,3.378,2.791,5.478,3.71c2.1,0.92,4.357,1.38,6.773,1.38
		c2.243,0,4.37-0.402,6.384-1.208C1390.301,851.528,1392.055,850.407,1393.551,848.968z"/>
	<path fill="#231F20" stroke="#231F20" stroke-width="1.3045" stroke-miterlimit="10" d="M1437.809,845.431
		c0,1.38-0.388,2.661-1.165,3.839c-0.776,1.181-1.842,2.216-3.191,3.106c-1.353,0.894-2.963,1.596-4.832,2.114
		c-1.87,0.518-3.897,0.775-6.082,0.775c-3.336,0-6.228-0.573-8.671-1.725c-2.445-1.15-4.242-2.645-5.393-4.486
		c-0.115-0.229-0.229-0.444-0.345-0.646c-0.116-0.201-0.231-0.417-0.345-0.647l1.208-1.034c0.173,0.575,0.401,1.064,0.689,1.467
		c0.979,1.61,2.588,2.933,4.832,3.969c2.243,1.035,4.917,1.553,8.023,1.553c1.955,0,3.78-0.216,5.479-0.646
		c1.696-0.433,3.149-1.021,4.357-1.77c1.208-0.747,2.157-1.625,2.847-2.631c0.69-1.006,1.036-2.084,1.036-3.234
		c0-2.301-1.165-4.229-3.494-5.781c-2.33-1.553-5.479-2.357-9.446-2.416c-0.462,0-0.949-0.043-1.468-0.129
		c-0.518-0.086-0.948-0.129-1.294-0.129c-1.38-0.058-2.847-0.303-4.399-0.733c-1.554-0.431-2.978-1.049-4.271-1.854
		s-2.373-1.798-3.235-2.977c-0.862-1.178-1.293-2.574-1.293-4.185c0-1.38,0.388-2.66,1.164-3.839s1.841-2.214,3.192-3.106
		c1.351-0.891,2.947-1.596,4.788-2.113c1.84-0.518,3.854-0.776,6.04-0.776c3.393,0,6.312,0.561,8.757,1.683
		c2.444,1.122,4.241,2.603,5.393,4.443l-1.122,0.948c-0.979-1.667-2.604-3.02-4.875-4.055c-2.273-1.035-4.99-1.553-8.153-1.553
		c-2.014,0-3.854,0.216-5.521,0.646c-1.668,0.433-3.105,1.022-4.313,1.77c-1.208,0.749-2.157,1.639-2.847,2.675
		c-0.69,1.035-1.035,2.128-1.035,3.278s0.33,2.215,0.992,3.191c0.66,0.979,1.596,1.841,2.804,2.588
		c1.208,0.749,2.631,1.337,4.271,1.77c1.64,0.432,3.437,0.677,5.393,0.732c1.149,0.059,2.313,0.146,3.494,0.26
		c1.178,0.115,2.199,0.289,3.062,0.518c2.934,0.806,5.162,2.014,6.687,3.623C1437.046,841.521,1437.809,843.36,1437.809,845.431z"/>
	<path fill="#231F20" stroke="#231F20" stroke-width="1.3045" stroke-miterlimit="10" d="M1481.722,845.431
		c0,1.38-0.388,2.661-1.165,3.839c-0.776,1.181-1.842,2.216-3.191,3.106c-1.353,0.894-2.963,1.596-4.832,2.114
		c-1.87,0.518-3.897,0.775-6.082,0.775c-3.336,0-6.228-0.573-8.671-1.725c-2.445-1.15-4.242-2.645-5.393-4.486
		c-0.116-0.229-0.229-0.444-0.345-0.646c-0.116-0.201-0.23-0.417-0.345-0.647l1.208-1.034c0.173,0.575,0.401,1.064,0.689,1.467
		c0.979,1.61,2.588,2.933,4.832,3.969c2.243,1.035,4.917,1.553,8.023,1.553c1.955,0,3.781-0.216,5.479-0.646
		c1.696-0.433,3.149-1.021,4.357-1.77c1.208-0.747,2.157-1.625,2.847-2.631c0.69-1.006,1.036-2.084,1.036-3.234
		c0-2.301-1.165-4.229-3.494-5.781c-2.33-1.553-5.479-2.357-9.447-2.416c-0.461,0-0.948-0.043-1.467-0.129
		c-0.518-0.086-0.949-0.129-1.294-0.129c-1.38-0.058-2.847-0.303-4.399-0.733c-1.554-0.431-2.978-1.049-4.271-1.854
		s-2.373-1.798-3.234-2.977c-0.863-1.178-1.295-2.574-1.295-4.185c0-1.38,0.389-2.66,1.166-3.839
		c0.775-1.179,1.84-2.214,3.191-3.106c1.352-0.891,2.947-1.596,4.788-2.113c1.84-0.518,3.853-0.776,6.04-0.776
		c3.393,0,6.312,0.561,8.757,1.683s4.241,2.603,5.392,4.443l-1.121,0.948c-0.979-1.667-2.604-3.02-4.875-4.055
		c-2.273-1.035-4.99-1.553-8.153-1.553c-2.014,0-3.854,0.216-5.521,0.646c-1.67,0.433-3.106,1.022-4.314,1.77
		c-1.208,0.749-2.157,1.639-2.847,2.675c-0.69,1.035-1.035,2.128-1.035,3.278s0.33,2.215,0.991,3.191
		c0.661,0.979,1.597,1.841,2.805,2.588c1.208,0.749,2.631,1.337,4.271,1.77c1.64,0.432,3.437,0.677,5.393,0.732
		c1.149,0.059,2.313,0.146,3.493,0.26c1.179,0.115,2.2,0.289,3.062,0.518c2.934,0.806,5.162,2.014,6.688,3.623
		C1480.958,841.521,1481.722,843.36,1481.722,845.431z"/>
</g>
<g>
	<path fill="#231F20" stroke="#231F20" stroke-width="1.3045" stroke-miterlimit="10" d="M1317.322,482.906v36.32
		c0,2.53-0.475,4.918-1.423,7.161c-0.949,2.243-2.243,4.212-3.882,5.91c-1.64,1.696-3.552,3.062-5.737,4.099
		c-2.186,1.034-4.543,1.58-7.075,1.639v-1.467c2.301-0.116,4.458-0.647,6.471-1.597c2.015-0.948,3.768-2.2,5.264-3.753
		c1.494-1.553,2.675-3.351,3.537-5.392c0.863-2.042,1.294-4.242,1.294-6.601v-36.32H1317.322z M1318.444,475.142
		c0,0.634-0.216,1.165-0.647,1.597c-0.431,0.432-0.964,0.646-1.596,0.646c-0.633,0-1.165-0.215-1.596-0.646
		c-0.433-0.432-0.647-0.962-0.647-1.597c0-0.632,0.216-1.165,0.647-1.596c0.431-0.432,0.962-0.646,1.596-0.646
		c0.632,0,1.165,0.215,1.596,0.646C1318.229,473.977,1318.444,474.509,1318.444,475.142z"/>
	<path fill="#231F20" stroke="#231F20" stroke-width="1.3045" stroke-miterlimit="10" d="M1384.271,490.412
		c0,4.312-0.705,8.325-2.114,12.035c-1.41,3.71-3.379,6.944-5.91,9.706l7.506,7.851h-1.984l-6.557-6.814
		c-2.243,2.301-4.788,4.098-7.635,5.392c-2.848,1.294-5.91,1.941-9.188,1.941c-3.624,0-7.003-0.79-10.137-2.373
		c-3.135-1.582-5.881-3.725-8.239-6.429c-2.358-2.703-4.214-5.895-5.563-9.575c-1.353-3.681-2.028-7.593-2.028-11.733
		s0.676-8.052,2.028-11.733c1.351-3.68,3.206-6.873,5.563-9.577c2.358-2.702,5.104-4.845,8.239-6.427
		c3.134-1.582,6.514-2.373,10.137-2.373c3.566,0,6.916,0.791,10.051,2.373c3.135,1.583,5.881,3.726,8.239,6.427
		c2.357,2.704,4.212,5.896,5.564,9.577C1383.594,482.36,1384.271,486.271,1384.271,490.412z M1358.388,519.142
		c3.048,0,5.923-0.617,8.627-1.854c2.703-1.236,5.119-2.947,7.247-5.133l-8.022-8.369h1.897l7.075,7.333
		c2.416-2.588,4.284-5.651,5.608-9.188c1.321-3.536,1.983-7.376,1.983-11.518c0-3.969-0.646-7.692-1.94-11.173
		c-1.295-3.479-3.034-6.515-5.221-9.103s-4.773-4.644-7.765-6.168c-2.991-1.522-6.155-2.286-9.49-2.286
		c-3.394,0-6.586,0.764-9.576,2.286c-2.991,1.525-5.595,3.581-7.808,6.168c-2.215,2.588-3.969,5.623-5.263,9.103
		c-1.294,3.48-1.941,7.204-1.941,11.173c0,3.968,0.647,7.693,1.941,11.172c1.294,3.48,3.048,6.529,5.263,9.146
		c2.213,2.617,4.816,4.674,7.808,6.169C1351.802,518.395,1354.994,519.142,1358.388,519.142z"/>
	<path fill="#231F20" stroke="#231F20" stroke-width="1.3045" stroke-miterlimit="10" d="M1399.368,501.627v-18.549h1.467v18.549
		c0,1.324,0.144,2.561,0.431,3.71c0.288,1.151,0.661,2.301,1.122,3.451c0.115,0.289,0.244,0.561,0.39,0.819
		c0.143,0.259,0.302,0.532,0.474,0.819c1.495,2.588,3.566,4.673,6.212,6.255c2.646,1.583,5.608,2.373,8.887,2.373
		c2.588,0,4.974-0.503,7.16-1.51c2.187-1.006,4.083-2.401,5.694-4.185v-30.282h1.553v36.753h-1.553v-4.313
		c-1.669,1.611-3.61,2.862-5.824,3.754c-2.215,0.892-4.559,1.337-7.03,1.337c-3.395,0-6.485-0.79-9.274-2.373
		c-2.791-1.581-5.02-3.695-6.688-6.342c-0.172-0.229-0.332-0.46-0.474-0.689c-0.145-0.229-0.274-0.488-0.388-0.776l-0.69-1.38
		C1399.855,506.748,1399.368,504.274,1399.368,501.627z"/>
	<path fill="#231F20" stroke="#231F20" stroke-width="1.3045" stroke-miterlimit="10" d="M1463.988,519.142
		c2.243,0,4.37-0.401,6.384-1.208c2.013-0.805,3.766-1.926,5.263-3.364l1.122,1.034c-1.669,1.554-3.595,2.776-5.78,3.668
		c-2.187,0.892-4.516,1.337-6.987,1.337c-2.475,0-4.804-0.445-6.988-1.337c-2.188-0.892-4.113-2.114-5.781-3.668l-1.035-1.034
		c-1.553-1.667-2.774-3.595-3.667-5.78s-1.337-4.515-1.337-6.988c0-2.588,0.488-5.018,1.467-7.291
		c0.978-2.271,2.329-4.271,4.056-5.996c1.726-1.725,3.724-3.075,5.996-4.055c2.271-0.978,4.701-1.467,7.291-1.467
		c2.472,0,4.802,0.446,6.987,1.337c2.186,0.893,4.111,2.114,5.78,3.667l1.035,1.036l-25.537,25.537
		c1.553,1.438,3.335,2.56,5.35,3.364C1459.616,518.74,1461.745,519.142,1463.988,519.142z M1446.646,501.8
		c0,2.243,0.401,4.372,1.207,6.384c0.806,2.015,1.928,3.797,3.365,5.35l24.416-24.502c-1.497-1.38-3.25-2.487-5.263-3.322
		c-2.014-0.833-4.141-1.251-6.384-1.251c-2.416,0-4.674,0.461-6.773,1.38c-2.1,0.921-3.925,2.172-5.478,3.753
		c-1.554,1.583-2.791,3.423-3.71,5.521C1447.105,497.214,1446.646,499.442,1446.646,501.8z"/>
	<path fill="#231F20" stroke="#231F20" stroke-width="1.3045" stroke-miterlimit="10" d="M1503.155,483.079v1.467
		c-2.416,0.116-4.674,0.677-6.772,1.683c-2.101,1.007-3.896,2.344-5.392,4.012v30.455h-1.467v-37.702h1.467v5.09
		c1.608-1.495,3.451-2.674,5.521-3.537C1498.583,483.683,1500.796,483.194,1503.155,483.079z"/>
	<path fill="#231F20" stroke="#231F20" stroke-width="1.3045" stroke-miterlimit="10" d="M1550.433,483.079l-22.604,46.071
		c-0.116,0.229-0.231,0.444-0.345,0.646c-0.116,0.201-0.23,0.388-0.346,0.562c-0.862,1.667-2.215,2.645-4.055,2.934
		c-0.173,0.057-0.432,0.086-0.777,0.086c-0.287,0-0.518-0.029-0.689-0.086v-1.553c0.115,0.057,0.345,0.086,0.689,0.086
		c0.346,0,0.604-0.03,0.777-0.086c0.747-0.116,1.409-0.446,1.984-0.992c0.574-0.547,1.178-1.481,1.812-2.804l3.71-7.938
		l-18.118-36.925h1.727l17.255,35.2l17.255-35.2L1550.433,483.079L1550.433,483.079z"/>
</g>
<g>
	<path fill="#231F20" stroke="#231F20" stroke-width="1.3045" stroke-miterlimit="10" d="M1533.008,284.694v36.321
		c0,2.53-0.474,4.918-1.423,7.161s-2.243,4.212-3.882,5.91c-1.639,1.696-3.551,3.062-5.737,4.098
		c-2.185,1.035-4.543,1.581-7.075,1.64v-1.467c2.302-0.116,4.459-0.647,6.472-1.597c2.014-0.949,3.767-2.2,5.263-3.753
		c1.495-1.553,2.675-3.351,3.538-5.392c0.863-2.042,1.294-4.242,1.294-6.601v-36.321H1533.008L1533.008,284.694z M1534.129,276.93
		c0,0.633-0.215,1.165-0.646,1.596c-0.432,0.432-0.965,0.647-1.597,0.647c-0.633,0-1.165-0.215-1.596-0.647
		c-0.432-0.431-0.646-0.962-0.646-1.596c0-0.632,0.216-1.165,0.646-1.596c0.431-0.432,0.962-0.647,1.596-0.647
		c0.632,0,1.165,0.215,1.597,0.647C1533.914,275.765,1534.129,276.297,1534.129,276.93z"/>
	<path fill="#231F20" stroke="#231F20" stroke-width="1.3045" stroke-miterlimit="10" d="M1580.976,317.996
		c0.346,1.611,1.323,2.588,2.935,2.934v1.554c-1.035-0.173-2.042-0.69-3.021-1.554c-0.461-0.46-0.819-0.992-1.079-1.596
		c-0.259-0.604-0.388-1.221-0.388-1.855c-1.669,1.554-3.595,2.762-5.78,3.624c-2.187,0.863-4.516,1.294-6.987,1.294
		c-2.589,0-5.02-0.487-7.29-1.466c-2.273-0.978-4.271-2.314-5.996-4.012c-1.727-1.696-3.078-3.68-4.056-5.953
		c-0.979-2.271-1.467-4.702-1.467-7.29s0.488-5.018,1.467-7.291c0.979-2.271,2.33-4.271,4.056-5.996
		c1.725-1.726,3.723-3.076,5.996-4.055c2.271-0.978,4.701-1.467,7.29-1.467c2.472,0,4.802,0.446,6.987,1.337
		c2.186,0.892,4.111,2.143,5.78,3.753v-4.314h1.553V317.996z M1579.423,292.027c-1.61-1.726-3.509-3.119-5.694-4.184
		c-2.187-1.062-4.543-1.596-7.074-1.596c-2.416,0-4.674,0.461-6.772,1.38c-2.101,0.921-3.926,2.172-5.479,3.753
		c-1.554,1.583-2.791,3.438-3.71,5.565c-0.92,2.128-1.38,4.372-1.38,6.729c0,2.416,0.46,4.673,1.38,6.772
		c0.919,2.1,2.156,3.925,3.71,5.479c1.553,1.554,3.378,2.775,5.479,3.667c2.1,0.894,4.357,1.337,6.772,1.337
		c2.529,0,4.888-0.503,7.074-1.51c2.186-1.005,4.084-2.372,5.694-4.098V292.027z"/>
	<path fill="#231F20" stroke="#231F20" stroke-width="1.3045" stroke-miterlimit="10" d="M1629.116,284.78l-18.204,37.703h-1.294
		l-18.204-37.703h1.726l17.083,35.545l17.168-35.545L1629.116,284.78L1629.116,284.78z"/>
	<path fill="#231F20" stroke="#231F20" stroke-width="1.3045" stroke-miterlimit="10" d="M1672.252,317.996
		c0.345,1.611,1.323,2.588,2.934,2.934v1.554c-1.035-0.173-2.042-0.69-3.02-1.554c-0.461-0.46-0.82-0.992-1.079-1.596
		s-0.388-1.221-0.388-1.855c-1.669,1.554-3.596,2.762-5.78,3.624c-2.187,0.863-4.516,1.294-6.988,1.294
		c-2.588,0-5.019-0.487-7.29-1.466c-2.272-0.978-4.271-2.314-5.996-4.012c-1.726-1.696-3.078-3.68-4.055-5.953
		c-0.979-2.271-1.467-4.702-1.467-7.29s0.488-5.018,1.467-7.291c0.979-2.271,2.33-4.271,4.055-5.996
		c1.726-1.726,3.724-3.076,5.996-4.055c2.271-0.978,4.702-1.467,7.29-1.467c2.473,0,4.802,0.446,6.988,1.337
		c2.185,0.892,4.111,2.143,5.78,3.753v-4.314h1.553V317.996z M1670.7,292.027c-1.611-1.726-3.509-3.119-5.694-4.184
		c-2.187-1.062-4.544-1.596-7.075-1.596c-2.416,0-4.674,0.461-6.771,1.38c-2.101,0.921-3.926,2.172-5.479,3.753
		c-1.553,1.583-2.791,3.438-3.71,5.565c-0.92,2.128-1.38,4.372-1.38,6.729c0,2.416,0.46,4.673,1.38,6.772
		c0.919,2.1,2.157,3.925,3.71,5.479c1.554,1.554,3.379,2.775,5.479,3.667c2.099,0.894,4.356,1.337,6.771,1.337
		c2.53,0,4.889-0.503,7.075-1.51c2.186-1.005,4.083-2.372,5.694-4.098V292.027z"/>
	<path fill="#231F20" stroke="#231F20" stroke-width="1.3045" stroke-miterlimit="10" d="M1716.252,312.82
		c0,1.38-0.388,2.661-1.165,3.839c-0.777,1.18-1.842,2.215-3.192,3.105c-1.352,0.894-2.963,1.597-4.832,2.114
		c-1.869,0.519-3.896,0.776-6.082,0.776c-3.336,0-6.227-0.574-8.671-1.726c-2.444-1.149-4.241-2.645-5.392-4.485
		c-0.116-0.229-0.23-0.445-0.345-0.647c-0.116-0.201-0.231-0.417-0.346-0.646l1.208-1.035c0.174,0.576,0.402,1.064,0.69,1.467
		c0.978,1.611,2.588,2.933,4.832,3.969c2.243,1.035,4.917,1.553,8.022,1.553c1.955,0,3.781-0.216,5.479-0.646
		c1.696-0.432,3.149-1.021,4.356-1.77c1.209-0.746,2.157-1.625,2.848-2.631c0.689-1.006,1.036-2.084,1.036-3.234
		c0-2.3-1.165-4.229-3.494-5.781c-2.33-1.553-5.479-2.357-9.447-2.416c-0.461,0-0.949-0.043-1.467-0.129
		c-0.519-0.086-0.949-0.129-1.294-0.129c-1.38-0.057-2.848-0.302-4.4-0.733c-1.553-0.431-2.977-1.049-4.271-1.855
		c-1.294-0.805-2.373-1.797-3.235-2.976c-0.863-1.178-1.294-2.574-1.294-4.185c0-1.38,0.388-2.66,1.165-3.839
		c0.776-1.178,1.84-2.213,3.192-3.106c1.351-0.891,2.946-1.596,4.788-2.113c1.84-0.518,3.853-0.777,6.04-0.777
		c3.393,0,6.312,0.561,8.757,1.683c2.443,1.122,4.24,2.603,5.392,4.443l-1.122,0.949c-0.979-1.667-2.603-3.02-4.875-4.055
		c-2.272-1.035-4.99-1.553-8.152-1.553c-2.015,0-3.854,0.216-5.521,0.647c-1.669,0.432-3.105,1.022-4.313,1.769
		c-1.208,0.749-2.157,1.639-2.848,2.675c-0.689,1.035-1.035,2.128-1.035,3.278c0,1.151,0.33,2.215,0.992,3.192
		c0.661,0.979,1.596,1.841,2.804,2.588c1.208,0.749,2.631,1.337,4.271,1.769c1.639,0.432,3.436,0.677,5.392,0.733
		c1.15,0.058,2.314,0.145,3.494,0.259c1.178,0.116,2.2,0.289,3.062,0.518c2.934,0.806,5.161,2.014,6.687,3.623
		C1715.489,308.909,1716.252,310.749,1716.252,312.82z"/>
	<path fill="#231F20" stroke="#231F20" stroke-width="1.3045" stroke-miterlimit="10" d="M1759.646,316.357l1.121,1.034
		c-1.669,1.554-3.596,2.776-5.779,3.667c-2.188,0.893-4.518,1.338-6.988,1.338c-2.588,0-5.02-0.488-7.291-1.467
		c-2.272-0.978-4.271-2.33-5.996-4.055c-1.725-1.726-3.078-3.723-4.055-5.996c-0.979-2.271-1.468-4.702-1.468-7.29
		s0.488-5.018,1.468-7.291c0.977-2.271,2.33-4.271,4.055-5.996c1.726-1.725,3.724-3.076,5.996-4.055
		c2.271-0.978,4.702-1.467,7.291-1.467c2.472,0,4.802,0.446,6.988,1.337c2.185,0.893,4.11,2.114,5.779,3.667l-1.121,1.036
		c-1.496-1.38-3.25-2.487-5.264-3.322c-2.014-0.833-4.141-1.251-6.384-1.251c-2.416,0-4.674,0.461-6.772,1.38
		c-2.101,0.921-3.926,2.172-5.479,3.753c-1.553,1.583-2.791,3.423-3.71,5.521c-0.921,2.101-1.38,4.329-1.38,6.687
		c0,2.416,0.459,4.673,1.38,6.772c0.919,2.1,2.157,3.925,3.71,5.479c1.553,1.553,3.378,2.791,5.479,3.71
		c2.099,0.92,4.356,1.38,6.772,1.38c2.243,0,4.37-0.401,6.384-1.208C1756.396,318.917,1758.15,317.795,1759.646,316.357z"/>
	<path fill="#231F20" stroke="#231F20" stroke-width="1.3045" stroke-miterlimit="10" d="M1786.908,284.867v1.467
		c-2.415,0.116-4.673,0.677-6.772,1.682c-2.1,1.007-3.896,2.344-5.392,4.012v30.456h-1.467V284.78h1.467v5.09
		c1.609-1.495,3.451-2.674,5.521-3.537C1782.335,285.47,1784.55,284.982,1786.908,284.867z"/>
	<path fill="#231F20" stroke="#231F20" stroke-width="1.3045" stroke-miterlimit="10" d="M1799.936,276.93
		c0,0.633-0.216,1.165-0.646,1.596c-0.432,0.432-0.964,0.647-1.596,0.647c-0.635,0-1.165-0.215-1.598-0.647
		c-0.431-0.431-0.646-0.962-0.646-1.596c0-0.632,0.216-1.165,0.646-1.596c0.433-0.432,0.963-0.647,1.598-0.647
		c0.632,0,1.164,0.215,1.596,0.647C1799.72,275.765,1799.936,276.297,1799.936,276.93z M1798.642,322.482h-1.554V284.78h1.554
		V322.482z"/>
	<path fill="#231F20" stroke="#231F20" stroke-width="1.3045" stroke-miterlimit="10" d="M1828.406,284.694
		c2.588,0,5.031,0.489,7.333,1.466c2.3,0.979,4.313,2.33,6.038,4.055c1.727,1.726,3.093,3.739,4.1,6.039
		c1.006,2.301,1.51,4.745,1.51,7.333s-0.504,5.034-1.51,7.333c-1.007,2.301-2.373,4.286-4.1,5.953
		c-1.725,1.669-3.738,2.991-6.038,3.969c-2.302,0.979-4.745,1.467-7.333,1.467c-2.475,0-4.818-0.444-7.031-1.337
		c-2.215-0.891-4.156-2.142-5.823-3.753v22.604h-1.554V284.78h1.554v5.004c1.667-1.553,3.608-2.789,5.823-3.709
		C1823.588,285.155,1825.934,284.694,1828.406,284.694z M1828.406,320.757c2.416,0,4.688-0.445,6.814-1.337
		c2.127-0.891,3.969-2.099,5.521-3.624c1.554-1.522,2.789-3.335,3.71-5.435c0.92-2.1,1.381-4.357,1.381-6.772
		c0-2.416-0.461-4.672-1.381-6.772c-0.921-2.099-2.156-3.926-3.71-5.479c-1.553-1.553-3.396-2.789-5.521-3.71
		c-2.128-0.919-4.398-1.38-6.814-1.38c-2.588,0-4.977,0.518-7.161,1.553c-2.187,1.036-4.084,2.416-5.693,4.142v23.123
		c1.609,1.782,3.507,3.179,5.693,4.184S1825.818,320.757,1828.406,320.757z"/>
	<path fill="#231F20" stroke="#231F20" stroke-width="1.3045" stroke-miterlimit="10" d="M1860.155,286.161v31.059
		c0,0.921,0.286,1.727,0.862,2.416c0.573,0.69,1.293,1.122,2.156,1.294v1.554c-1.324-0.173-2.416-0.763-3.279-1.77
		c-0.861-1.006-1.293-2.17-1.293-3.494v-55.13h1.554v22.69h8.627v1.38L1860.155,286.161L1860.155,286.161z"/>
</g>
<g>
	<path fill="#231F20" stroke="#231F20" stroke-width="1.3045" stroke-miterlimit="10" d="M1809.729,465.363
		c0,0.633-0.215,1.165-0.646,1.596c-0.432,0.432-0.964,0.647-1.596,0.647c-0.635,0-1.165-0.216-1.598-0.647
		c-0.431-0.431-0.646-0.962-0.646-1.596c0-0.632,0.216-1.165,0.646-1.597c0.433-0.432,0.963-0.646,1.598-0.646
		c0.632,0,1.164,0.215,1.596,0.646S1809.729,464.731,1809.729,465.363z M1808.436,510.916h-1.554v-37.702h1.554V510.916z"/>
	<path fill="#231F20" stroke="#231F20" stroke-width="1.3045" stroke-miterlimit="10" d="M1857.095,492.281v18.635h-1.554v-18.635
		c0-2.473-0.489-4.832-1.467-7.075c-0.23-0.574-0.547-1.15-0.948-1.726c-1.497-2.589-3.567-4.673-6.212-6.256
		c-2.646-1.581-5.58-2.373-8.801-2.373c-2.588,0-4.976,0.505-7.16,1.511c-2.188,1.007-4.085,2.401-5.694,4.184v30.369h-1.553
		v-37.702h1.553v5.177c1.668-1.553,3.595-2.789,5.78-3.71c2.186-0.919,4.543-1.38,7.074-1.38c1.668,0,3.322,0.245,4.961,0.733
		c1.64,0.489,3.191,1.165,4.658,2.026c1.468,0.862,2.817,1.929,4.056,3.192c1.235,1.266,2.286,2.674,3.149,4.227l0.604,1.382
		c0.46,1.15,0.833,2.344,1.122,3.58C1856.95,489.679,1857.095,490.958,1857.095,492.281z"/>
	<path fill="#231F20" stroke="#231F20" stroke-width="1.3045" stroke-miterlimit="10" d="M1888.066,473.214
		c2.472,0,4.801,0.446,6.986,1.337c2.187,0.894,4.112,2.145,5.781,3.753V446.9h1.553v64.016h-1.553v-5.09
		c-1.669,1.553-3.596,2.775-5.781,3.667c-2.187,0.892-4.516,1.337-6.986,1.337c-2.59,0-5.021-0.488-7.291-1.466
		c-2.272-0.979-4.271-2.33-5.996-4.056c-1.725-1.725-3.077-3.723-4.055-5.996c-0.979-2.271-1.468-4.701-1.468-7.289
		c0-2.589,0.488-5.019,1.468-7.291c0.978-2.271,2.328-4.271,4.055-5.996c1.726-1.726,3.724-3.076,5.996-4.056
		C1883.047,473.703,1885.479,473.214,1888.066,473.214z M1888.066,509.363c2.588,0,4.974-0.519,7.16-1.554
		c2.186-1.034,4.055-2.416,5.607-4.141v-23.294c-1.554-1.726-3.423-3.091-5.607-4.098c-2.188-1.006-4.572-1.511-7.16-1.511
		c-2.416,0-4.674,0.461-6.773,1.381s-3.925,2.156-5.479,3.709c-1.553,1.553-2.791,3.38-3.709,5.479
		c-0.922,2.101-1.381,4.329-1.381,6.688c0,2.416,0.459,4.673,1.381,6.771c0.918,2.101,2.156,3.925,3.709,5.479
		c1.554,1.553,3.379,2.791,5.479,3.71C1883.393,508.903,1885.65,509.363,1888.066,509.363z"/>
	<path fill="#231F20" stroke="#231F20" stroke-width="1.3045" stroke-miterlimit="10" d="M1933.705,509.363
		c2.243,0,4.37-0.402,6.384-1.208c2.013-0.806,3.767-1.927,5.263-3.365l1.122,1.035c-1.669,1.553-3.596,2.775-5.78,3.667
		c-2.187,0.892-4.517,1.337-6.987,1.337c-2.474,0-4.804-0.445-6.988-1.337c-2.187-0.892-4.113-2.114-5.78-3.667l-1.035-1.035
		c-1.554-1.667-2.775-3.594-3.666-5.78c-0.894-2.186-1.338-4.515-1.338-6.987c0-2.589,0.487-5.019,1.467-7.291
		c0.978-2.271,2.329-4.271,4.056-5.996c1.726-1.726,3.723-3.076,5.995-4.056c2.271-0.978,4.701-1.467,7.291-1.467
		c2.472,0,4.802,0.446,6.988,1.337c2.185,0.894,4.11,2.114,5.779,3.667l1.035,1.036l-25.537,25.537
		c1.553,1.438,3.335,2.56,5.35,3.365C1929.333,508.961,1931.462,509.363,1933.705,509.363z M1916.363,492.022
		c0,2.242,0.402,4.371,1.208,6.384c0.805,2.014,1.927,3.796,3.364,5.349l24.416-24.502c-1.496-1.38-3.25-2.487-5.264-3.322
		c-2.014-0.833-4.141-1.251-6.384-1.251c-2.416,0-4.674,0.461-6.772,1.38c-2.101,0.922-3.926,2.173-5.479,3.753
		c-1.553,1.584-2.791,3.424-3.71,5.521C1916.823,487.436,1916.363,489.664,1916.363,492.022z"/>
	<path fill="#231F20" stroke="#231F20" stroke-width="1.3045" stroke-miterlimit="10" d="M1989.868,501.253
		c0,1.38-0.388,2.661-1.164,3.839c-0.776,1.18-1.842,2.215-3.192,3.106c-1.352,0.893-2.963,1.596-4.83,2.113
		c-1.871,0.519-3.897,0.776-6.084,0.776c-3.336,0-6.227-0.574-8.67-1.725c-2.445-1.15-4.242-2.646-5.393-4.486
		c-0.116-0.229-0.23-0.445-0.346-0.646s-0.229-0.418-0.346-0.647l1.209-1.035c0.172,0.576,0.401,1.065,0.689,1.467
		c0.979,1.611,2.588,2.934,4.831,3.97c2.243,1.034,4.918,1.553,8.022,1.553c1.955,0,3.781-0.216,5.479-0.647
		c1.696-0.432,3.149-1.021,4.356-1.769c1.209-0.747,2.156-1.625,2.848-2.631c0.689-1.006,1.035-2.084,1.035-3.235
		c0-2.3-1.164-4.228-3.494-5.781c-2.329-1.553-5.479-2.356-9.446-2.416c-0.462,0-0.948-0.043-1.467-0.129s-0.949-0.129-1.295-0.129
		c-1.38-0.057-2.847-0.302-4.399-0.732c-1.553-0.432-2.977-1.05-4.271-1.855c-1.293-0.805-2.373-1.797-3.234-2.976
		c-0.863-1.179-1.294-2.574-1.294-4.186c0-1.38,0.388-2.66,1.164-3.839c0.776-1.178,1.841-2.213,3.192-3.105
		c1.351-0.892,2.946-1.597,4.787-2.113c1.84-0.519,3.854-0.777,6.039-0.777c3.395,0,6.312,0.562,8.758,1.684
		c2.443,1.122,4.24,2.603,5.393,4.442l-1.121,0.949c-0.979-1.667-2.604-3.02-4.875-4.055s-4.99-1.554-8.153-1.554
		c-2.014,0-3.854,0.217-5.521,0.647c-1.669,0.432-3.105,1.021-4.313,1.769c-1.208,0.749-2.157,1.64-2.847,2.676
		c-0.689,1.034-1.035,2.128-1.035,3.277c0,1.151,0.33,2.215,0.991,3.192c0.661,0.979,1.597,1.841,2.805,2.588
		c1.208,0.749,2.631,1.337,4.271,1.769c1.64,0.433,3.437,0.678,5.393,0.733c1.15,0.058,2.314,0.145,3.494,0.259
		c1.179,0.116,2.199,0.289,3.062,0.519c2.934,0.806,5.161,2.014,6.687,3.623C1989.105,497.343,1989.868,499.183,1989.868,501.253z"
		/>
	<path fill="#231F20" stroke="#231F20" stroke-width="1.3045" stroke-miterlimit="10" d="M2006.088,465.363
		c0,0.633-0.216,1.165-0.646,1.596c-0.433,0.432-0.965,0.647-1.596,0.647c-0.635,0-1.166-0.216-1.598-0.647
		c-0.432-0.431-0.646-0.962-0.646-1.596c0-0.632,0.217-1.165,0.646-1.597c0.432-0.432,0.963-0.646,1.598-0.646
		c0.631,0,1.163,0.215,1.596,0.646C2005.872,464.198,2006.088,464.731,2006.088,465.363z M2004.794,510.916h-1.554v-37.702h1.554
		V510.916z"/>
	<path fill="#231F20" stroke="#231F20" stroke-width="1.3045" stroke-miterlimit="10" d="M2051.555,478.304
		c0.174-0.978,0.444-1.782,0.819-2.416c0.374-0.632,0.79-1.122,1.251-1.467c0.46-0.345,0.906-0.589,1.338-0.733
		c0.431-0.143,0.789-0.243,1.078-0.302v1.466c-0.863,0.174-1.583,0.604-2.157,1.295c-0.575,0.689-0.862,1.495-0.862,2.415v43.828
		l-1.467,1.554c-1.669,1.553-3.596,2.773-5.78,3.667c-2.187,0.891-4.516,1.337-6.987,1.337c-2.475,0-4.804-0.446-6.988-1.337
		c-2.188-0.894-4.113-2.114-5.78-3.667l1.035-1.035c1.553,1.437,3.335,2.559,5.349,3.365c2.014,0.805,4.143,1.207,6.385,1.207
		c2.53,0,4.889-0.504,7.074-1.51c2.187-1.007,4.083-2.401,5.694-4.184v-15.875c-1.726,1.496-3.667,2.704-5.823,3.624
		c-2.156,0.921-4.473,1.38-6.945,1.38c-0.288,0-0.575,0-0.862,0c-0.288,0-0.575-0.028-0.862-0.086
		c-2.934-0.287-5.595-1.15-7.98-2.588c-2.387-1.438-4.355-3.308-5.909-5.608l-0.862-1.467c-1.553-2.646-2.329-5.665-2.329-9.06
		c0-2.588,0.487-5.018,1.466-7.29c0.979-2.271,2.33-4.271,4.057-5.996c1.726-1.726,3.723-3.076,5.996-4.056
		c2.271-0.978,4.701-1.467,7.289-1.467c0.574,0,1.365,0.059,2.373,0.172c1.006,0.116,2.084,0.346,3.234,0.69s2.343,0.849,3.581,1.51
		C2049.21,476.335,2050.403,477.212,2051.555,478.304z M2051.555,480.461c-1.611-1.726-3.509-3.105-5.693-4.141
		c-2.188-1.035-4.545-1.554-7.074-1.554c-2.416,0-4.674,0.461-6.771,1.381c-2.102,0.92-3.927,2.156-5.479,3.709
		c-1.554,1.553-2.791,3.38-3.71,5.479c-0.921,2.101-1.381,4.357-1.381,6.773c0,2.704,0.574,5.206,1.726,7.506
		c0.115,0.288,0.244,0.547,0.39,0.775c0.143,0.23,0.302,0.489,0.475,0.776c1.495,2.416,3.494,4.372,5.996,5.867
		c2.502,1.496,5.306,2.301,8.41,2.416h0.347c0.287,0,0.604-0.014,0.948-0.043c0.346-0.028,0.66-0.071,0.949-0.129
		c2.186-0.229,4.197-0.833,6.039-1.812c1.84-0.977,3.45-2.213,4.831-3.709L2051.555,480.461L2051.555,480.461z"/>
	<path fill="#231F20" stroke="#231F20" stroke-width="1.3045" stroke-miterlimit="10" d="M2101.421,492.281v18.635h-1.554v-18.635
		c0-2.473-0.489-4.832-1.467-7.075c-0.23-0.574-0.548-1.15-0.948-1.726c-1.497-2.589-3.567-4.673-6.212-6.256
		c-2.646-1.581-5.58-2.373-8.801-2.373c-2.589,0-4.976,0.505-7.16,1.511c-2.188,1.007-4.085,2.401-5.694,4.184v30.369h-1.553
		v-37.702h1.553v5.177c1.668-1.553,3.594-2.789,5.78-3.71c2.186-0.919,4.543-1.38,7.074-1.38c1.668,0,3.321,0.245,4.961,0.733
		c1.64,0.489,3.191,1.165,4.658,2.026c1.467,0.862,2.817,1.929,4.055,3.192c1.236,1.266,2.286,2.674,3.149,4.227l0.604,1.382
		c0.459,1.15,0.832,2.344,1.121,3.58C2101.275,489.679,2101.421,490.958,2101.421,492.281z"/>
</g>
<g>
	<path fill="#231F20" stroke="#231F20" stroke-width="1.3045" stroke-miterlimit="10" d="M1534.129,958.127
		c0,0.634-0.215,1.164-0.646,1.596c-0.432,0.433-0.965,0.647-1.597,0.647c-0.633,0-1.165-0.216-1.596-0.647
		c-0.432-0.432-0.646-0.962-0.646-1.596c0-0.632,0.216-1.165,0.646-1.596c0.431-0.433,0.962-0.647,1.596-0.647
		c0.632,0,1.165,0.215,1.597,0.647C1533.914,956.962,1534.129,957.495,1534.129,958.127z M1532.835,1003.68h-1.553v-37.702h1.553
		V1003.68z"/>
	<path fill="#231F20" stroke="#231F20" stroke-width="1.3045" stroke-miterlimit="10" d="M1552.506,1002.127v1.467
		c-1.324-0.173-2.416-0.747-3.277-1.726c-0.863-0.979-1.295-2.128-1.295-3.451v-59.443h1.554v59.443
		c0,0.921,0.287,1.726,0.862,2.416C1550.923,1001.521,1551.643,1001.954,1552.506,1002.127z"/>
	<path fill="#231F20" stroke="#231F20" stroke-width="1.3045" stroke-miterlimit="10" d="M1568.812,1002.127v1.467
		c-1.324-0.173-2.416-0.747-3.278-1.726c-0.863-0.979-1.294-2.128-1.294-3.451v-59.443h1.553v59.443
		c0,0.921,0.287,1.726,0.863,2.416C1567.229,1001.521,1567.949,1001.954,1568.812,1002.127z"/>
	<path fill="#231F20" stroke="#231F20" stroke-width="1.3045" stroke-miterlimit="10" d="M1580.889,984.613v-18.549h1.468v18.549
		c0,1.322,0.143,2.56,0.431,3.71c0.288,1.149,0.661,2.301,1.122,3.45c0.115,0.289,0.244,0.562,0.389,0.819
		c0.144,0.259,0.302,0.532,0.475,0.819c1.495,2.588,3.565,4.674,6.212,6.255c2.645,1.583,5.607,2.372,8.886,2.372
		c2.588,0,4.974-0.502,7.161-1.51c2.186-1.005,4.083-2.4,5.693-4.185v-30.282h1.554v36.754h-1.554v-4.314
		c-1.668,1.611-3.609,2.862-5.823,3.753c-2.215,0.894-4.56,1.338-7.031,1.338c-3.394,0-6.485-0.79-9.274-2.373
		c-2.791-1.581-5.019-3.693-6.687-6.341c-0.172-0.229-0.332-0.46-0.474-0.689c-0.146-0.229-0.274-0.488-0.389-0.776l-0.689-1.381
		C1581.377,989.732,1580.889,987.259,1580.889,984.613z"/>
	<path fill="#231F20" stroke="#231F20" stroke-width="1.3045" stroke-miterlimit="10" d="M1657.932,994.017
		c0,1.382-0.388,2.661-1.165,3.841c-0.776,1.18-1.842,2.215-3.191,3.104c-1.353,0.894-2.963,1.597-4.832,2.114
		c-1.87,0.518-3.897,0.775-6.082,0.775c-3.336,0-6.228-0.573-8.671-1.726c-2.445-1.15-4.242-2.646-5.393-4.486
		c-0.115-0.229-0.229-0.444-0.345-0.646c-0.116-0.2-0.231-0.416-0.345-0.646l1.208-1.034c0.173,0.574,0.401,1.063,0.689,1.466
		c0.979,1.61,2.588,2.934,4.832,3.969s4.917,1.553,8.023,1.553c1.955,0,3.78-0.215,5.479-0.646c1.696-0.433,3.149-1.021,4.357-1.77
		c1.208-0.747,2.157-1.625,2.847-2.632c0.69-1.005,1.036-2.084,1.036-3.235c0-2.3-1.165-4.228-3.494-5.779
		c-2.33-1.553-5.479-2.357-9.446-2.415c-0.462,0-0.949-0.044-1.468-0.13c-0.518-0.086-0.948-0.129-1.294-0.129
		c-1.38-0.058-2.847-0.304-4.399-0.733c-1.554-0.432-2.978-1.049-4.271-1.854s-2.373-1.798-3.235-2.978
		c-0.862-1.178-1.293-2.573-1.293-4.184c0-1.382,0.388-2.66,1.164-3.841c0.776-1.178,1.841-2.213,3.192-3.104
		c1.351-0.892,2.947-1.597,4.788-2.114c1.84-0.518,3.854-0.775,6.04-0.775c3.393,0,6.312,0.561,8.757,1.683
		c2.444,1.121,4.241,2.603,5.393,4.443l-1.122,0.947c-0.979-1.667-2.604-3.02-4.875-4.055c-2.273-1.035-4.99-1.553-8.153-1.553
		c-2.014,0-3.854,0.216-5.521,0.646c-1.668,0.432-3.105,1.021-4.313,1.77s-2.157,1.639-2.847,2.674
		c-0.69,1.036-1.035,2.129-1.035,3.279c0,1.149,0.33,2.214,0.992,3.19c0.66,0.979,1.596,1.842,2.804,2.589
		c1.208,0.748,2.631,1.337,4.271,1.77c1.64,0.431,3.437,0.677,5.393,0.732c1.149,0.059,2.313,0.145,3.494,0.259
		c1.178,0.115,2.199,0.288,3.062,0.519c2.934,0.806,5.162,2.014,6.687,3.623C1657.169,990.106,1657.932,991.946,1657.932,994.017z"
		/>
	<path fill="#231F20" stroke="#231F20" stroke-width="1.3045" stroke-miterlimit="10" d="M1672.855,967.358v31.059
		c0,0.921,0.287,1.726,0.863,2.416c0.574,0.689,1.294,1.121,2.157,1.294v1.553c-1.324-0.173-2.416-0.762-3.278-1.769
		c-0.862-1.006-1.294-2.171-1.294-3.494v-55.129h1.554v22.689h8.627v1.382L1672.855,967.358L1672.855,967.358z"/>
	<path fill="#231F20" stroke="#231F20" stroke-width="1.3045" stroke-miterlimit="10" d="M1702.104,966.064v1.466
		c-2.416,0.116-4.674,0.677-6.771,1.683c-2.101,1.007-3.896,2.345-5.392,4.012v30.455h-1.468v-37.701h1.468v5.091
		c1.608-1.495,3.45-2.675,5.521-3.538S1699.745,966.18,1702.104,966.064z"/>
	<path fill="#231F20" stroke="#231F20" stroke-width="1.3045" stroke-miterlimit="10" d="M1744.636,999.193
		c0.345,1.61,1.323,2.588,2.934,2.934v1.553c-1.035-0.173-2.042-0.689-3.02-1.553c-0.461-0.46-0.819-0.992-1.079-1.597
		c-0.259-0.604-0.388-1.222-0.388-1.854c-1.669,1.553-3.595,2.762-5.78,3.623c-2.187,0.863-4.516,1.295-6.988,1.295
		c-2.588,0-5.019-0.487-7.289-1.467c-2.273-0.978-4.271-2.314-5.996-4.012c-1.727-1.696-3.078-3.682-4.056-5.953
		c-0.979-2.271-1.467-4.702-1.467-7.29c0-2.589,0.488-5.019,1.467-7.29s2.33-4.271,4.056-5.996c1.725-1.726,3.723-3.076,5.996-4.056
		c2.271-0.978,4.701-1.466,7.289-1.466c2.473,0,4.803,0.444,6.988,1.337s4.111,2.144,5.78,3.753v-4.313h1.553V999.193z
		 M1743.083,973.225c-1.611-1.726-3.509-3.119-5.694-4.185c-2.187-1.063-4.544-1.596-7.074-1.596c-2.416,0-4.674,0.461-6.772,1.381
		c-2.101,0.92-3.926,2.171-5.479,3.753c-1.554,1.582-2.791,3.438-3.71,5.563c-0.92,2.128-1.381,4.371-1.381,6.729
		c0,2.415,0.461,4.674,1.381,6.771c0.919,2.102,2.156,3.927,3.71,5.479c1.553,1.553,3.378,2.774,5.479,3.666
		c2.099,0.893,4.357,1.338,6.772,1.338c2.529,0,4.888-0.503,7.074-1.51c2.186-1.006,4.083-2.373,5.694-4.1V973.225z"/>
	<path fill="#231F20" stroke="#231F20" stroke-width="1.3045" stroke-miterlimit="10" d="M1759.646,967.358v31.059
		c0,0.921,0.287,1.726,0.862,2.416c0.574,0.689,1.294,1.121,2.157,1.294v1.553c-1.324-0.173-2.416-0.762-3.279-1.769
		c-0.861-1.006-1.294-2.171-1.294-3.494v-55.129h1.554v22.689h8.627v1.382L1759.646,967.358L1759.646,967.358z"/>
	<path fill="#231F20" stroke="#231F20" stroke-width="1.3045" stroke-miterlimit="10" d="M1792.259,1003.68
		c-2.588,0-5.032-0.503-7.333-1.51c-2.302-1.006-4.313-2.373-6.04-4.098c-1.725-1.727-3.092-3.738-4.098-6.04
		c-1.007-2.3-1.51-4.745-1.51-7.333s0.503-5.032,1.51-7.333c1.006-2.3,2.373-4.314,4.098-6.039c1.727-1.727,3.738-3.076,6.04-4.057
		c2.301-0.977,4.745-1.467,7.333-1.467s5.032,0.49,7.333,1.467c2.301,0.979,4.314,2.33,6.039,4.057
		c1.727,1.725,3.092,3.739,4.1,6.039c1.006,2.301,1.51,4.745,1.51,7.333s-0.504,5.033-1.51,7.333c-1.008,2.302-2.373,4.313-4.1,6.04
		c-1.725,1.725-3.739,3.092-6.039,4.098C1797.291,1003.177,1794.847,1003.68,1792.259,1003.68z M1792.259,967.271
		c-2.416,0-4.688,0.461-6.814,1.381c-2.129,0.921-3.97,2.172-5.521,3.753c-1.554,1.582-2.791,3.423-3.71,5.521
		c-0.921,2.102-1.381,4.356-1.381,6.772s0.46,4.688,1.381,6.814c0.919,2.129,2.156,3.97,3.71,5.521
		c1.554,1.554,3.394,2.791,5.521,3.71c2.127,0.921,4.398,1.381,6.814,1.381s4.672-0.46,6.772-1.381
		c2.099-0.919,3.938-2.156,5.521-3.71c1.581-1.554,2.832-3.394,3.753-5.521c0.92-2.127,1.381-4.398,1.381-6.814
		s-0.461-4.672-1.381-6.772c-0.921-2.099-2.172-3.938-3.753-5.521c-1.582-1.581-3.423-2.832-5.521-3.753
		C1796.931,967.732,1794.675,967.271,1792.259,967.271z"/>
	<path fill="#231F20" stroke="#231F20" stroke-width="1.3045" stroke-miterlimit="10" d="M1837.725,966.064v1.466
		c-2.414,0.116-4.673,0.677-6.771,1.683c-2.1,1.007-3.896,2.345-5.393,4.012v30.455h-1.467v-37.701h1.467v5.091
		c1.609-1.495,3.451-2.675,5.521-3.538S1835.366,966.18,1837.725,966.064z"/>
</g>
<g>
	<path fill="#231F20" stroke="#231F20" stroke-width="1.3045" stroke-miterlimit="10" d="M1516.936,657.852
		c2.588,0,5.031,0.489,7.332,1.467c2.3,0.979,4.313,2.33,6.039,4.055c1.727,1.725,3.092,3.739,4.099,6.039
		c1.005,2.301,1.51,4.745,1.51,7.333s-0.504,5.034-1.51,7.333c-1.007,2.301-2.373,4.286-4.099,5.953
		c-1.726,1.669-3.739,2.991-6.039,3.969c-2.301,0.979-4.744,1.467-7.332,1.467c-2.475,0-4.818-0.445-7.031-1.337
		c-2.215-0.891-4.156-2.142-5.824-3.753v22.604h-1.553v-55.044h1.553v5.005c1.667-1.554,3.609-2.789,5.824-3.709
		C1512.117,658.312,1514.461,657.852,1516.936,657.852z M1516.936,693.914c2.416,0,4.687-0.445,6.814-1.337
		c2.127-0.892,3.969-2.099,5.521-3.624c1.554-1.523,2.789-3.335,3.709-5.436c0.92-2.099,1.381-4.356,1.381-6.771
		c0-2.416-0.461-4.672-1.381-6.772c-0.92-2.099-2.156-3.926-3.709-5.479s-3.395-2.789-5.521-3.71c-2.128-0.919-4.4-1.38-6.814-1.38
		c-2.589,0-4.977,0.518-7.161,1.553c-2.188,1.036-4.085,2.416-5.694,4.142v23.122c1.609,1.783,3.508,3.18,5.694,4.185
		C1511.959,693.411,1514.346,693.914,1516.936,693.914z"/>
	<path fill="#231F20" stroke="#231F20" stroke-width="1.3045" stroke-miterlimit="10" d="M1580.087,676.832v18.808h-1.466v-18.808
		c0-2.416-0.461-4.672-1.38-6.773c-0.921-2.099-2.157-3.925-3.71-5.479c-1.553-1.553-3.379-2.789-5.479-3.709
		c-2.1-0.919-4.356-1.38-6.771-1.38c-2.588,0-4.976,0.504-7.161,1.51c-2.188,1.007-4.055,2.402-5.608,4.184v30.455h-1.553v-64.792
		h1.553v32.181c1.667-1.554,3.595-2.774,5.78-3.667c2.186-0.892,4.516-1.337,6.988-1.337c3.911,0,7.405,1.05,10.482,3.148
		c3.075,2.102,5.361,4.847,6.858,8.239C1579.598,671.713,1580.087,674.188,1580.087,676.832z"/>
	<path fill="#231F20" stroke="#231F20" stroke-width="1.3045" stroke-miterlimit="10" d="M1609.247,695.64
		c-2.588,0-5.034-0.503-7.333-1.51c-2.301-1.006-4.313-2.373-6.039-4.098c-1.726-1.726-3.092-3.738-4.098-6.039
		c-1.008-2.3-1.511-4.745-1.511-7.333s0.503-5.032,1.511-7.333c1.006-2.299,2.373-4.313,4.098-6.039
		c1.725-1.727,3.738-3.076,6.039-4.055c2.3-0.979,4.745-1.468,7.333-1.468s5.032,0.489,7.333,1.468
		c2.299,0.979,4.312,2.328,6.039,4.055c1.726,1.726,3.091,3.74,4.098,6.039c1.005,2.301,1.51,4.745,1.51,7.333
		s-0.504,5.034-1.51,7.333c-1.007,2.301-2.373,4.312-4.098,6.039c-1.726,1.726-3.74,3.092-6.039,4.098
		C1614.279,695.137,1611.835,695.64,1609.247,695.64z M1609.247,659.232c-2.416,0-4.688,0.461-6.816,1.38
		c-2.128,0.92-3.968,2.171-5.521,3.753c-1.553,1.583-2.791,3.422-3.709,5.521c-0.921,2.101-1.381,4.357-1.381,6.772
		s0.46,4.688,1.381,6.815c0.919,2.128,2.156,3.969,3.709,5.521s3.393,2.791,5.521,3.71c2.127,0.92,4.4,1.38,6.816,1.38
		s4.672-0.46,6.771-1.38c2.1-0.919,3.939-2.157,5.521-3.71s2.833-3.394,3.753-5.521c0.919-2.127,1.38-4.399,1.38-6.815
		s-0.461-4.672-1.38-6.772c-0.92-2.099-2.171-3.938-3.753-5.521c-1.583-1.582-3.422-2.833-5.521-3.753
		C1613.919,659.693,1611.663,659.232,1609.247,659.232z"/>
	<path fill="#231F20" stroke="#231F20" stroke-width="1.3045" stroke-miterlimit="10" d="M1642.721,659.318v31.059
		c0,0.921,0.287,1.727,0.863,2.416c0.574,0.69,1.294,1.122,2.157,1.294v1.553c-1.324-0.172-2.416-0.762-3.278-1.769
		c-0.863-1.006-1.294-2.17-1.294-3.494v-55.129h1.553v22.689h8.627v1.381H1642.721z"/>
	<path fill="#231F20" stroke="#231F20" stroke-width="1.3045" stroke-miterlimit="10" d="M1675.333,695.64
		c-2.588,0-5.034-0.503-7.333-1.51c-2.301-1.006-4.312-2.373-6.039-4.098c-1.726-1.726-3.092-3.738-4.098-6.039
		c-1.007-2.3-1.51-4.745-1.51-7.333s0.503-5.032,1.51-7.333c1.006-2.299,2.373-4.313,4.098-6.039
		c1.725-1.727,3.738-3.076,6.039-4.055c2.3-0.979,4.745-1.468,7.333-1.468s5.032,0.489,7.333,1.468
		c2.299,0.979,4.312,2.328,6.039,4.055c1.726,1.726,3.091,3.74,4.098,6.039c1.005,2.301,1.51,4.745,1.51,7.333
		s-0.504,5.034-1.51,7.333c-1.007,2.301-2.373,4.312-4.098,6.039c-1.725,1.726-3.74,3.092-6.039,4.098
		C1680.365,695.137,1677.921,695.64,1675.333,695.64z M1675.333,659.232c-2.416,0-4.688,0.461-6.816,1.38
		c-2.128,0.92-3.968,2.171-5.521,3.753c-1.553,1.583-2.791,3.422-3.709,5.521c-0.921,2.101-1.381,4.357-1.381,6.772
		s0.46,4.688,1.381,6.815c0.919,2.128,2.157,3.969,3.709,5.521c1.553,1.553,3.393,2.791,5.521,3.71c2.127,0.92,4.4,1.38,6.816,1.38
		s4.672-0.46,6.772-1.38c2.099-0.919,3.938-2.157,5.521-3.71s2.833-3.394,3.753-5.521c0.919-2.127,1.38-4.399,1.38-6.815
		s-0.461-4.672-1.38-6.772c-0.92-2.099-2.171-3.938-3.753-5.521c-1.583-1.582-3.422-2.833-5.521-3.753
		C1680.005,659.693,1677.748,659.232,1675.333,659.232z"/>
	<path fill="#231F20" stroke="#231F20" stroke-width="1.3045" stroke-miterlimit="10" d="M1737.795,685.977
		c0,1.381-0.388,2.661-1.165,3.84c-0.776,1.18-1.842,2.215-3.192,3.105c-1.352,0.894-2.963,1.596-4.832,2.114
		c-1.869,0.518-3.896,0.776-6.082,0.776c-3.336,0-6.227-0.574-8.671-1.726c-2.444-1.149-4.241-2.645-5.392-4.486
		c-0.116-0.229-0.23-0.444-0.345-0.646c-0.116-0.201-0.231-0.417-0.345-0.647l1.207-1.034c0.174,0.575,0.402,1.064,0.69,1.467
		c0.978,1.61,2.588,2.933,4.832,3.969c2.243,1.035,4.917,1.553,8.022,1.553c1.955,0,3.781-0.216,5.479-0.646
		c1.696-0.433,3.149-1.021,4.357-1.77c1.208-0.747,2.156-1.625,2.847-2.631c0.689-1.006,1.036-2.084,1.036-3.234
		c0-2.301-1.165-4.229-3.494-5.781c-2.33-1.553-5.479-2.357-9.447-2.416c-0.461,0-0.948-0.043-1.467-0.129s-0.949-0.129-1.294-0.129
		c-1.38-0.058-2.847-0.303-4.4-0.733c-1.553-0.431-2.977-1.049-4.271-1.854s-2.373-1.798-3.235-2.977
		c-0.863-1.178-1.294-2.574-1.294-4.185c0-1.38,0.388-2.66,1.165-3.839c0.776-1.179,1.84-2.214,3.192-3.106
		c1.351-0.891,2.947-1.596,4.788-2.113c1.84-0.518,3.853-0.776,6.04-0.776c3.393,0,6.312,0.561,8.757,1.683
		c2.443,1.122,4.241,2.604,5.392,4.443l-1.122,0.948c-0.979-1.667-2.603-3.02-4.875-4.055s-4.989-1.553-8.152-1.553
		c-2.015,0-3.854,0.216-5.521,0.646c-1.669,0.433-3.105,1.022-4.313,1.77c-1.208,0.749-2.157,1.639-2.848,2.675
		c-0.689,1.035-1.034,2.128-1.034,3.278s0.329,2.215,0.991,3.191c0.661,0.979,1.597,1.841,2.804,2.588
		c1.209,0.749,2.632,1.337,4.271,1.77c1.639,0.432,3.436,0.677,5.392,0.732c1.15,0.059,2.314,0.146,3.494,0.26
		c1.179,0.115,2.2,0.289,3.062,0.518c2.934,0.806,5.162,2.014,6.687,3.623C1737.032,682.066,1737.795,683.906,1737.795,685.977z"/>
	<path fill="#231F20" stroke="#231F20" stroke-width="1.3045" stroke-miterlimit="10" d="M1784.123,676.832v18.808h-1.467v-18.808
		c0-2.416-0.461-4.672-1.38-6.773c-0.921-2.099-2.157-3.925-3.71-5.479c-1.554-1.553-3.381-2.789-5.479-3.709
		c-2.101-0.919-4.355-1.38-6.771-1.38c-2.589,0-4.977,0.504-7.161,1.51c-2.188,1.007-4.056,2.402-5.607,4.184v30.455h-1.553v-64.792
		h1.553v32.181c1.667-1.554,3.594-2.774,5.78-3.667c2.186-0.892,4.515-1.337,6.988-1.337c3.909,0,7.403,1.05,10.481,3.148
		c3.076,2.102,5.362,4.847,6.858,8.239C1783.634,671.713,1784.123,674.188,1784.123,676.832z"/>
	<path fill="#231F20" stroke="#231F20" stroke-width="1.3045" stroke-miterlimit="10" d="M1813.283,695.64
		c-2.588,0-5.033-0.503-7.333-1.51c-2.302-1.006-4.314-2.373-6.04-4.098c-1.726-1.727-3.092-3.738-4.099-6.039
		c-1.007-2.3-1.51-4.745-1.51-7.333s0.503-5.032,1.51-7.333c1.007-2.299,2.373-4.313,4.099-6.039
		c1.726-1.727,3.738-3.076,6.04-4.055c2.3-0.979,4.745-1.468,7.333-1.468s5.031,0.489,7.333,1.468
		c2.3,0.979,4.313,2.328,6.038,4.055c1.727,1.726,3.093,3.74,4.1,6.039c1.006,2.301,1.51,4.745,1.51,7.333s-0.504,5.034-1.51,7.333
		c-1.007,2.301-2.373,4.312-4.1,6.039c-1.725,1.726-3.738,3.092-6.038,4.098C1818.314,695.137,1815.871,695.64,1813.283,695.64z
		 M1813.283,659.232c-2.416,0-4.688,0.461-6.815,1.38c-2.129,0.92-3.969,2.171-5.521,3.753c-1.555,1.583-2.791,3.422-3.71,5.521
		c-0.921,2.101-1.381,4.357-1.381,6.772s0.46,4.688,1.381,6.815c0.919,2.128,2.155,3.969,3.71,5.521
		c1.553,1.553,3.393,2.791,5.521,3.71c2.127,0.92,4.399,1.38,6.815,1.38s4.672-0.46,6.771-1.38c2.1-0.919,3.939-2.157,5.521-3.71
		c1.581-1.553,2.832-3.394,3.753-5.521c0.92-2.127,1.381-4.399,1.381-6.815s-0.461-4.672-1.381-6.772
		c-0.921-2.099-2.172-3.938-3.753-5.521c-1.582-1.582-3.424-2.833-5.521-3.753C1817.955,659.693,1815.699,659.232,1813.283,659.232z
		"/>
	<path fill="#231F20" stroke="#231F20" stroke-width="1.3045" stroke-miterlimit="10" d="M1859.612,657.852
		c2.588,0,5.032,0.489,7.333,1.467c2.3,0.979,4.313,2.33,6.039,4.055c1.726,1.726,3.092,3.739,4.099,6.039
		c1.006,2.301,1.51,4.745,1.51,7.333s-0.504,5.034-1.51,7.333c-1.007,2.301-2.373,4.286-4.099,5.953
		c-1.726,1.669-3.739,2.991-6.039,3.969c-2.301,0.979-4.745,1.467-7.333,1.467c-2.474,0-4.818-0.445-7.031-1.337
		c-2.215-0.891-4.156-2.142-5.823-3.753v22.604h-1.554v-55.044h1.554v5.005c1.667-1.554,3.608-2.789,5.823-3.709
		C1854.794,658.312,1857.139,657.852,1859.612,657.852z M1859.612,693.914c2.416,0,4.688-0.445,6.814-1.337s3.97-2.099,5.521-3.624
		c1.554-1.523,2.788-3.335,3.71-5.436c0.92-2.099,1.381-4.356,1.381-6.771c0-2.416-0.461-4.672-1.381-6.772
		c-0.922-2.099-2.156-3.926-3.71-5.479s-3.396-2.789-5.521-3.71c-2.128-0.919-4.399-1.38-6.814-1.38
		c-2.589,0-4.976,0.518-7.161,1.553c-2.188,1.036-4.084,2.416-5.693,4.142v23.122c1.609,1.783,3.508,3.18,5.693,4.185
		S1857.023,693.914,1859.612,693.914z"/>
</g>
</svg>
