<?xml version="1.0" encoding="utf-8"?>
<!-- Generator: Adobe Illustrator 16.0.0, SVG Export Plug-In . SVG Version: 6.00 Build 0)  -->
<!DOCTYPE svg PUBLIC "-//W3C//DTD SVG 1.1//EN" "http://www.w3.org/Graphics/SVG/1.1/DTD/svg11.dtd">
<svg version="1.1" id="Layer_1" xmlns="http://www.w3.org/2000/svg" xmlns:xlink="http://www.w3.org/1999/xlink" x="0px" y="0px"
	 width="166.667px" height="178.161px" viewBox="0 0 166.667 178.161" enable-background="new 0 0 166.667 178.161"
	 xml:space="preserve">
<g opacity="0.5">
	<path fill="#E2CFCC" d="M70.323,80.478h7.532v-7.321c0-3.229,0.083-8.21,2.428-11.294c2.471-3.266,5.862-5.486,11.695-5.486
		c9.506,0,13.507,1.356,13.507,1.356l-1.884,11.164c0,0-3.138-0.909-6.067-0.909c-2.933,0-5.556,1.05-5.556,3.978v8.513h12.016
		l-0.838,10.902H91.978v37.874H77.855V91.38h-7.532V80.478z"/>
</g>
<polygon opacity="0.5" fill="none" stroke="#E1CFCC" stroke-width="3" stroke-miterlimit="10" points="87.331,167.627 
	22.829,129.725 23.401,54.912 88.476,18.002 152.979,55.904 152.406,130.718 "/>
<g>
</g>
<g>
</g>
<g>
</g>
<g>
</g>
<g>
</g>
<g>
</g>
</svg>
