<?xml version="1.0" encoding="utf-8"?>
<!-- Generator: Adobe Illustrator 16.0.0, SVG Export Plug-In . SVG Version: 6.00 Build 0)  -->
<!DOCTYPE svg PUBLIC "-//W3C//DTD SVG 1.1//EN" "http://www.w3.org/Graphics/SVG/1.1/DTD/svg11.dtd">
<svg version="1.1" id="Layer_1" xmlns="http://www.w3.org/2000/svg" xmlns:xlink="http://www.w3.org/1999/xlink" x="0px" y="0px"
	 width="166.667px" height="178.161px" viewBox="0 0 166.667 178.161" enable-background="new 0 0 166.667 178.161"
	 xml:space="preserve">
<g>
	<path fill="#231F20" d="M75.785,117.579c-8.047,0-13.858-5.091-13.858-11.209c0-6,7.208-10.992,15.254-10.904
		c1.877,0.02,3.629,0.32,5.215,0.832c4.363,3.045,7.496,4.758,8.381,8.221c0.166,0.705,0.258,1.424,0.258,2.164
		C91.037,112.801,87.093,117.579,75.785,117.579 M77.896,81.692c-5.395-0.16-10.529-6.04-11.463-13.131
		c-0.93-7.096,2.693-12.523,8.09-12.365c5.399,0.166,10.532,5.854,11.461,12.947C86.917,76.234,83.297,81.856,77.896,81.692
		 M89.091,92.2c-1.895-1.341-5.511-4.604-5.511-6.521c0-2.253,0.638-3.357,4.021-6c3.463-2.712,5.92-6.518,5.92-10.945
		c0-5.276-2.35-10.415-6.758-12.113h6.645l4.691-3.39H77.141c-9.393,0-18.237,7.121-18.237,15.369
		c0,8.428,6.404,15.231,15.963,15.231c0.666,0,1.309-0.015,1.943-0.054c-0.621,1.18-1.066,2.525-1.066,3.91
		c0,2.343,1.262,4.244,2.854,5.792c-1.203,0-2.367,0.037-3.631,0.037c-11.641,0-20.598,7.414-20.598,15.104
		c0,7.574,9.818,12.31,21.458,12.31c13.266,0,20.596-7.529,20.596-15.106C96.421,99.752,94.63,96.113,89.091,92.2 M119.587,82.315
		h-8.16v-8.162h-6.565v8.162h-8.157v6.568h8.157v8.163h6.565v-8.163h8.16V82.315z"/>
</g>
<polygon fill="none" stroke="#231F20" stroke-width="3" stroke-miterlimit="10" enable-background="new    " points="
	82.762,163.893 18.258,125.991 18.832,51.178 83.908,14.268 148.41,52.17 147.835,126.984 "/>
</svg>
