<?xml version="1.0" encoding="utf-8"?>
<!-- Generator: Adobe Illustrator 16.0.0, SVG Export Plug-In . SVG Version: 6.00 Build 0)  -->
<!DOCTYPE svg PUBLIC "-//W3C//DTD SVG 1.1//EN" "http://www.w3.org/Graphics/SVG/1.1/DTD/svg11.dtd">
<svg version="1.1" id="Layer_1" xmlns="http://www.w3.org/2000/svg" xmlns:xlink="http://www.w3.org/1999/xlink" x="0px" y="0px"
	 width="166.667px" height="178.161px" viewBox="0 0 166.667 178.161" enable-background="new 0 0 166.667 178.161"
	 xml:space="preserve">
<g>
	<path fill="#231F20" d="M104.1,58.065H62.567c-7.211,0-13.084,5.864-13.084,13.074v13.808v27.698
		c0,7.211,5.873,13.074,13.084,13.074H104.1c7.211,0,13.086-5.863,13.086-13.074V84.947V71.14
		C117.186,63.93,111.311,58.065,104.1,58.065z M107.852,65.865l1.494-0.008v1.492v9.974L97.91,77.365l-0.039-11.469L107.852,65.865z
		 M73.674,84.947c2.162-3,5.682-4.967,9.66-4.967s7.494,1.967,9.658,4.967c1.412,1.957,2.262,4.348,2.262,6.946
		c0,6.566-5.35,11.904-11.919,11.904c-6.572,0-11.918-5.338-11.918-11.904C71.417,89.295,72.264,86.904,73.674,84.947z
		 M110.587,112.645c0,3.578-2.907,6.48-6.487,6.48H62.567c-3.58,0-6.486-2.902-6.486-6.48V84.947h10.105
		c-0.869,2.148-1.363,4.49-1.363,6.946c0,10.203,8.305,18.498,18.512,18.498c10.208,0,18.51-8.295,18.51-18.498
		c0-2.456-0.496-4.797-1.361-6.946h10.105v27.698H110.587z"/>
</g>
<polygon fill="none" stroke="#231F20" stroke-width="3" stroke-miterlimit="10" enable-background="new    " points="
	82.762,163.893 18.258,125.991 18.833,51.178 83.908,14.268 148.41,52.17 147.835,126.983 "/>
</svg>
