<?xml version="1.0" encoding="utf-8"?>
<!-- Generator: Adobe Illustrator 16.0.0, SVG Export Plug-In . SVG Version: 6.00 Build 0)  -->
<!DOCTYPE svg PUBLIC "-//W3C//DTD SVG 1.1//EN" "http://www.w3.org/Graphics/SVG/1.1/DTD/svg11.dtd">
<svg version="1.1" id="Layer_1" xmlns="http://www.w3.org/2000/svg" xmlns:xlink="http://www.w3.org/1999/xlink" x="0px" y="0px"
	 width="190px" height="190px" viewBox="0 0 190 190" enable-background="new 0 0 190 190" xml:space="preserve">
<path fill="#E85F48" d="M95.003,6.112c47.616,0,86.212,38.598,86.212,86.217c0,47.613-38.596,86.212-86.212,86.212H8.786V92.329
	C8.786,44.71,47.386,6.112,95.003,6.112z M17.645,116.695c0.452,0,0.83-0.154,1.142-0.469c0.309-0.311,0.47-0.692,0.47-1.142
	c0-0.455-0.161-0.839-0.47-1.149c-0.312-0.312-0.69-0.466-1.142-0.466c-0.457,0-0.834,0.153-1.146,0.466
	c-0.311,0.311-0.472,0.694-0.472,1.149c0,0.449,0.161,0.831,0.472,1.142C16.811,116.541,17.188,116.695,17.645,116.695z
	 M19.014,117.484h-2.745v9.856h2.745V117.484z M27.725,120.096c0.409-0.399,0.895-0.599,1.441-0.599c1.113,0,1.671,0.76,1.671,2.273
	v5.57h2.75v-5.991c0-1.224-0.353-2.2-1.06-2.936c-0.7-0.73-1.569-1.098-2.61-1.098c-1.038,0-1.972,0.424-2.802,1.268v-1.1h-2.75
	v9.856h2.75v-5.497C27.115,121.073,27.319,120.49,27.725,120.096z M19.87,152.664c0.567-0.377,0.985-0.9,1.256-1.568l4.576-11.621
	h-2.932l-2.401,6.14l-2.401-6.14h-2.932c2.546,6.416,3.815,9.761,3.815,10.043c0,0.281-0.097,0.546-0.278,0.798
	c-0.187,0.249-0.398,0.376-0.659,0.376c-0.488,0-0.963-0.229-1.431-0.679l-1.247,2.033c0.855,0.784,1.77,1.173,2.73,1.173
	C18.667,153.219,19.3,153.031,19.87,152.664z M37.967,140.782c-0.992-0.98-2.234-1.471-3.729-1.471c-1.494,0-2.743,0.49-3.731,1.471
	c-0.988,0.988-1.484,2.191-1.484,3.622c0,1.43,0.496,2.636,1.484,3.611c0.988,0.975,2.237,1.465,3.731,1.465
	c1.495,0,2.737-0.49,3.729-1.465c0.988-0.976,1.483-2.182,1.483-3.611C39.451,142.974,38.956,141.771,37.967,140.782z
	 M32.476,142.426c0.455-0.516,1.045-0.771,1.762-0.771c0.713,0,1.298,0.255,1.755,0.771c0.462,0.512,0.687,1.171,0.687,1.979
	c0,0.807-0.225,1.466-0.687,1.971c-0.457,0.507-1.042,0.762-1.755,0.762c-0.717,0-1.308-0.255-1.762-0.762
	c-0.457-0.505-0.684-1.164-0.684-1.971C31.792,143.597,32.019,142.938,32.476,142.426z M49.986,146.519
	c-0.401,0.398-0.878,0.598-1.427,0.598c-1.111,0-1.668-0.758-1.668-2.273v-5.368h-2.766v5.976c0,1.332,0.365,2.335,1.098,3.013
	c0.73,0.681,1.642,1.018,2.72,1.018c1.082,0,1.963-0.482,2.65-1.448v1.303h2.764v-9.86h-2.764v5.317
	C50.593,145.548,50.393,146.125,49.986,146.519z M64.432,141.894l-0.021-2.582c-0.549,0.009-1.088,0.157-1.624,0.438
	c-0.532,0.28-0.976,0.624-1.329,1.026v-1.302h-2.743v9.86h2.743v-4.271c0-0.95,0.202-1.717,0.605-2.3
	c0.404-0.58,1.017-0.87,1.834-0.87H64.432z M19.17,168.34c-0.516-0.464-0.781-1.114-0.781-1.952s0.265-1.49,0.781-1.965
	c0.521-0.468,1.144-0.7,1.859-0.7c0.454,0,0.909,0.102,1.363,0.308c0.46,0.21,0.849,0.504,1.166,0.882l1.43-1.87
	c-0.546-0.574-1.188-1.007-1.913-1.303c-0.728-0.291-1.443-0.437-2.159-0.437c-1.412,0-2.64,0.47-3.67,1.418
	c-1.029,0.945-1.55,2.177-1.55,3.686c0,1.507,0.511,2.73,1.532,3.664c1.021,0.936,2.271,1.402,3.75,1.402
	c1.476,0,2.851-0.662,4.117-1.979l-1.629-1.833c-0.731,0.915-1.553,1.373-2.473,1.373C20.296,169.033,19.691,168.805,19.17,168.34z
	 M37.891,162.777c-0.988-0.983-2.227-1.475-3.729-1.475c-1.499,0-2.738,0.491-3.729,1.475c-0.991,0.982-1.486,2.188-1.486,3.616
	c0,1.43,0.496,2.636,1.486,3.613c0.991,0.979,2.229,1.466,3.729,1.466c1.502,0,2.741-0.487,3.729-1.466
	c0.996-0.978,1.487-2.184,1.487-3.613C39.377,164.965,38.887,163.76,37.891,162.777z M32.402,164.419
	c0.459-0.514,1.044-0.771,1.759-0.771s1.298,0.258,1.757,0.771c0.46,0.511,0.692,1.17,0.692,1.975c0,0.807-0.232,1.466-0.692,1.974
	c-0.459,0.506-1.042,0.759-1.757,0.759s-1.3-0.253-1.759-0.759c-0.458-0.508-0.687-1.167-0.687-1.974
	C31.715,165.589,31.945,164.93,32.402,164.419z M49.876,163.887l-0.019-2.584c-0.546,0.01-1.087,0.16-1.619,0.437
	c-0.531,0.285-0.976,0.625-1.331,1.028v-1.304h-2.746v9.863h2.746v-4.27c0-0.955,0.202-1.722,0.605-2.299
	c0.404-0.583,1.012-0.872,1.832-0.872H49.876z M57.804,164.078c0.411-0.397,0.886-0.597,1.44-0.597c1.111,0,1.662,0.759,1.662,2.273
	v5.572h2.753v-5.991c0-1.224-0.353-2.201-1.052-2.935c-0.706-0.732-1.573-1.099-2.615-1.099c-1.035,0-1.972,0.422-2.802,1.26v-1.099
	h-2.75v9.863h2.75v-5.501C57.191,165.059,57.393,164.478,57.804,164.078z M75.899,168.228c-0.621,0.648-1.42,0.974-2.381,0.974
	c-0.6,0-1.134-0.172-1.611-0.514c-0.478-0.343-0.758-0.781-0.848-1.318h7.189V165.9c0-1.43-0.478-2.551-1.419-3.375
	c-0.948-0.815-2.099-1.223-3.459-1.223c-1.351,0-2.528,0.455-3.521,1.372c-1.003,0.919-1.495,2.15-1.495,3.704
	c0,1.553,0.486,2.788,1.464,3.71c0.978,0.923,2.208,1.384,3.708,1.384c1.494,0,2.801-0.524,3.91-1.575L75.899,168.228z
	 M75.465,165.407h-4.327c0.069-0.562,0.334-1.008,0.789-1.337c0.449-0.333,0.947-0.498,1.486-0.498c0.544,0,1.009,0.161,1.387,0.477
	C75.181,164.368,75.398,164.82,75.465,165.407z M88.691,163.887l-0.018-2.584c-0.545,0.01-1.087,0.16-1.621,0.437
	c-0.529,0.285-0.977,0.625-1.332,1.028v-1.304h-2.748v9.863h2.748v-4.27c0-0.955,0.208-1.722,0.605-2.299
	c0.408-0.583,1.017-0.872,1.831-0.872H88.691z"/>
<g>
</g>
<g>
</g>
<g>
</g>
<g>
</g>
<g>
</g>
<g>
</g>
</svg>
