<?xml version="1.0" encoding="utf-8"?>
<!-- Generator: Adobe Illustrator 16.0.0, SVG Export Plug-In . SVG Version: 6.00 Build 0)  -->
<!DOCTYPE svg PUBLIC "-//W3C//DTD SVG 1.1//EN" "http://www.w3.org/Graphics/SVG/1.1/DTD/svg11.dtd">
<svg version="1.1" id="Layer_1" xmlns="http://www.w3.org/2000/svg" xmlns:xlink="http://www.w3.org/1999/xlink" x="0px" y="0px"
	 width="166.667px" height="178.161px" viewBox="0 0 166.667 178.161" enable-background="new 0 0 166.667 178.161"
	 xml:space="preserve">
<g opacity="0.5">
	<path fill="#E2CFCC" d="M64.387,120.751H51.184V78.485h13.203V120.751z M57.45,73.197h-0.098c-4.773,0-7.869-3.235-7.869-7.329
		c0-4.168,3.186-7.336,8.062-7.336c4.863,0,7.855,3.161,7.953,7.326C65.499,69.954,62.409,73.197,57.45,73.197z M117.184,120.751
		h-14.969V98.876c0-5.725-2.336-9.629-7.482-9.629c-3.936,0-6.123,2.633-7.145,5.18c-0.387,0.912-0.324,2.176-0.324,3.451v22.873
		H72.44c0,0,0.197-38.745,0-42.266h14.824v6.627c0.877-2.896,5.613-7.033,13.17-7.033c9.379,0,16.75,6.076,16.75,19.17V120.751z"/>
</g>
<polygon opacity="0.5" fill="none" stroke="#E1CFCC" stroke-width="3" stroke-miterlimit="10" points="82.762,165.454 
	18.258,127.552 18.833,52.74 83.906,15.83 148.408,53.732 147.836,128.546 "/>
<g>
</g>
<g>
</g>
<g>
</g>
<g>
</g>
<g>
</g>
<g>
</g>
</svg>
