<?xml version="1.0" encoding="utf-8"?>
<!-- Generator: Adobe Illustrator 16.0.0, SVG Export Plug-In . SVG Version: 6.00 Build 0)  -->
<!DOCTYPE svg PUBLIC "-//W3C//DTD SVG 1.1//EN" "http://www.w3.org/Graphics/SVG/1.1/DTD/svg11.dtd">
<svg version="1.1" id="Layer_1" xmlns="http://www.w3.org/2000/svg" xmlns:xlink="http://www.w3.org/1999/xlink" x="0px" y="0px"
	 width="166.667px" height="178.161px" viewBox="0 0 166.667 178.161" enable-background="new 0 0 166.667 178.161"
	 xml:space="preserve">
<g opacity="0.5">
	<path fill="#E2CFCC" d="M80.767,53.971c-18.655,0-33.785,15.155-33.785,33.853c0,13.863,8.319,25.767,20.226,31.003
		c-0.097-2.361-0.016-5.201,0.586-7.773c0.65-2.744,4.346-18.443,4.346-18.443s-1.078-2.166-1.078-5.354
		c0-5.024,2.903-8.768,6.516-8.768c3.072,0,4.559,2.312,4.559,5.079c0,3.101-1.971,7.728-2.984,12.015
		c-0.845,3.59,1.796,6.521,5.329,6.521c6.402,0,10.715-8.236,10.715-17.996c0-7.42-4.99-12.97-14.057-12.97
		c-10.248,0-16.632,7.653-16.632,16.204c0,2.954,0.867,5.033,2.224,6.642c0.627,0.742,0.711,1.037,0.487,1.887
		c-0.162,0.619-0.533,2.123-0.689,2.715c-0.226,0.855-0.916,1.166-1.689,0.852c-4.722-1.936-6.918-7.113-6.918-12.931
		c0-9.618,8.092-21.153,24.143-21.153c12.9,0,21.387,9.356,21.387,19.396c0,13.283-7.366,23.199-18.229,23.199
		c-3.646,0-7.077-1.979-8.249-4.219c0,0-1.964,7.799-2.379,9.309c-0.712,2.602-2.119,5.217-3.401,7.246
		c3.038,0.9,6.25,1.389,9.576,1.389c18.655,0,33.78-15.156,33.78-33.849C114.547,69.126,99.422,53.971,80.767,53.971"/>
</g>
<polygon opacity="0.5" fill="none" stroke="#E1CFCC" stroke-width="3" stroke-miterlimit="10" points="82.761,163.894 
	18.258,125.991 18.831,51.178 83.906,14.268 148.409,52.17 147.835,126.983 "/>
<g>
</g>
<g>
</g>
<g>
</g>
<g>
</g>
<g>
</g>
<g>
</g>
</svg>
