<?xml version="1.0" encoding="utf-8"?>
<!-- Generator: Adobe Illustrator 16.0.0, SVG Export Plug-In . SVG Version: 6.00 Build 0)  -->
<!DOCTYPE svg PUBLIC "-//W3C//DTD SVG 1.1//EN" "http://www.w3.org/Graphics/SVG/1.1/DTD/svg11.dtd">
<svg version="1.1" id="Layer_1" xmlns="http://www.w3.org/2000/svg" xmlns:xlink="http://www.w3.org/1999/xlink" x="0px" y="0px"
	 width="180.898px" height="192.135px" viewBox="0 0 180.898 192.135" enable-background="new 0 0 180.898 192.135"
	 xml:space="preserve">
<g>
	<rect x="58.788" y="85.64" fill="#FFFFFF" width="63.608" height="5.3"/>
	<rect x="58.788" y="106.845" fill="#FFFFFF" width="63.608" height="5.301"/>
	<rect x="58.788" y="128.048" fill="#FFFFFF" width="42.405" height="5.301"/>
	<path fill="#FFFFFF" d="M106.494,32.633c0-8.782-7.117-15.902-15.901-15.902c-8.779,0-15.902,7.12-15.902,15.902H26.984v137.82
		H154.2V32.633H106.494z M79.991,44.803v-3.083v-9.087c0-5.844,4.762-10.601,10.602-10.601c5.849,0,10.601,4.757,10.601,10.601
		v9.087v3.083l2.682,1.524c5.208,2.963,9.193,7.464,11.492,12.809H65.828c2.288-5.347,6.284-9.848,11.486-12.809L79.991,44.803z
		 M148.899,165.152H32.285V37.934H74.69v3.787c-8.271,4.71-14.267,12.97-15.902,22.717h63.608
		c-1.626-9.75-7.62-18.006-15.902-22.717v-3.787h42.405V165.152z"/>
</g>
<g>
</g>
<g>
</g>
<g>
</g>
<g>
</g>
<g>
</g>
<g>
</g>
</svg>
