<?xml version="1.0" encoding="utf-8"?>
<!-- Generator: Adobe Illustrator 16.0.0, SVG Export Plug-In . SVG Version: 6.00 Build 0)  -->
<!DOCTYPE svg PUBLIC "-//W3C//DTD SVG 1.1//EN" "http://www.w3.org/Graphics/SVG/1.1/DTD/svg11.dtd">
<svg version="1.1" id="Layer_1" xmlns="http://www.w3.org/2000/svg" xmlns:xlink="http://www.w3.org/1999/xlink" x="0px" y="0px"
	 width="180.898px" height="192.135px" viewBox="0 0 180.898 192.135" enable-background="new 0 0 180.898 192.135"
	 xml:space="preserve">
<g>
	<rect x="65.592" y="87.341" fill="#FFFFFF" width="50.001" height="4.167"/>
	<rect x="65.592" y="104.01" fill="#FFFFFF" width="50.001" height="4.167"/>
	<rect x="65.592" y="120.677" fill="#FFFFFF" width="33.334" height="4.167"/>
	<path fill="#FFFFFF" d="M103.092,45.674c0-6.903-5.594-12.5-12.499-12.5c-6.901,0-12.5,5.597-12.5,12.5h-37.5V154.01h100V45.674
		H103.092z M82.259,55.241v-2.423v-7.144c0-4.594,3.743-8.333,8.334-8.333c4.598,0,8.333,3.739,8.333,8.333v7.144v2.423l2.107,1.198
		c4.094,2.33,7.227,5.868,9.034,10.069H71.126c1.799-4.203,4.939-7.741,9.029-10.069L82.259,55.241z M136.426,149.843H44.759V49.841
		h33.334v2.977c-6.502,3.703-11.215,10.195-12.501,17.857h50.001c-1.278-7.664-5.99-14.154-12.501-17.857v-2.977h33.334V149.843z"/>
</g>
<g>
</g>
<g>
</g>
<g>
</g>
<g>
</g>
<g>
</g>
<g>
</g>
</svg>
