<?xml version="1.0" encoding="utf-8"?>
<!-- Generator: Adobe Illustrator 16.0.0, SVG Export Plug-In . SVG Version: 6.00 Build 0)  -->
<!DOCTYPE svg PUBLIC "-//W3C//DTD SVG 1.1//EN" "http://www.w3.org/Graphics/SVG/1.1/DTD/svg11.dtd">
<svg version="1.1" id="Layer_1" xmlns="http://www.w3.org/2000/svg" xmlns:xlink="http://www.w3.org/1999/xlink" x="0px" y="0px"
	 width="166.667px" height="178.161px" viewBox="0 0 166.667 178.161" enable-background="new 0 0 166.667 178.161"
	 xml:space="preserve">
<g>
	<path fill="#231F20" d="M117.186,71.897c-2.492,1.104-5.17,1.849-7.979,2.187c2.873-1.719,5.074-4.44,6.107-7.682
		c-2.686,1.592-5.654,2.745-8.826,3.366c-2.525-2.7-6.139-4.386-10.135-4.386c-7.668,0-13.887,6.221-13.887,13.888
		c0,1.091,0.117,2.149,0.357,3.165C71.282,81.852,61.05,76.33,54.192,67.92c-1.197,2.059-1.877,4.444-1.877,6.99
		c0,4.813,2.451,9.064,6.176,11.559c-2.271-0.069-4.418-0.699-6.295-1.733v0.169c0,6.734,4.791,12.35,11.146,13.621
		c-1.164,0.326-2.389,0.488-3.66,0.488c-0.895,0-1.764-0.082-2.611-0.246c1.768,5.518,6.893,9.535,12.973,9.643
		c-4.754,3.728-10.746,5.945-17.25,5.945c-1.121,0-2.229-0.062-3.312-0.191c6.146,3.939,13.449,6.238,21.289,6.238
		c25.555,0,39.521-21.162,39.521-39.519c0-0.603-0.013-1.205-0.039-1.797C112.971,77.128,115.33,74.68,117.186,71.897"/>
</g>
<polygon fill="none" stroke="#231F20" stroke-width="3" stroke-miterlimit="10" enable-background="new    " points="
	82.762,163.893 18.258,125.991 18.832,51.178 83.906,14.268 148.408,52.17 147.835,126.983 "/>
</svg>
